<svg xmlns="http://www.w3.org/2000/svg" id="Layer_1" data-name="Layer 1" viewBox="0 0 935.27 318.92"><defs><style>      .cls-1 {        fill: #ed0b73;      }      .cls-1, .cls-2, .cls-3, .cls-4 {        stroke-width: 0px;      }      .cls-2 {        fill: #1d1d1b;      }      .cls-3 {        fill: #000;      }      .cls-4 {        fill: #fff;      }    </style></defs><g><path class="cls-2" d="M347.12,206.7h18.53v18.53h-18.53v-18.53h0ZM347.12,228.94h18.53v18.53h-18.53v-18.53ZM347.12,251.18h18.53v18.53h-18.53v-18.53ZM347.12,273.43h18.53v18.53h-18.53v-18.53ZM347.12,295.66h18.53v18.53h-18.53v-18.53ZM369.36,228.94h18.53v18.53h-18.53v-18.53ZM391.61,251.18h18.53v18.53h-18.53v-18.53ZM391.61,273.43h18.53v18.53h-18.53v-18.53ZM413.84,228.94h18.53v18.53h-18.53v-18.53ZM436.09,206.7h18.54v18.53h-18.54v-18.53h0ZM436.09,228.94h18.54v18.53h-18.54v-18.53ZM436.09,251.18h18.54v18.53h-18.54v-18.53ZM436.09,273.43h18.54v18.53h-18.54v-18.53ZM436.09,295.66h18.54v18.53h-18.54v-18.53Z"></path><path class="cls-2" d="M480.56,206.7h18.53v18.53h-18.53v-18.53h0ZM480.56,228.94h18.53v18.53h-18.53v-18.53ZM480.56,251.18h18.53v18.53h-18.53v-18.53ZM480.56,273.43h18.53v18.53h-18.53v-18.53ZM480.56,295.66h18.53v18.53h-18.53v-18.53ZM502.8,206.7h18.53v18.53h-18.53v-18.53h0ZM502.8,251.18h18.53v18.53h-18.53v-18.53ZM502.8,295.66h18.53v18.53h-18.53v-18.53ZM525.04,206.7h18.53v18.53h-18.53v-18.53h0ZM525.04,251.18h18.53v18.53h-18.53v-18.53ZM525.04,295.66h18.53v18.53h-18.53v-18.53ZM547.28,206.7h18.53v18.53h-18.53v-18.53h0ZM547.28,251.18h18.53v18.53h-18.53v-18.53ZM547.28,295.66h18.53v18.53h-18.53v-18.53ZM569.52,206.7h18.53v18.53h-18.53v-18.53h0ZM569.52,295.66h18.53v18.53h-18.53v-18.53Z"></path><path class="cls-2" d="M614,206.7h18.53v18.53h-18.53v-18.53h0ZM614,228.94h18.53v18.53h-18.53v-18.53ZM614,251.18h18.53v18.53h-18.53v-18.53ZM614,273.43h18.53v18.53h-18.53v-18.53ZM614,295.66h18.53v18.53h-18.53v-18.53ZM636.24,206.7h18.53v18.53h-18.53v-18.53h0ZM636.24,295.66h18.53v18.53h-18.53v-18.53ZM658.48,206.7h18.53v18.53h-18.53v-18.53h0ZM658.48,295.66h18.53v18.53h-18.53v-18.53ZM680.72,206.7h18.54v18.53h-18.54v-18.53h0ZM680.72,295.66h18.54v18.53h-18.54v-18.53ZM702.96,228.94h18.53v18.53h-18.53v-18.53ZM702.96,251.18h18.53v18.53h-18.53v-18.53ZM702.96,273.43h18.53v18.53h-18.53v-18.53Z"></path><path class="cls-2" d="M742.71,206.7h18.53v18.53h-18.53v-18.53h0ZM742.71,295.66h18.53v18.53h-18.53v-18.53ZM764.95,206.7h18.53v18.53h-18.53v-18.53h0ZM764.95,228.94h18.53v18.53h-18.53v-18.53ZM764.95,251.18h18.53v18.53h-18.53v-18.53ZM764.95,273.43h18.53v18.53h-18.53v-18.53ZM764.95,295.66h18.53v18.53h-18.53v-18.53ZM787.19,206.7h18.53v18.53h-18.53v-18.53h0ZM787.19,295.66h18.53v18.53h-18.53v-18.53Z"></path><path class="cls-2" d="M827.78,206.7h18.53v18.53h-18.53v-18.53h0ZM827.78,228.94h18.53v18.53h-18.53v-18.53ZM827.78,251.18h18.53v18.53h-18.53v-18.53ZM827.78,273.43h18.53v18.53h-18.53v-18.53ZM827.78,295.66h18.53v18.53h-18.53v-18.53ZM850.02,206.7h18.53v18.53h-18.53v-18.53h0ZM850.02,251.18h18.53v18.53h-18.53v-18.53ZM872.27,206.7h18.53v18.53h-18.53v-18.53h0ZM872.27,251.18h18.53v18.53h-18.53v-18.53ZM894.5,206.7h18.53v18.53h-18.53v-18.53h0ZM894.5,251.18h18.53v18.53h-18.53v-18.53ZM916.74,206.7h18.53v18.53h-18.53v-18.53h0ZM916.74,228.94h18.53v18.53h-18.53v-18.53ZM916.74,251.18h18.53v18.53h-18.53v-18.53ZM916.74,273.43h18.53v18.53h-18.53v-18.53ZM916.74,295.66h18.53v18.53h-18.53v-18.53Z"></path><path class="cls-2" d="M348.3,5.95h29.01v29.01h-29.01s0-29.01,0-29.01ZM348.3,40.77h29.01v28.98h-29.01v-28.98ZM348.3,75.55h29.01v29.01h-29.01s0-29.01,0-29.01ZM348.3,110.37h29.01v28.98h-29.01v-28.98ZM348.3,145.15h29.01v29.01h-29.01v-29.01ZM383.11,5.95h28.98v29.01h-28.98s0-29.01,0-29.01ZM383.11,75.55h28.98v29.01h-28.98s0-29.01,0-29.01ZM417.9,5.95h29.01v29.01h-29.01s0-29.01,0-29.01ZM417.9,75.55h29.01v29.01h-29.01s0-29.01,0-29.01ZM452.71,5.95h28.98v29.01h-28.98V5.95h0ZM452.71,75.55h28.98v29.01h-28.98v-29.01h0ZM487.5,5.95h29.01v29.01h-29.01s0-29.01,0-29.01ZM487.5,40.77h29.01v28.98h-29.01v-28.98ZM487.5,75.55h29.01v29.01h-29.01s0-29.01,0-29.01ZM487.5,110.37h29.01v28.98h-29.01v-28.98ZM487.5,145.15h29.01v29.01h-29.01v-29.01Z"></path><path class="cls-2" d="M557.1,5.95h29.01v29.01h-29.01s0-29.01,0-29.01ZM557.1,75.55h29.01v29.01h-29.01s0-29.01,0-29.01ZM557.1,110.37h29.01v28.98h-29.01v-28.98ZM557.1,145.15h29.01v29.01h-29.01v-29.01ZM591.91,5.95h28.98v29.01h-28.98s0-29.01,0-29.01ZM591.91,75.55h28.98v29.01h-28.98s0-29.01,0-29.01ZM591.91,145.15h28.98v29.01h-28.98v-29.01ZM626.7,5.95h29.01v29.01h-29.01s0-29.01,0-29.01ZM626.7,75.55h29.01v29.01h-29.01s0-29.01,0-29.01ZM626.7,145.15h29.01v29.01h-29.01v-29.01ZM661.51,5.95h28.98v29.01h-28.98s0-29.01,0-29.01ZM661.51,75.55h28.98v29.01h-28.98s0-29.01,0-29.01ZM661.51,145.15h28.98v29.01h-28.98v-29.01ZM696.3,5.95h29.01v29.01h-29.01s0-29.01,0-29.01ZM696.3,40.77h29.01v28.98h-29.01v-28.98ZM696.3,75.55h29.01v29.01h-29.01s0-29.01,0-29.01ZM696.3,145.15h29.01v29.01h-29.01v-29.01Z"></path><path class="cls-2" d="M765.9,5.95h29.01v29.01h-29.01s0-29.01,0-29.01ZM765.9,145.15h29.01v29.01h-29.01v-29.01ZM800.71,5.95h28.98v29.01h-28.98s0-29.01,0-29.01ZM800.71,110.37h28.98v28.98h-28.98v-28.98ZM800.71,145.15h28.98v29.01h-28.98v-29.01ZM835.5,5.95h29.01v29.01h-29.01s0-29.01,0-29.01ZM835.5,75.55h29.01v29.01h-29.01s0-29.01,0-29.01ZM835.5,145.15h29.01v29.01h-29.01v-29.01ZM870.31,5.95h28.98v29.01h-28.98s0-29.01,0-29.01ZM870.31,40.77h28.98v28.98h-28.98v-28.98ZM870.31,145.15h28.98v29.01h-28.98v-29.01ZM905.1,5.95h29.01v29.01h-29.01s0-29.01,0-29.01ZM905.1,145.15h29.01v29.01h-29.01v-29.01Z"></path></g><g><rect class="cls-3" width="317.53" height="318.92"></rect><rect class="cls-4" x="50.01" y="185.92" width="37.72" height="37.72"></rect><rect class="cls-4" x="184.53" y="140.61" width="37.72" height="37.72"></rect><rect class="cls-4" x="229.81" y="185.92" width="37.74" height="37.72"></rect><rect class="cls-4" x="184.53" y="185.92" width="37.72" height="37.72"></rect><rect class="cls-4" x="93.94" y="231.17" width="37.74" height="37.77"></rect><rect class="cls-4" x="93.94" y="185.92" width="37.74" height="37.72"></rect><rect class="cls-4" x="93.94" y="140.61" width="37.74" height="37.72"></rect><rect class="cls-4" x="139.22" y="185.92" width="37.75" height="37.72"></rect><rect class="cls-4" x="184.53" y="231.17" width="37.72" height="37.77"></rect><rect class="cls-4" x="50.01" y="95.12" width="37.72" height="37.72"></rect><rect class="cls-4" x="229.81" y="95.12" width="37.74" height="37.72"></rect><rect class="cls-4" x="184.53" y="49.82" width="37.72" height="37.72"></rect><rect class="cls-4" x="184.53" y="95.12" width="37.72" height="37.72"></rect><rect class="cls-4" x="93.94" y="95.12" width="37.74" height="37.72"></rect><rect class="cls-4" x="139.22" y="95.12" width="37.75" height="37.72"></rect><rect class="cls-4" x="93.94" y="49.82" width="37.74" height="37.72"></rect><path class="cls-1" d="M4.7,314.2h37.75v-37.72H4.7s0,37.72,0,37.72ZM50.01,314.2h37.72v-37.72h-37.72v37.72ZM93.94,314.2h37.74v-37.72h-37.74v37.72ZM139.22,314.2h37.75v-37.72h-37.75v37.72ZM184.53,314.2h37.72v-37.72h-37.72v37.72ZM229.81,314.2h37.74v-37.72h-37.74v37.72ZM275.09,314.2h37.75v-37.72h-37.75v37.72ZM4.7,268.94h37.75v-37.77H4.7s0,37.77,0,37.77ZM50.01,268.94h37.72v-37.77h-37.72v37.77ZM139.22,268.94h37.75v-37.77h-37.75v37.77ZM229.81,268.94h37.74v-37.77h-37.74v37.77ZM275.09,268.94h37.75v-37.77h-37.75v37.77ZM4.7,223.64h37.75v-37.72H4.7s0,37.72,0,37.72ZM275.09,223.64h37.75v-37.72h-37.75v37.72ZM4.7,178.33h37.75v-37.72H4.7s0,37.72,0,37.72ZM50.01,178.33h37.72v-37.72h-37.72v37.72ZM139.22,178.33h37.75v-37.72h-37.75v37.72ZM229.81,178.33h37.74v-37.72h-37.74v37.72ZM275.09,178.33h37.75v-37.72h-37.75v37.72ZM4.7,132.84h37.75v-37.72H4.7s0,37.72,0,37.72ZM275.09,132.84h37.75v-37.72h-37.75v37.72ZM4.7,87.54h37.75v-37.72H4.7s0,37.72,0,37.72ZM50.01,87.54h37.72v-37.72h-37.72v37.72ZM139.22,87.54h37.75v-37.72h-37.75v37.72ZM229.81,87.54h37.74v-37.72h-37.74v37.72ZM275.09,87.54h37.75v-37.72h-37.75v37.72ZM4.7,4.52h0v37.77h37.75V4.52s-37.75,0-37.75,0ZM50.01,42.29h37.72V4.52h-37.72v37.77ZM93.94,42.29h37.74V4.52h-37.74v37.77ZM139.22,42.29h37.75V4.52h-37.75v37.77ZM184.53,42.29h37.72V4.52h-37.72v37.77ZM229.81,42.29h37.74V4.52h-37.74v37.77ZM275.09,42.29h37.75V4.52h-37.75v37.77Z"></path></g></svg>