<svg xmlns="http://www.w3.org/2000/svg" width="83" height="84" viewBox="0 0 83 84" fill="none"><g id="Consultancy Icon"><path id="Vector" d="M31.9579 48.2296C29.5889 48.5399 27.2934 48.9841 24.9823 49.1091C21.6149 49.2922 18.3478 48.6426 15.2211 47.3367C14.8601 47.1849 14.401 47.1246 14.0177 47.1916C10.57 47.7943 7.12906 48.4327 3.6881 49.069C2.23283 49.3368 1.48179 48.6069 1.75814 47.1559C2.32643 44.1489 2.92592 41.1487 3.45856 38.1351C3.53656 37.6909 3.45187 37.1238 3.22901 36.7354C-5.18394 21.9553 3.64353 3.34001 20.4382 0.475956C34.3291 -1.89253 47.5045 8.23548 48.7949 22.2767C49.3699 28.5361 47.7541 34.1817 44.068 39.249C43.9366 39.4276 43.8095 39.6084 43.5666 39.9499C43.9744 39.9499 44.2552 39.9499 44.5361 39.9499C55.3537 39.9499 66.169 39.9499 76.9866 39.9499C80.7307 39.9499 82.9682 42.1756 82.9682 45.9058C82.9682 54.0135 82.9013 62.1213 82.9994 70.2268C83.044 73.8499 80.5769 76.5175 77.0268 76.2496C76.8396 76.2362 76.6501 76.2741 76.2824 76.3032C76.2824 77.6783 76.2824 79.0355 76.2824 80.3928C76.2824 80.8102 76.3671 81.2634 76.2334 81.6384C76.064 82.1183 75.8077 82.6653 75.4177 82.951C74.8829 83.3417 74.3279 83.047 73.8733 82.576C72.0548 80.6964 70.2006 78.8502 68.4043 76.9461C67.8984 76.4103 67.3814 76.2317 66.666 76.234C56.9627 76.2541 47.2572 76.2518 37.5539 76.2429C34.8706 76.2407 32.8003 74.745 32.1896 72.3475C32.0136 71.6555 31.9712 70.9144 31.9712 70.1978C31.9556 63.1504 31.9623 56.1007 31.9623 49.0533C31.9623 48.7252 31.9623 48.3948 31.9623 48.2318L31.9579 48.2296ZM4.53274 46.1602C7.78649 45.5642 10.8954 44.9771 14.0132 44.4458C14.499 44.3632 15.0718 44.4302 15.5309 44.6133C17.7862 45.5151 20.0817 46.2696 22.5108 46.4527C29.1654 46.9505 34.962 44.9593 39.7312 40.2357C45.0709 34.9496 47.1859 28.4982 46.0292 21.1159C44.1683 9.26011 33.0677 1.23271 21.2071 2.97838C5.77407 5.25087 -2.35362 22.7388 5.8075 36.059C6.09053 36.5234 6.19305 37.2265 6.10167 37.7712C5.6359 40.5348 5.08098 43.2806 4.53051 46.1602H4.53274ZM73.6304 78.3122C73.5992 78.4015 73.6304 78.3524 73.6304 78.3033C73.6348 77.3568 73.6348 76.4103 73.6393 75.4616C73.646 74.1177 74.0917 73.678 75.4511 73.669C75.9526 73.6646 76.4518 73.669 76.9532 73.669C79.1105 73.6601 80.1245 72.6556 80.1245 70.5014C80.1267 62.2552 80.1267 54.0113 80.1245 45.7651C80.1245 43.7114 78.9879 42.5283 76.9398 42.526C65.2063 42.5149 53.475 42.5171 41.7414 42.5372C41.3937 42.5372 41.0126 42.7381 40.7073 42.939C38.8331 44.1735 36.9655 45.4191 35.1225 46.7005C34.8617 46.8813 34.5921 47.2742 34.5898 47.5688C34.5609 55.3395 34.5631 63.1124 34.572 70.8831C34.572 72.4993 35.5771 73.544 37.1817 73.6601C37.487 73.6824 37.7923 73.6713 38.0999 73.6713C47.9413 73.6713 57.7851 73.678 67.6265 73.6601C68.4088 73.6601 68.9771 73.8923 69.5342 74.4526C70.8669 75.7875 72.2754 77.0488 73.6282 78.3167L73.6304 78.3122Z" fill="#ED0B73"></path><path id="Vector_2" d="M77.1549 12.2317C77.0747 15.7119 75.9983 18.5023 73.7362 20.7837C72.3523 22.1789 71.4341 23.7839 71.3427 25.7707C71.3249 26.1502 71.501 26.6458 71.7617 26.9181C73.6181 28.8468 72.847 32.01 70.2953 32.8784C70.0702 32.9543 69.8206 33.2177 69.7448 33.4454C68.9715 35.7804 67.0928 37.2359 64.8107 37.2225C62.4595 37.2091 60.5318 35.7246 59.8031 33.4141C59.7206 33.153 59.4643 32.8471 59.2169 32.7511C56.6607 31.7578 56.712 28.0722 58.3054 26.7953C58.5528 26.5967 58.7422 26.1614 58.7378 25.8399C58.711 23.9045 57.9021 22.3129 56.527 20.9645C53.982 18.4688 52.8276 15.3994 52.9368 11.8545C53.124 5.80043 58.1472 0.777731 64.3851 0.382611C70.3555 0.00311818 76.0807 4.57713 76.9543 10.4369C77.0569 11.1223 77.1037 11.8165 77.1482 12.2317H77.1549ZM68.5592 26.052C68.6105 25.5385 68.6417 25.0988 68.6974 24.6612C69.0072 22.2213 70.3532 20.364 71.969 18.6072C75.0333 15.2788 75.2472 10.2673 72.5662 6.69559C69.7916 2.99888 64.8753 1.80236 60.777 3.82707C54.9804 6.6889 53.6989 14.4127 58.2965 18.9711C59.8298 20.4913 60.8505 22.2526 61.216 24.38C61.3096 24.9202 61.3319 25.4738 61.3876 26.0274H63.6741C63.6741 24.6791 63.5605 23.362 63.7009 22.0762C63.9282 19.9846 63.4334 18.3036 61.6751 17.0066C60.8995 16.4352 60.924 15.6271 61.4923 15.0578C62.0562 14.4931 62.7782 14.5466 63.4691 15.2163C63.9772 15.7097 64.472 16.2142 65.0158 16.7566C65.6019 16.1472 66.0855 15.6092 66.6092 15.1092C67.2087 14.5377 67.9508 14.531 68.4634 15.0489C68.9804 15.5713 68.976 16.2968 68.4077 16.9107C67.8773 17.4821 67.2733 17.9866 66.7786 18.5849C66.5245 18.8952 66.3083 19.3394 66.2972 19.7301C66.2482 21.594 66.2727 23.4625 66.2771 25.3287C66.2771 25.5676 66.3106 25.8042 66.3284 26.0497H68.5592V26.052ZM65.1851 28.7754C64.6859 28.7754 64.1867 28.762 63.6875 28.7776C62.5554 28.8134 61.4233 28.8513 60.2911 28.9116C59.6359 28.9473 59.7384 29.4897 59.8276 29.8491C59.8833 30.0768 60.2287 30.376 60.4605 30.3938C61.4233 30.4675 62.3949 30.4541 63.3644 30.4541C65.3032 30.4541 67.2421 30.4251 69.181 30.4385C69.698 30.4407 70.1215 30.4586 70.1504 29.7576C70.1772 29.1013 69.9632 28.762 69.2635 28.7709C67.904 28.7888 66.5446 28.7754 65.1851 28.7754ZM67.0883 32.9342H62.4685C62.8874 34.0638 63.6719 34.6196 64.7394 34.6107C65.8693 34.6017 66.7117 34.0236 67.0883 32.9342Z" fill="#ED0B73"></path><path id="Vector_3" d="M25.564 62.3115C25.4258 65.4992 23.8123 68.2762 20.5162 70.0398C20.2354 70.1893 19.968 70.551 19.8922 70.8635C19.4955 72.5065 17.9355 73.6963 16.1214 73.6695C14.606 73.645 13.3201 72.4574 13.0148 70.801C12.4353 67.6467 14.0132 64.8764 17.0084 63.7893C18.067 63.4053 18.6197 62.6151 18.5551 61.5838C18.5038 60.7533 17.8798 59.9631 17.0931 59.7354C16.1593 59.4631 15.074 59.9162 14.5079 60.8136C13.2399 62.8249 11.3768 63.4009 9.56714 62.3405C8.10518 61.4855 7.51237 59.6662 8.19878 58.1482C9.95937 54.2528 14.2739 52.121 18.5684 53.0228C22.7225 53.8934 25.5484 57.445 25.5618 62.3137L25.564 62.3115ZM15.5621 69.7563C15.6623 70.1313 15.6757 70.5777 15.8986 70.8523C16.039 71.0242 16.5382 71.0309 16.8012 70.926C17.0017 70.8434 17.2246 70.455 17.2001 70.2273C17.0508 68.8142 17.6324 68.1445 18.9963 67.6266C22.0428 66.4681 23.4312 62.8964 22.3838 59.4988C21.4924 56.6102 18.2119 54.7082 15.1587 55.3712C13.0705 55.8244 11.4392 56.9316 10.521 58.9474C10.2558 59.53 10.4764 59.9095 10.9622 60.2042C11.4614 60.5078 11.8091 60.2243 12.1011 59.856C12.2548 59.6617 12.3551 59.4251 12.4911 59.2175C13.6143 57.4942 15.6646 56.6995 17.6525 57.2151C19.6382 57.7308 21.1291 59.5367 21.2338 61.5547C21.343 63.6799 20.1708 65.4814 18.1807 66.2471C16.322 66.9636 15.747 67.765 15.5665 69.7607L15.5621 69.7563Z" fill="#ED0B73"></path><path id="Vector_4" d="M16.2677 83.1078C14.0792 83.0921 12.303 81.2996 12.3008 79.1052C12.2986 76.8975 14.1505 75.0536 16.3479 75.0781C18.5186 75.1027 20.3148 76.9242 20.3148 79.1007C20.3148 81.3241 18.5007 83.1211 16.2677 83.1055V83.1078ZM16.3123 77.5649C15.5345 77.5627 14.8837 78.219 14.8926 78.9936C14.9016 79.728 15.53 80.3732 16.261 80.4C17.021 80.4267 17.7074 79.7704 17.723 79.0025C17.7386 78.2279 17.0878 77.5671 16.3123 77.5649Z" fill="#ED0B73"></path><path id="Vector_5" d="M30.2576 14.0645C29.9857 17.2879 29.7249 20.8686 29.3683 24.438C29.1009 27.1034 26.9325 28.9719 24.3339 28.9161C21.7822 28.8603 19.7698 26.9181 19.538 24.2795C19.2349 20.8172 18.9407 17.3527 18.6399 13.8881C18.2632 9.52842 22.6424 6.20227 26.7275 7.74257C28.9449 8.57969 30.3868 11.0084 30.2553 14.0645H30.2576ZM27.5721 13.2631C27.6256 11.8433 26.7252 10.4392 25.4282 10.0151C23.2575 9.30519 20.9576 11.0218 21.1114 13.3658C21.3387 16.8638 21.6752 20.3574 22.0117 23.8465C22.1432 25.2015 23.1662 26.0966 24.383 26.0654C25.6042 26.0341 26.5625 25.1211 26.6873 23.7505C27.0016 20.2859 27.2757 16.8169 27.5721 13.2631Z" fill="#ED0B73"></path><path id="Vector_6" d="M24.4868 41.9996C21.8749 42.0107 19.702 39.8521 19.6953 37.2403C19.6864 34.6263 21.8504 32.4364 24.4423 32.4319C27.0386 32.4274 29.2337 34.6062 29.2426 37.1979C29.2516 39.803 27.0854 41.9907 24.4846 42.0018L24.4868 41.9996ZM26.6486 37.2492C26.6686 36.0951 25.6702 35.0593 24.5113 35.0303C23.3658 35.0013 22.3117 35.9969 22.2627 37.151C22.2159 38.3006 23.2923 39.4213 24.4534 39.428C25.5922 39.4347 26.6285 38.4056 26.6486 37.2515V37.2492Z" fill="#ED0B73"></path><path id="Vector_7" d="M57.3565 67.0436C62.8299 67.0436 68.3033 67.0436 73.7768 67.0436C74.0264 67.0436 74.2827 67.0235 74.5256 67.0681C75.2321 67.1954 75.5931 67.6619 75.5842 68.3562C75.5753 69.0504 75.2098 69.5103 74.4899 69.6063C74.2158 69.642 73.935 69.6375 73.6587 69.6375C62.7675 69.6375 51.8764 69.6375 40.9874 69.6375C40.6821 69.6375 40.3746 69.6331 40.0759 69.5817C39.4341 69.4679 39.131 69.0259 39.0998 68.4053C39.0686 67.7445 39.3762 67.269 40.0291 67.0994C40.3189 67.0235 40.6353 67.0458 40.9406 67.0458C46.4141 67.0436 51.8875 67.0458 57.3609 67.0458L57.3565 67.0436Z" fill="#ED0B73"></path><path id="Vector_8" d="M57.2994 56.0183C51.855 56.0183 46.4105 56.0183 40.9638 56.0183C40.6852 56.0183 40.4022 56.0429 40.1325 55.9915C39.4283 55.8576 39.0784 55.3911 39.0985 54.6901C39.1163 54.0338 39.4439 53.5784 40.1303 53.4802C40.4312 53.4378 40.7387 53.4445 41.044 53.4445C51.9062 53.4445 62.7684 53.4445 73.6306 53.4445C75.0391 53.4445 75.6252 53.8418 75.594 54.7705C75.565 55.6679 75.0145 56.0206 73.635 56.0206C68.1906 56.0206 62.7461 56.0206 57.2994 56.0206V56.0183Z" fill="#ED0B73"></path><path id="Vector_9" d="M57.354 62.8806C51.8204 62.8806 46.2868 62.894 40.7532 62.856C40.2629 62.8516 39.6144 62.635 39.318 62.2823C38.6895 61.5367 39.2801 60.425 40.2651 60.3335C40.4858 60.3134 40.7086 60.3224 40.9315 60.3224C51.8605 60.3224 62.7895 60.3224 73.7186 60.3224C73.9972 60.3224 74.278 60.309 74.5521 60.3469C75.2407 60.4474 75.5705 60.9162 75.5839 61.5635C75.5973 62.2488 75.2652 62.7422 74.5409 62.856C74.2691 62.8985 73.986 62.8784 73.7074 62.8784C68.2563 62.8784 62.8074 62.8784 57.3562 62.8784L57.354 62.8806Z" fill="#ED0B73"></path><path id="Vector_10" d="M48.8289 49.1494C46.0788 49.1494 43.3265 49.1561 40.5764 49.145C39.6092 49.1405 39.0721 48.6628 39.0944 47.8413C39.1122 47.1828 39.4176 46.7274 40.0995 46.6024C40.2889 46.5667 40.4851 46.5488 40.6789 46.5488C46.1256 46.5466 51.5701 46.5466 57.0168 46.5488C57.6542 46.5488 58.2537 46.6359 58.5322 47.3279C58.9156 48.2855 58.2893 49.1383 57.1639 49.1427C54.3848 49.1561 51.608 49.1472 48.8289 49.1472V49.1494Z" fill="#ED0B73"></path></g></svg>