<svg xmlns="http://www.w3.org/2000/svg" width="85" height="91" viewBox="0 0 85 91" fill="none"><g id="Execution Icon"><path id="Vector" d="M31.0717 62.4307C31.9626 63.756 32.7623 64.9473 33.5661 66.1373C36.4413 70.4013 39.3504 74.6421 42.1862 78.9321C44.8981 83.0363 43.1818 88.1597 38.6228 89.7486C35.5586 90.817 32.2169 89.5942 30.204 86.6268C26.2449 80.7902 22.3048 74.9413 18.3551 69.0979C18.1606 68.8097 17.9553 68.5269 17.7349 68.2126C15.9397 69.3329 14.06 69.9983 11.9846 70.0598C5.34339 70.2592 -0.164875 64.7943 0.00377264 58.1134C0.100337 54.2538 1.80586 51.2262 4.94625 49.0306C7.25428 47.4171 9.61535 45.8801 11.9152 44.2543C12.4361 43.8854 12.9325 43.3567 13.2141 42.7897C17.7091 33.7055 22.1674 24.6037 26.6338 15.5059C27.7137 13.3076 29.5362 12.1668 31.8987 11.8881C34.8799 11.5356 37.5701 12.5261 40.1284 13.9142C44.7948 16.4445 48.5744 20.035 51.9052 24.1159C56.7838 30.0946 60.5906 36.6717 62.5885 44.1955C63.4318 47.3734 63.8724 50.6045 63.1978 53.889C62.8537 55.5626 62.1887 57.0873 60.9768 58.3211C59.7773 59.5425 58.3342 60.186 56.6069 60.3199C48.3391 60.9552 40.074 61.6328 31.8089 62.2995C31.6117 62.3159 31.4185 62.3679 31.0717 62.4307ZM28.5434 22.2005C28.7841 23.5708 28.9405 25.3155 29.4057 26.9727C32.3298 37.3712 38.1033 45.9156 46.3738 52.7632C48.6669 54.6609 51.2184 56.1569 54.1833 56.8237C55.7501 57.1762 57.0109 56.6611 58.1098 55.6118C59.0115 54.7511 59.4685 53.6362 59.6943 52.4271C60.1649 49.9146 59.9486 47.4103 59.236 45.0002C56.1037 34.4092 50.129 25.7363 41.4789 18.9338C39.462 17.3476 37.2247 16.1193 34.6949 15.5223C31.5437 14.7791 29.3159 16.2573 28.7841 19.4652C28.6549 20.2454 28.6413 21.046 28.542 22.2005H28.5434ZM46.9818 57.6133C35.9421 49.5389 28.7895 38.9751 25.4479 25.765C25.3676 25.8961 25.2983 25.9904 25.2479 26.0942C22.3075 32.1139 19.3765 38.1363 16.417 44.1463C16.1749 44.6368 16.3014 44.9483 16.5653 45.3377C19.518 49.6919 22.4788 54.0406 25.3867 58.4249C25.845 59.1162 26.3074 59.2979 27.1017 59.2241C30.6324 58.899 34.17 58.6449 37.7034 58.362C40.7636 58.1175 43.8223 57.8688 46.9818 57.6133ZM13.6915 47.2805C11.3712 48.8667 9.07676 50.3832 6.83674 51.979C3.1428 54.6117 2.39885 59.231 5.00337 63.0387C7.57797 66.8027 12.1206 67.7618 15.8757 65.293C17.9593 63.924 19.9994 62.4894 22.0572 61.0822C22.2694 60.9374 22.4693 60.7762 22.6992 60.604C19.6893 56.1528 16.7135 51.7508 13.6915 47.2805ZM20.6237 66.2821C21.6546 67.8069 22.6257 69.2387 23.5941 70.6732C26.7848 75.3949 29.9701 80.1208 33.1662 84.8384C34.1672 86.3166 35.6497 86.941 37.1662 86.5667C39.7952 85.9163 40.8016 83.0554 39.209 80.6864C35.3396 74.9345 31.4553 69.1922 27.5764 63.4458C27.0568 62.6766 26.2802 62.4567 25.5036 62.9649C23.8865 64.0237 22.3034 65.1359 20.6251 66.2808L20.6237 66.2821Z" fill="#ED0B73"></path><path id="Vector_2" d="M66.6485 24.4944C65.5455 24.4971 64.9769 24.0954 64.6873 23.3317C64.4003 22.5748 64.6873 21.7878 65.4543 21.2728C67.1558 20.1306 68.8749 19.013 70.5859 17.8845C72.7606 16.4499 74.934 15.0113 77.1114 13.5795C78.1968 12.8663 79.2127 12.9729 79.8193 13.8541C80.4422 14.7585 80.1498 15.7969 79.0373 16.5319C75.2509 19.0335 71.4617 21.5323 67.6644 24.0175C67.2863 24.2648 66.8389 24.4069 66.6498 24.4944H66.6485Z" fill="#ED0B73"></path><path id="Vector_3" d="M69.5068 32.5729C71.8407 32.9937 74.3187 33.4391 76.7954 33.8859C78.9565 34.2753 81.115 34.6742 83.2788 35.0499C84.4145 35.248 85.119 36.0322 84.9857 37.0023C84.8388 38.0679 83.884 38.7087 82.694 38.4969C78.4574 37.7373 74.2249 36.9654 69.9896 36.1962C69.587 36.1224 69.179 36.0664 68.786 35.9557C67.8734 35.6975 67.3321 34.8901 67.4708 34.0389C67.6218 33.1112 68.3752 32.5238 69.5054 32.5729H69.5068Z" fill="#ED0B73"></path><path id="Vector_4" d="M60.6809 1.85042C60.3219 5.35619 59.9656 8.86195 59.6065 12.3677C59.5194 13.2148 59.4419 14.0632 59.3358 14.9089C59.2026 15.9828 58.43 16.6167 57.4113 16.517C56.4661 16.4241 55.8187 15.6371 55.9207 14.5865C56.3451 10.2309 56.783 5.87672 57.2441 1.52525C57.3515 0.51697 58.1825 -0.0923716 59.159 0.0114624C60.0757 0.109832 60.7041 0.86946 60.6796 1.84905L60.6809 1.85042Z" fill="#ED0B73"></path><path id="Vector_5" d="M40.461 28.8554C45.2403 28.8554 48.8146 31.3802 50.1311 35.2193C51.4272 38.9983 50.1991 43.2022 47.0587 45.6902C46.7418 45.9415 46.3909 46.1902 46.0142 46.3173C45.224 46.5837 44.3835 46.1943 43.9999 45.4661C43.6055 44.716 43.7701 43.8321 44.5168 43.2651C45.9122 42.2035 46.8452 40.8769 47.0628 39.1063C47.3552 36.7345 46.5351 34.8012 44.6065 33.4336C42.6739 32.0633 40.5848 31.98 38.4549 33.0101C38.1924 33.1372 37.9544 33.3161 37.6919 33.4446C36.8229 33.8708 35.8695 33.603 35.3934 32.8093C34.9242 32.025 35.1282 31.0181 35.9225 30.473C37.4866 29.4005 39.2261 28.8649 40.461 28.854V28.8554Z" fill="#ED0B73"></path></g></svg>