<svg xmlns="http://www.w3.org/2000/svg" width="64" height="54" viewBox="0 0 64 54" fill="none"><g id="Icon"><path id="Vector" d="M18.3733 35.4669C17.9387 37.2055 17.5159 38.8918 17.0965 40.5797C16.6334 42.4365 16.177 44.2932 15.7106 46.1483C15.464 47.1289 14.974 47.5104 13.9623 47.5138C12.4338 47.5189 10.907 47.5206 9.37857 47.5138C8.2645 47.5087 7.67056 46.9163 7.66888 45.7988C7.66217 42.5766 7.66721 39.3543 7.66721 36.132C7.66721 35.9058 7.66721 35.6779 7.66721 35.3825C6.84844 35.3825 6.08 35.3859 5.31325 35.3825C2.59017 35.3639 0.643921 33.4127 0.633854 30.6782C0.625465 28.1091 0.627143 25.5384 0.633854 22.9693C0.638887 20.142 2.56165 18.1958 5.35855 18.1908C8.47758 18.184 11.5983 18.1064 14.714 18.2127C17.7978 18.319 20.7457 17.7721 23.6483 16.81C29.7941 14.771 35.5338 11.9538 40.5689 7.8048C41.3441 7.16507 42.0454 6.43419 42.8054 5.7742C43.2199 5.41467 43.344 5.00787 43.3608 4.46267C43.4111 2.77472 44.2249 1.5307 45.7617 0.848767C47.2785 0.175276 48.7147 0.42678 49.9831 1.49019C50.8623 2.22782 51.3035 3.20852 51.374 4.35801C51.3824 4.50486 51.3807 4.6534 51.3807 4.80026C51.3807 19.4601 51.3807 34.1182 51.3807 48.7781C51.3807 50.9387 50.1576 52.5473 48.208 52.9777C45.7668 53.5145 43.4061 51.6881 43.3642 49.1731C43.3541 48.5451 43.1494 48.1282 42.7182 47.7062C40.0337 45.0646 36.9919 42.9226 33.7067 41.1232C29.2807 38.6993 24.6533 36.7886 19.7105 35.7134C19.286 35.6205 18.8548 35.5581 18.3749 35.472L18.3733 35.4669ZM43.3189 9.50288C36.054 15.4934 27.8696 19.293 18.7474 21.175V32.4472C23.2976 33.2135 27.5727 34.7597 31.7168 36.6974C35.8761 38.6436 39.7669 41.027 43.3189 44.1176V9.50288ZM48.3657 26.8482C48.3657 19.5799 48.3657 12.3133 48.3657 5.04501C48.3657 4.83401 48.3858 4.61964 48.3489 4.41372C48.2499 3.8702 47.9177 3.53936 47.3607 3.53936C46.8053 3.53936 46.4714 3.86682 46.3708 4.41203C46.3372 4.59601 46.3557 4.79013 46.3557 4.97918C46.3557 19.5141 46.3557 34.0507 46.3557 48.5856C46.3557 48.7747 46.3372 48.9688 46.3708 49.1528C46.4698 49.698 46.8036 50.0272 47.359 50.0272C47.9144 50.0272 48.2482 49.698 48.3489 49.1545C48.3858 48.9502 48.3657 48.7342 48.3657 48.5232C48.3657 41.2971 48.3657 34.0727 48.3657 26.8466V26.8482ZM15.6653 32.3138V21.2713H10.7124V32.3155H15.6653V32.3138ZM7.62358 32.3391V21.2291C6.74609 21.2291 5.91222 21.2021 5.08003 21.2375C4.26798 21.2713 3.66397 21.8874 3.65893 22.7145C3.6388 25.4287 3.6388 28.1429 3.65893 30.8554C3.66564 31.6842 4.26798 32.2969 5.08171 32.3324C5.9139 32.3678 6.74777 32.3408 7.62358 32.3408V32.3391ZM10.7258 35.4061V44.4485H13.0295C13.7778 41.4304 14.521 38.4394 15.2744 35.4061H10.7258Z" fill="#ED0B73"></path><path id="Vector_2" d="M55.0369 17.3315C54.2265 17.3231 53.6779 16.9011 53.4866 16.2276C53.3088 15.598 53.5151 14.8823 54.1007 14.5835C55.7198 13.7581 57.3556 12.9631 59.0116 12.217C59.7197 11.898 60.5049 12.3098 60.8236 13.0272C61.1558 13.7767 60.884 14.6055 60.0972 15.0004C58.5855 15.76 57.0536 16.4808 55.5251 17.2066C55.3423 17.2927 55.1258 17.3079 55.0386 17.3281L55.0369 17.3315Z" fill="#ED0B73"></path><path id="Vector_3" d="M61.094 39.8421C60.9347 40.9781 59.9347 41.7511 58.9951 41.341C57.3525 40.6236 55.7419 39.8286 54.1463 39.0099C53.4516 38.6537 53.2537 37.7878 53.5859 37.0907C53.9147 36.402 54.7218 36.0121 55.4298 36.3345C57.0623 37.0755 58.683 37.8486 60.2619 38.6993C60.636 38.9002 60.8222 39.4521 61.094 39.8438V39.8421Z" fill="#ED0B73"></path><path id="Vector_4" d="M59.9878 25.27C60.7814 25.27 61.575 25.2565 62.3686 25.2734C63.2914 25.2919 63.9491 25.9452 63.939 26.801C63.9289 27.6348 63.288 28.2847 62.3988 28.2948C60.7495 28.3134 59.0986 28.3134 57.4493 28.2948C56.56 28.2847 55.9174 27.6331 55.909 26.7993C55.899 25.9418 56.5567 25.2902 57.4812 25.2717C58.3167 25.2548 59.1522 25.2683 59.9878 25.2683V25.27Z" fill="#ED0B73"></path></g></svg>