<svg xmlns="http://www.w3.org/2000/svg" width="54" height="53" viewBox="0 0 54 53" fill="none"><path d="M14.0867 29.8091C12.7467 29.8091 11.5009 29.6998 10.2838 29.8476C9.48997 29.944 8.67379 30.3071 7.9838 30.7392C6.05756 31.9457 4.18723 33.2437 2.30412 34.5192C1.80739 34.8565 1.30906 35.0397 0.745241 34.7377C0.183023 34.434 0.0632324 33.9152 0.0632324 33.3111C0.0712185 24.5303 0.0664268 15.7478 0.0696213 6.96533C0.0712185 3.02471 2.79766 0.258399 6.71561 0.251974C14.0484 0.240729 21.3812 0.248761 28.714 0.248761C29.9103 0.248761 31.1082 0.306593 32.2997 0.237516C35.2897 0.0640188 37.2255 1.58854 38.5848 4.08015C39.2987 5.38941 39.6134 6.80469 39.6118 8.29548C39.6086 11.7638 39.6118 15.2321 39.6118 18.7021C39.6118 18.9382 39.6118 19.176 39.6118 19.4989C39.8705 19.4989 40.0813 19.4989 40.2922 19.4989C42.4835 19.4989 44.6765 19.4957 46.8679 19.4989C50.912 19.5053 53.6273 22.2298 53.6289 26.2813C53.6305 34.5818 53.6273 42.8824 53.6337 51.1845C53.6337 51.795 53.5698 52.354 52.9804 52.6882C52.3655 53.0368 51.8448 52.7942 51.3209 52.4392C49.5209 51.2183 47.6968 50.0343 45.9096 48.7941C44.8522 48.0616 43.7246 47.7258 42.4372 47.729C35.1635 47.7515 27.8914 47.7467 20.6177 47.7371C17.4393 47.7323 14.8965 45.7017 14.2417 42.6398C14.1219 42.0775 14.0915 41.4864 14.0899 40.908C14.0772 37.459 14.0835 34.0116 14.0835 30.5625C14.0835 30.3264 14.0835 30.0902 14.0835 29.8107L14.0867 29.8091ZM2.63794 31.2083C3.978 30.3296 5.2334 29.5536 6.4377 28.7054C7.96463 27.6291 9.63691 27.1809 11.4913 27.1873C18.6627 27.2114 25.8342 27.2018 33.0057 27.1954C35.3616 27.1938 37.0211 25.6468 37.0323 23.372C37.0594 18.2201 37.0514 13.0698 37.0323 7.91796C37.0259 6.34203 36.3662 5.00868 35.3105 3.87292C34.6556 3.16768 33.8586 2.82551 32.8667 2.82712C24.1619 2.84479 15.4571 2.83515 6.75075 2.84157C6.35464 2.84157 5.94736 2.85442 5.56562 2.94439C3.73362 3.38134 2.61238 4.89783 2.61078 6.93642C2.60599 14.8145 2.60919 22.6909 2.61078 30.5689C2.61078 30.7424 2.62516 30.9143 2.63794 31.2099V31.2083ZM38.326 27.197C39.9168 27.197 41.3463 27.197 42.7758 27.197C43.0346 27.197 43.2965 27.1857 43.5505 27.2211C44.2421 27.3175 44.6781 27.8123 44.6829 28.4741C44.6893 29.1408 44.2628 29.6436 43.5776 29.7512C43.3428 29.7882 43.1017 29.7818 42.8621 29.7818C34.3953 29.7818 25.9301 29.7818 17.4632 29.7818H16.687C16.6726 29.9761 16.6567 30.0918 16.6567 30.2091C16.6567 33.9168 16.6551 37.6261 16.6614 41.3338C16.6614 41.6309 16.6934 41.9362 16.7637 42.2253C17.2141 44.0663 18.7107 45.178 20.7487 45.1796C28.0192 45.1844 35.2897 45.1892 42.5618 45.1748C44.1878 45.1716 45.6588 45.5876 47.0052 46.5065C48.1584 47.2937 49.3356 48.0439 50.5031 48.8086C50.6629 48.913 50.8338 48.9997 51.059 49.1283C51.0717 48.921 51.0861 48.7877 51.0861 48.6544C51.0861 41.1378 51.0941 33.6212 51.0829 26.1046C51.0781 23.6901 49.4618 22.0965 47.0484 22.0853C44.758 22.0756 42.466 22.082 40.1756 22.0853C40.0031 22.0853 39.8306 22.1094 39.607 22.127C39.682 23.9102 39.5 25.6034 38.3244 27.197H38.326Z" fill="#ED0B73"></path><path d="M19.7885 11.7973C16.6835 11.7973 13.5769 11.8005 10.472 11.7957C9.58552 11.7941 9.06642 11.3636 9.01851 10.6262C8.97219 9.91457 9.44496 9.33785 10.1493 9.25271C10.2675 9.23825 10.3873 9.24307 10.5071 9.24307C16.7187 9.24307 22.9302 9.24307 29.1418 9.24307C29.2615 9.24307 29.3813 9.23825 29.4995 9.2511C30.1799 9.325 30.6815 9.87923 30.6719 10.5411C30.6623 11.2094 30.1592 11.7636 29.4644 11.7813C28.3112 11.8118 27.1548 11.7957 26 11.7973C23.9301 11.7973 21.8585 11.7973 19.7885 11.7973Z" fill="#ED0B73"></path><path d="M19.852 14.3858C22.8579 14.3858 25.8639 14.3858 28.8698 14.3858C29.0886 14.3858 29.309 14.3794 29.5263 14.4019C30.1572 14.4646 30.6315 14.9626 30.6699 15.5859C30.7082 16.222 30.253 16.8003 29.6141 16.9192C29.4975 16.9417 29.3761 16.9417 29.2579 16.9417C22.9665 16.9417 16.6767 16.9513 10.3853 16.9208C10.0163 16.9192 9.50683 16.7104 9.31835 16.426C9.10113 16.0999 9.01648 15.5232 9.15544 15.165C9.28322 14.8356 9.7528 14.516 10.1249 14.434C10.6967 14.3087 11.3117 14.3874 11.909 14.3874C14.5572 14.3858 17.2038 14.3874 19.852 14.3874V14.3858Z" fill="#ED0B73"></path><path d="M15.368 19.4988C17.0004 19.4988 18.6327 19.4988 20.2651 19.4988C20.8401 19.4988 21.3256 19.6723 21.6019 20.2249C21.9581 20.9382 21.5924 21.7848 20.8273 22.0033C20.6197 22.0627 20.3961 22.0804 20.1788 22.082C16.9732 22.0868 13.7676 22.0884 10.562 22.0836C9.66121 22.0836 9.11496 21.6852 9.02232 20.988C8.90732 20.1205 9.48392 19.5101 10.4678 19.502C12.1001 19.4892 13.7325 19.4988 15.3648 19.4988H15.368Z" fill="#ED0B73"></path><path d="M33.7873 34.8968C30.8005 34.8968 27.8153 34.8968 24.8286 34.8968C24.6097 34.8968 24.3893 34.9032 24.1721 34.8807C23.5396 34.8164 23.0668 34.32 23.0301 33.6967C22.9918 33.059 23.4454 32.4823 24.0843 32.3618C24.1817 32.3441 24.2823 32.3409 24.3813 32.3409C30.7127 32.3409 37.044 32.3377 43.3738 32.3441C44.035 32.3441 44.5269 32.7409 44.6563 33.308C44.8384 34.1 44.3305 34.8084 43.5207 34.8823C43.3226 34.9 43.123 34.8952 42.9233 34.8952C39.8775 34.8952 36.8316 34.8952 33.7857 34.8952L33.7873 34.8968Z" fill="#ED0B73"></path><path d="M28.8081 37.4829C30.1993 37.4829 31.5921 37.4781 32.9832 37.4829C33.932 37.4877 34.5182 38.0002 34.4974 38.7857C34.4766 39.5488 33.8952 40.0356 32.9816 40.0372C30.1578 40.0404 27.3355 40.0404 24.5116 40.0372C23.614 40.0372 23.0278 39.5215 23.0278 38.7552C23.0278 37.9857 23.598 37.4893 24.5132 37.4845C25.9443 37.4765 27.3754 37.4829 28.8081 37.4829Z" fill="#ED0B73"></path></svg>