<svg xmlns="http://www.w3.org/2000/svg" width="61" height="60" viewBox="0 0 61 60" fill="none"><g id="Icon"><path id="Vector" d="M34.1588 2.12368C34.1665 2.17764 34.1696 2.2717 34.151 2.41201C33.9397 3.9955 34.6714 5.22129 36.1579 5.7779C36.3303 5.84266 36.5726 6.00147 36.8273 6.17108C37.0619 6.32526 37.326 6.49949 37.6242 6.65985C38.084 6.90655 38.5468 6.95897 38.8544 6.95897C39.2101 6.95897 39.5472 6.89267 39.8532 6.76007C40.2042 6.60897 40.4994 6.43319 40.7588 6.27746C40.8659 6.21271 40.97 6.15103 41.0617 6.10169C42.2189 8.04753 43.3497 9.9949 44.4261 11.8899C44.3578 11.9284 44.2537 11.9793 44.1605 12.0255C43.6728 12.2661 42.9365 12.6284 42.4954 13.4117C42.0309 14.235 42.0666 15.1787 42.093 15.8694L42.0977 15.9789L42.1024 16.1022C42.1086 16.2842 42.1148 16.4723 42.1303 16.6635C42.1847 17.2864 42.3276 18.9362 44.2102 19.6763C44.2444 19.6963 44.3127 19.7395 44.364 19.7734L44.4292 19.8166C43.2875 21.8256 42.1552 23.7715 41.0617 25.6063C40.9949 25.5662 40.9048 25.5076 40.8178 25.4506C40.3689 25.1545 39.6901 24.7074 38.8 24.7074C38.7845 24.7074 38.769 24.7074 38.755 24.7074C37.8649 24.7228 37.2452 25.2131 36.8755 25.5061C36.8273 25.5431 36.7621 25.5955 36.7171 25.6279C34.9106 26.2755 33.9895 27.6678 34.092 29.5797C32.9876 29.5874 31.8707 29.592 30.771 29.592C29.6713 29.592 28.5529 29.5874 27.4531 29.5797C27.6069 26.9446 25.8859 25.9671 24.7488 25.6109C23.997 24.8785 23.225 24.7244 22.7093 24.7244C22.0461 24.7244 21.4108 24.9649 20.819 25.4398C20.7739 25.4706 20.645 25.5338 20.5518 25.5801L20.4866 25.6125C19.3961 23.7823 18.2715 21.8503 17.1438 19.869C19.0466 18.9531 19.4272 17.6395 19.4194 15.7199C19.4132 14.3476 18.8835 12.6685 17.411 12.0703C17.3598 12.0487 17.2277 11.9623 17.1299 11.9007L17.1174 11.8929C18.1846 10.0134 19.3076 8.08299 20.4539 6.14949C21.1498 6.59201 21.8504 6.80787 22.5866 6.80787C23.6056 6.80787 24.4553 6.38385 25.1527 5.96755C25.9092 5.51733 27.6364 4.48736 27.4438 2.12522H34.1588M30.7679 22.8988C32.6598 22.8988 34.4415 22.1649 35.7851 20.8311C37.1287 19.4974 37.8681 17.7289 37.8665 15.8494C37.8634 11.9839 34.6946 8.82771 30.8036 8.81384H30.7772C28.8853 8.81384 27.1036 9.54776 25.76 10.8799C24.4164 12.2137 23.677 13.9822 23.6786 15.8617C23.6817 19.7272 26.8505 22.8834 30.7415 22.8972H30.7679M34.7273 0.273438H26.8209C26.0769 0.654278 25.4323 1.17851 25.5643 2.07588C25.7414 3.27699 25.1884 3.78889 24.1943 4.37943C23.6009 4.73251 23.0977 4.95609 22.5882 4.95609C22.1657 4.95609 21.737 4.80344 21.2492 4.44264C20.9852 4.24837 20.6916 4.15894 20.4011 4.15894C19.8342 4.15894 19.2734 4.49661 18.9426 5.05322C17.7527 7.05457 16.5815 9.06824 15.4321 11.0943C14.9521 11.9392 15.2348 12.8844 16.0519 13.4086C16.2631 13.5443 16.4759 13.6877 16.7058 13.7802C17.3116 14.0253 17.5524 14.9828 17.5555 15.7245C17.5617 17.3974 17.2634 17.8137 16.0985 18.3071C15.1836 18.6941 14.9428 19.758 15.4383 20.6292C16.5878 22.6536 17.759 24.6688 18.9519 26.6686C19.2812 27.2222 19.8124 27.5059 20.3887 27.5059C20.6823 27.5059 20.9867 27.4319 21.285 27.2839C21.5273 27.1636 21.7805 27.0479 21.9871 26.8814C22.2371 26.6794 22.4748 26.5746 22.7093 26.5746C22.9439 26.5746 23.1955 26.6902 23.4425 26.9308C23.632 27.1142 23.8774 27.2839 24.1275 27.3563C25.3406 27.7125 25.7119 28.4757 25.5721 29.7077C25.4634 30.6713 26.2959 31.4207 27.2854 31.4284C28.4473 31.4376 29.6107 31.4407 30.7726 31.4407C31.9344 31.4407 33.0979 31.4361 34.2597 31.4284C35.2507 31.4207 36.0833 30.676 35.9746 29.7107C35.8348 28.4773 36.2247 27.7495 37.4145 27.3471C37.9115 27.179 38.3278 26.5653 38.7892 26.5576C38.7938 26.5576 38.7985 26.5576 38.8016 26.5576C39.2831 26.5576 39.7709 27.0294 40.2617 27.2808C40.5599 27.4334 40.8659 27.509 41.1611 27.509C41.7342 27.509 42.2639 27.2253 42.5932 26.6717C43.7877 24.6719 44.9573 22.6583 46.1068 20.6338C46.6039 19.758 46.3227 18.8283 45.4653 18.2794C45.2866 18.1653 45.108 18.0404 44.9123 17.9648C44.2335 17.7027 44.058 17.3018 43.9881 16.5077C43.9725 16.3304 43.9694 16.1284 43.9617 15.9172C43.943 15.3806 43.8995 14.7146 44.1248 14.3168C44.3624 13.8943 45.0288 13.7154 45.4963 13.4117C46.3227 12.8751 46.5976 11.9454 46.1161 11.0958C44.9682 9.06979 43.797 7.05611 42.6056 5.05631C42.2701 4.49198 41.742 4.20211 41.1642 4.20211C40.8582 4.20211 40.5397 4.28383 40.2291 4.44727C39.8532 4.64617 39.5021 4.89595 39.1154 5.06402C39.0424 5.09485 38.9523 5.11027 38.8575 5.11027C38.7348 5.11027 38.6074 5.08406 38.5158 5.03472C37.938 4.72481 37.4223 4.27458 36.818 4.04793C36.0988 3.77964 35.9093 3.351 36.001 2.65716C36.1454 1.57477 35.7695 0.743707 34.7273 0.274979V0.273438ZM30.7694 21.047C30.7694 21.047 30.757 21.047 30.7508 21.047C27.8896 21.0362 25.5472 18.7018 25.5441 15.8602C25.5426 12.9985 27.8958 10.6641 30.7788 10.6641H30.799C33.6633 10.6749 36.0025 13.0062 36.0056 15.8509C36.0087 18.7126 33.6539 21.0485 30.771 21.0485L30.7694 21.047Z" fill="#ED0B73"></path><path id="Vector_2" d="M30.7806 44.1024C30.2622 44.1024 29.747 43.9665 29.2133 43.6931C22.2957 40.1519 15.2523 36.5654 8.44198 33.0976L2.51651 30.0797C2.47204 30.0579 2.42757 30.036 2.38463 30.0141C2.23281 29.9391 2.06106 29.8532 1.88931 29.747C1.04435 29.219 0.542891 28.2849 0.578161 27.3071C0.611898 26.3605 1.13482 25.531 1.97519 25.0889C4.27851 23.8799 6.62631 22.688 8.89743 21.5352C9.80833 21.0729 10.7177 20.6121 11.6225 20.1497L12.3984 19.7529L12.8324 20.5199C13.2618 21.2775 13.6835 22.032 14.1037 22.7818C15.0836 24.5297 16.0083 26.1808 16.9867 27.8444C17.9359 29.4612 19.7623 30.2078 21.6378 29.7454C21.7129 29.7267 21.7881 29.7095 21.877 29.6877L22.8431 29.458L23.1636 30.4468C23.205 30.5733 23.2449 30.6983 23.2848 30.8233C23.846 32.6196 25.4516 33.8396 27.2811 33.8568C29.1228 33.874 30.9983 33.8693 32.8125 33.8646L34.0423 33.8615C36.0037 33.8568 37.4513 32.8805 38.1629 31.0966L38.3361 30.5999C38.4067 30.3671 38.557 29.9235 39.0768 29.8095L39.6044 29.6955L39.6902 29.7954C39.8436 29.7986 39.9954 29.8032 40.1441 29.8095C40.7269 29.8282 41.2759 29.847 41.785 29.7783C42.9428 29.622 43.8736 29.0066 44.4732 27.9991C45.4577 26.3464 46.4162 24.6313 47.3424 22.9739C47.6553 22.4147 47.9666 21.857 48.2809 21.2994C48.3361 21.201 48.3883 21.0666 48.4481 20.912C48.4864 20.8151 48.5248 20.7136 48.5677 20.6105L48.9173 19.781L49.7439 20.1044C49.7838 20.12 49.8236 20.1341 49.8635 20.1481C49.9755 20.1887 50.1027 20.2356 50.2392 20.3043C51.2667 20.8261 52.2941 21.3494 53.3216 21.8726C55.2507 22.8552 57.2443 23.8705 59.2087 24.8624C60.3696 25.4498 60.96 26.312 60.963 27.4273C60.9661 28.5458 60.3803 29.4127 59.221 30.0032C50.1825 34.6003 41.328 39.1053 32.3723 43.6853C31.8279 43.9633 31.3035 44.1024 30.7806 44.1024ZM11.67 22.2241C11.0213 22.5537 10.3696 22.8849 9.71786 23.216C7.45287 24.3657 5.10967 25.5544 2.81861 26.7572C2.48278 26.9337 2.42297 27.2212 2.41684 27.3774C2.4061 27.6835 2.56712 27.9725 2.84775 28.1475C2.94436 28.2084 3.06244 28.2662 3.18819 28.3287C3.23879 28.3536 3.28787 28.3786 3.33847 28.4036L9.26394 31.4215C16.0758 34.8893 23.1176 38.4758 30.0383 42.0186C30.5812 42.2966 30.9891 42.2935 31.5442 42.0108C40.5015 37.4308 49.3575 32.9242 58.3959 28.3271C59.0661 27.9866 59.1213 27.7101 59.1198 27.4336C59.1198 27.1587 59.063 26.8837 58.3883 26.5432C56.4208 25.5497 54.4257 24.5344 52.495 23.5503C51.624 23.1067 50.7514 22.6631 49.8788 22.2194C49.8773 22.2241 49.8742 22.2272 49.8727 22.2319C49.5599 22.788 49.2486 23.3441 48.9373 23.9018C48.0049 25.5716 47.0403 27.2977 46.042 28.9722C45.1556 30.4609 43.728 31.4075 42.0227 31.6371C41.3648 31.7261 40.7115 31.7043 40.0813 31.684C40.0261 31.6824 39.9693 31.6808 39.9126 31.6793C38.9434 34.227 36.7827 35.7328 34.0423 35.7391L32.8125 35.7422C30.9937 35.7469 29.1121 35.7516 27.2596 35.7344C24.7263 35.7094 22.4935 34.0864 21.6179 31.6652C19.1014 32.1057 16.6984 31.0154 15.4026 28.8098C14.415 27.129 13.4427 25.3935 12.5012 23.7143C12.2236 23.2191 11.946 22.724 11.6654 22.2257L11.67 22.2241Z" fill="#ED0B73"></path><path id="Vector_3" d="M57.9117 33.3887C57.8 33.3887 57.6913 33.4057 57.6041 33.4474C56.7897 33.8228 55.9968 34.2445 55.1962 34.6493C47.9007 38.3308 40.6036 42.0062 33.3127 45.6954C32.4555 46.1295 31.5998 46.3566 30.7441 46.3566C29.9542 46.3566 29.1644 46.1635 28.3699 45.7634C20.459 41.7729 12.5374 37.8025 4.65408 33.7564C4.26068 33.5555 3.91626 33.4644 3.5948 33.4644C3.13405 33.4644 2.72075 33.6513 2.27989 33.9665C1.31093 34.6601 1.30634 36.0768 2.27071 36.7751C2.45593 36.908 2.66564 37.0084 2.86923 37.1119C11.769 41.6045 20.6733 46.0878 29.5639 50.6005C29.9864 50.8152 30.3782 50.9203 30.7701 50.9203C31.162 50.9203 31.5661 50.8106 31.9947 50.5928C38.3259 47.3716 44.6723 44.1814 51.0127 40.9803C53.6211 39.6641 56.2264 38.3416 58.8378 37.0331C59.5297 36.687 59.9476 36.1772 59.989 35.3723C59.9583 34.7405 59.6966 34.2291 59.1455 33.8939C58.8685 33.7255 58.5853 33.5509 58.2806 33.4505C58.1704 33.4134 58.0403 33.3918 57.9133 33.3918L57.9117 33.3887Z" fill="#ED0B73"></path><path id="Vector_4" d="M30.7816 59.683C30.225 59.683 29.6669 59.536 29.0888 59.2421C22.3546 55.8233 15.4977 52.3674 8.86617 49.0228C6.67815 47.9198 4.48861 46.8153 2.30059 45.7123C0.784157 44.9481 0.192304 43.4924 0.830156 42.0939C1.28555 41.093 2.17486 40.7187 2.82344 40.4448C2.93384 40.3984 3.04424 40.352 3.1531 40.3025C3.67902 40.0612 4.16048 40.3335 4.41807 40.4804C4.45181 40.499 4.48247 40.5175 4.51314 40.533L9.76928 43.183C15.9239 46.2847 22.2871 49.4915 28.5384 52.6644C30.0656 53.4394 31.4931 53.4379 33.031 52.6597C35.9672 51.1716 38.9065 49.688 41.8459 48.206C46.7785 45.7185 51.8783 43.1459 56.8783 40.5887C58.0498 39.99 58.8854 40.4773 59.4389 40.8006C59.5079 40.8409 59.5769 40.8811 59.6475 40.9198C60.4555 41.3606 60.9232 42.1651 60.963 43.1845V43.2309V43.2773C60.9186 44.023 60.5996 45.044 59.3393 45.6767C57.3552 46.673 55.3742 47.6723 53.3931 48.6732L50.785 49.9897C49.2578 50.7601 47.7307 51.5289 46.205 52.2977C41.6956 54.5703 37.0313 56.9201 32.456 59.2514C31.8871 59.5407 31.3367 59.6861 30.7847 59.6861L30.7816 59.683ZM3.58243 42.1357L3.53183 42.1573C2.97217 42.394 2.64865 42.5425 2.50145 42.8689C2.23466 43.4537 2.69311 43.8358 3.12244 44.0524C5.31045 45.1569 7.5 46.2599 9.68802 47.3629C16.3211 50.7059 23.1795 54.1634 29.9153 57.5838C30.5531 57.9071 30.9993 57.9086 31.6219 57.5915C36.2003 55.2571 40.8661 52.9073 45.3786 50.6348C46.9058 49.8659 48.4314 49.0971 49.9586 48.3267L52.5652 47.0102C54.5477 46.0093 56.5303 45.0084 58.5159 44.0106C58.9698 43.7832 59.0909 43.5233 59.12 43.2077C59.0878 42.7235 58.8655 42.6013 58.7689 42.5487C58.683 42.5023 58.6002 42.4528 58.5159 42.4049C58.0344 42.1233 57.9654 42.1094 57.7079 42.2424C52.7032 44.8027 47.6003 47.3753 42.6662 49.8644C39.7284 51.3464 36.7891 52.8284 33.8543 54.3166C31.7828 55.3669 29.7712 55.3685 27.7089 54.3212C21.4607 51.1499 15.0975 47.943 8.94437 44.8413L3.68822 42.1914C3.65449 42.1744 3.61922 42.1542 3.58243 42.1341V42.1357Z" fill="#ED0B73"></path></g></svg>