<svg xmlns="http://www.w3.org/2000/svg" width="61" height="61" viewBox="0 0 61 61" fill="none"><g id="Icon"><path id="Vector" d="M9.15159 33.6431H7.13892V32.9846C7.13892 23.5714 7.13892 14.1598 7.13892 4.74664C7.1406 2.14596 8.8307 0.454172 11.428 0.452492C21.6174 0.450812 31.8084 0.455852 41.9978 0.444092C42.5421 0.444092 42.9521 0.605374 43.3351 0.991781C46.5137 4.18887 49.7007 7.37589 52.8978 10.5528C53.2842 10.9375 53.4489 11.3475 53.4439 11.8901C53.4254 14.385 53.4355 16.8798 53.4355 19.3746V19.9139C54.1763 19.5057 54.8685 18.9714 55.6497 18.7245C57.2592 18.2154 58.9577 18.9294 59.8599 20.3339C60.7789 21.7636 60.6915 23.5949 59.5608 24.8919C58.8603 25.6966 58.0706 26.424 57.3146 27.1801C56.1302 28.3678 54.9357 29.5455 53.7647 30.7468C53.5951 30.9198 53.4472 31.2037 53.4455 31.4372C53.4287 36.4471 53.4338 41.4569 53.4355 46.4685C53.4355 46.5289 53.4506 46.5911 53.4707 46.7423C53.6841 46.7423 53.9042 46.7423 54.1259 46.7423C55.8245 46.7423 57.523 46.7389 59.2215 46.7423C60.1236 46.7457 60.4748 47.0968 60.4765 48.0006C60.4815 50.5156 60.4815 53.0323 60.4765 55.5473C60.4765 56.4478 60.1203 56.8023 59.2164 56.8023C49.9914 56.804 40.7647 56.804 31.5396 56.8023C30.6391 56.8023 30.2914 56.4461 30.2863 55.5423C30.2813 54.6452 30.2863 53.748 30.2863 52.8038H25.3051V50.7811H30.2863C30.2863 49.8184 30.283 48.923 30.2863 48.0292C30.2914 47.0833 30.6291 46.744 31.5766 46.7423C37.9086 46.7406 44.2407 46.7423 50.5727 46.7423H51.3724V33.166C51.1741 33.3491 51.0078 33.4902 50.8533 33.6448C47.6948 36.8016 44.5447 39.9667 41.3661 43.1034C41.0469 43.4192 40.5799 43.6628 40.1397 43.767C38.6529 44.1164 37.1493 44.3953 35.649 44.6876C34.7569 44.8607 34.184 44.2693 34.3604 43.3688C34.6494 41.8904 34.9182 40.4052 35.2659 38.9403C35.3752 38.4816 35.6288 37.9944 35.9598 37.6618C40.9377 32.6485 45.9358 27.6538 50.944 22.6692C51.3018 22.313 51.4379 21.9619 51.4329 21.4646C51.4093 18.7396 51.4211 16.0146 51.4211 13.2896V12.5336C51.154 12.5336 50.9305 12.5336 50.7088 12.5336C48.9481 12.5336 47.1857 12.5453 45.4251 12.5302C43.1167 12.5101 41.3779 10.7679 41.3611 8.45783C41.346 6.49051 41.3577 4.5232 41.3577 2.47189C41.0973 2.47189 40.8756 2.47189 40.6538 2.47189C30.9466 2.47189 21.2377 2.47189 11.5305 2.47189C9.91264 2.47189 9.15159 3.2363 9.15159 4.86089C9.15159 14.1901 9.15159 23.5193 9.15159 32.8485V33.6515V33.6431ZM44.3532 48.7802V50.7223H42.3305V48.7903H40.3296V50.734H38.3286V48.7987H36.3059V50.724H34.2831V48.7869H32.341V54.7409H58.4319V48.7953H56.4209V50.729H54.42V48.7835H52.419V50.7189H50.3963V48.7919H48.3735V50.7307H46.3726V48.7802H44.3499H44.3532ZM53.4707 23.1379C48.2677 28.3393 43.0714 33.5339 37.9691 38.6345C38.7755 39.4459 39.6189 40.296 40.3699 41.0504C45.5074 35.9145 50.702 30.7199 55.8749 25.5454C55.1054 24.7743 54.2788 23.9477 53.4707 23.1379ZM43.3704 4.02087C43.3704 5.4993 43.3654 6.9206 43.3704 8.34358C43.3771 9.66745 44.2037 10.5041 45.5192 10.5142C46.838 10.5226 48.1568 10.5175 49.4756 10.5142C49.6016 10.5142 49.7293 10.4772 49.7915 10.4671C47.6646 8.3335 45.5444 6.20491 43.3704 4.02255V4.02087ZM57.5263 24.0938C58.1983 23.5378 58.6503 22.8741 58.3899 21.9317C58.1866 21.1958 57.6809 20.7456 56.9467 20.6111C56.0647 20.4499 55.4347 20.8934 54.9576 21.5251C55.8161 22.3836 56.6527 23.2202 57.5263 24.0938ZM36.6083 42.4314C37.2114 42.3104 37.702 42.2113 38.1606 42.1205C37.7507 41.6619 37.3828 41.2503 36.946 40.7614C36.8284 41.3393 36.7309 41.8232 36.6083 42.433V42.4314Z" fill="#ED0B73"></path><path id="Vector_2" d="M0.0922272 45.6702C0.0922272 41.1224 0.0955873 36.5745 0.0888672 32.0267C0.0888672 31.4723 0.135908 30.9666 0.728958 30.723C1.33041 30.4743 1.71345 30.8322 2.09818 31.2169C11.3014 40.4218 20.5079 49.625 29.7128 58.8282C30.3344 59.4498 30.5024 59.9941 30.0622 60.394C29.7766 60.6527 29.2911 60.8106 28.8946 60.8123C22.2283 60.8375 15.5619 60.8291 8.89557 60.8291C6.40073 60.8291 3.90589 60.8308 1.41105 60.8291C0.428233 60.8291 0.0939073 60.4931 0.0939073 59.5052C0.0922272 54.8936 0.0939073 50.2836 0.0939073 45.6719L0.0922272 45.6702ZM2.13514 58.7643H26.5879C18.4516 50.6296 10.2833 42.463 2.13682 34.3183V58.7643H2.13514Z" fill="#ED0B73"></path><path id="Vector_3" d="M20.2237 25.1104C20.2237 23.3715 20.2422 21.631 20.2153 19.8922C20.2052 19.2185 20.4455 18.8069 21.0772 18.5331C23.9164 17.2966 26.7456 16.0365 29.568 14.7614C30.0687 14.5346 30.4988 14.5279 31.0011 14.7547C33.8051 16.0197 36.6141 17.2714 39.4348 18.4961C40.1052 18.7884 40.3706 19.2135 40.3639 19.9443C40.3387 23.3799 40.3353 26.8173 40.3639 30.2529C40.3706 31.019 40.0699 31.4407 39.3861 31.7381C36.5855 32.9561 33.795 34.1993 31.0095 35.4526C30.5122 35.6761 30.0788 35.6794 29.5748 35.4526C26.7523 34.1775 23.9231 32.9175 21.0839 31.681C20.4556 31.4071 20.2019 31.0022 20.212 30.3252C20.2372 28.5863 20.2204 26.8475 20.2204 25.107L20.2237 25.1104ZM22.2364 21.1203C22.2364 24.0486 22.2297 26.8559 22.2549 29.6632C22.2549 29.8346 22.4901 30.0765 22.6732 30.1605C24.5195 31.0056 26.3777 31.8238 28.2324 32.6486C28.5516 32.7898 28.8742 32.9242 29.2807 33.0989V32.4C29.2807 30.3672 29.2824 28.3343 29.2807 26.2998C29.2807 25.6295 29.5008 24.8012 29.1883 24.3342C28.8591 23.8436 28.0174 23.6874 27.3907 23.4051C25.7141 22.6542 24.0323 21.9149 22.2381 21.1203H22.2364ZM38.3395 21.127C35.9908 22.1703 33.7547 23.1548 31.532 24.1695C31.3959 24.2317 31.3069 24.5375 31.3052 24.7307C31.2901 27.0995 31.2951 29.4684 31.2951 31.8355V32.9981C31.4009 33.0115 31.4497 33.0334 31.4816 33.0199C33.6841 32.0506 35.8866 31.0812 38.0807 30.0933C38.2067 30.0362 38.3294 29.8128 38.3294 29.6649C38.3445 26.8576 38.3395 24.0503 38.3395 21.127ZM23.7165 19.573C25.9409 20.5608 27.9972 21.4832 30.067 22.3753C30.2535 22.4559 30.5525 22.3753 30.7625 22.2846C32.6206 21.4748 34.4704 20.6448 36.3217 19.8183C36.4612 19.7561 36.5855 19.6654 36.7922 19.5428C34.798 18.654 32.8844 17.8207 30.9927 16.9421C30.4921 16.7102 30.0821 16.7203 29.5882 16.9471C27.6948 17.819 25.7846 18.6523 23.7165 19.573Z" fill="#ED0B73"></path><path id="Vector_4" d="M31.2479 8.51482C31.2479 7.98037 30.8146 7.54712 30.2802 7.54712C29.7458 7.54712 29.3125 7.98037 29.3125 8.51482V11.5321C29.3125 12.0666 29.7458 12.4998 30.2802 12.4998C30.8146 12.4998 31.2479 12.0666 31.2479 11.5321V8.51482Z" fill="#ED0B73"></path><path id="Vector_5" d="M31.2437 39.6891C31.2437 39.1547 30.8105 38.7214 30.276 38.7214C29.7416 38.7214 29.3083 39.1547 29.3083 39.6891V42.7115C29.3083 43.2459 29.7416 43.6792 30.276 43.6792C30.8105 43.6792 31.2437 43.2459 31.2437 42.7115V39.6891Z" fill="#ED0B73"></path><path id="Vector_6" d="M17.4007 18.5363L17.3704 18.5985C17.1402 19.079 16.564 19.284 16.0818 19.0538C15.2637 18.664 14.4488 18.2759 13.6223 17.8811C13.1384 17.651 12.9351 17.073 13.1653 16.5892L13.1972 16.522C13.4274 16.0398 14.007 15.8349 14.4892 16.0667C15.309 16.4598 16.1222 16.8496 16.9454 17.2444C17.4275 17.4746 17.6308 18.0542 17.4007 18.5363Z" fill="#ED0B73"></path><path id="Vector_7" d="M13.1892 34.6876L13.1572 34.6204C12.9271 34.1382 13.132 33.5619 13.6125 33.3301C14.4307 32.9387 15.2438 32.5489 16.0721 32.1524C16.5543 31.9222 17.1322 32.1255 17.364 32.6077L17.396 32.6732C17.6261 33.1537 17.4228 33.7316 16.9407 33.9635C16.1208 34.3566 15.3094 34.7464 14.4828 35.1428C14.0006 35.3747 13.421 35.1697 13.1892 34.6876Z" fill="#ED0B73"></path><path id="Vector_8" d="M43.1837 18.5883L43.1518 18.5228C42.9233 18.0406 43.1283 17.4643 43.6088 17.2342C44.4286 16.8427 45.2418 16.453 46.0683 16.0582C46.5505 15.828 47.1284 16.0313 47.3603 16.5135C47.3704 16.5353 47.3804 16.5555 47.3905 16.5773C47.6207 17.0595 47.4174 17.6374 46.9352 17.8692C46.1154 18.2624 45.3022 18.6504 44.4773 19.0469C43.9935 19.2788 43.4139 19.0738 43.1837 18.59V18.5883Z" fill="#ED0B73"></path><path id="Vector_9" d="M12.4423 4.52466H11.866C11.4847 4.52466 11.1755 4.8338 11.1755 5.21515V5.74604C11.1755 6.12739 11.4847 6.43653 11.866 6.43653H12.4423C12.8236 6.43653 13.1328 6.12739 13.1328 5.74604V5.21515C13.1328 4.8338 12.8236 4.52466 12.4423 4.52466Z" fill="#ED0B73"></path><path id="Vector_10" d="M16.4649 4.50757H15.9105C15.5291 4.50757 15.22 4.81671 15.22 5.19806V5.75583C15.22 6.13718 15.5291 6.44632 15.9105 6.44632H16.4649C16.8462 6.44632 17.1554 6.13718 17.1554 5.75583V5.19806C17.1554 4.81671 16.8462 4.50757 16.4649 4.50757Z" fill="#ED0B73"></path><path id="Vector_11" d="M20.497 4.52637H19.9207C19.5394 4.52637 19.2302 4.83551 19.2302 5.21686V5.75951C19.2302 6.14086 19.5394 6.45 19.9207 6.45H20.497C20.8783 6.45 21.1875 6.14086 21.1875 5.75951V5.21686C21.1875 4.83551 20.8783 4.52637 20.497 4.52637Z" fill="#ED0B73"></path><path id="Vector_12" d="M11.1289 54.7897C9.87228 54.7897 8.6173 54.7947 7.36064 54.788C6.49879 54.783 6.13758 54.4251 6.1359 53.565C6.13086 51.0113 6.1359 48.4593 6.13086 45.9057C6.13086 45.3967 6.29214 45.0019 6.78607 44.8019C7.26152 44.6087 7.63616 44.8019 7.97049 45.1363C10.5745 47.742 13.1803 50.346 15.786 52.9484C16.1203 53.2827 16.3135 53.6574 16.1237 54.1328C15.9254 54.6267 15.5323 54.7947 15.0216 54.7914C13.7246 54.783 12.4259 54.788 11.1289 54.788V54.7897ZM8.19561 48.3837V52.7417H12.5536C11.1021 51.2902 9.6438 49.8319 8.19561 48.3837Z" fill="#ED0B73"></path></g></svg>