<svg xmlns="http://www.w3.org/2000/svg" width="64" height="64" viewBox="0 0 64 64" fill="none"><g id="Icon"><path id="Vector" d="M63.4472 21.7024C63.1612 23.1098 62.8611 24.5137 62.5944 25.9246C61.8311 29.9696 61.0836 34.0163 60.3256 38.0613C60.1519 38.9896 59.8308 39.237 58.8271 39.237C51.9857 39.237 45.1442 39.237 38.3045 39.237C38.0623 39.237 37.8202 39.237 37.5166 39.237C37.6395 40.0583 37.7254 40.8112 37.8693 41.5517C37.9658 42.0448 38.3045 42.3396 38.8221 42.3677C39.1713 42.387 39.5222 42.3677 39.8732 42.3818C40.7751 42.4239 41.4576 42.3519 42.1121 41.4254C43.3737 39.6372 46.1268 39.9671 47.1814 41.8957C47.3972 42.2905 47.6271 42.394 48.0359 42.387C49.2098 42.366 50.3854 42.3695 51.5593 42.387C51.8856 42.3923 52.0594 42.2975 52.2225 41.9922C52.9507 40.6357 54.3755 40.018 55.8196 40.3847C57.1918 40.7322 58.1621 41.9887 58.1691 43.4294C58.1779 44.8895 57.197 46.16 55.7915 46.5162C54.365 46.876 52.9718 46.2284 52.1839 44.8842C52.0769 44.7017 51.7979 44.5174 51.5926 44.5122C50.3573 44.4771 49.1203 44.5087 47.885 44.4858C47.5393 44.4806 47.3867 44.6157 47.2323 44.907C46.6409 46.0231 45.6881 46.604 44.4265 46.5952C43.1895 46.5864 42.2507 46.0108 41.6805 44.9123C41.5103 44.5841 41.319 44.4771 40.9663 44.4858C40.2259 44.5051 39.4819 44.5122 38.7414 44.4771C37.1938 44.4034 35.9813 43.3031 35.7532 41.764C34.6284 34.19 33.5125 26.6143 32.3912 19.0403C32.3018 18.4296 32.2175 17.8171 32.1158 17.2082C31.9596 16.2764 31.6525 16.0167 30.7155 16.0149C29.3767 16.0096 28.0379 16.0096 26.6973 16.0044C26.6587 16.0044 26.6219 15.9798 26.5447 15.9517V13.9406C28.2221 13.9406 29.8715 13.8547 31.5069 13.967C32.865 14.0617 33.9055 15.1971 34.1389 16.5484C34.2442 17.1573 34.3179 17.7698 34.4109 18.3805C34.5004 18.9683 34.5951 19.5545 34.7021 20.2283H35.4268C44.2669 20.2283 53.1069 20.2336 61.9469 20.2178C62.6049 20.2178 63.1103 20.3793 63.4454 20.9601V21.7024H63.4472ZM58.3481 37.1277C59.2763 32.1877 60.1958 27.2917 61.117 22.3833H35.0426C35.0426 22.4904 35.0355 22.5535 35.0426 22.6114C35.7216 27.1706 36.42 31.7262 37.0604 36.2906C37.1569 36.9768 37.364 37.147 38.0413 37.1435C44.5494 37.1154 51.0592 37.1259 57.569 37.1259H58.3481V37.1277ZM44.4739 44.4841C45.0635 44.4736 45.5302 43.9892 45.5074 43.4101C45.4864 42.8608 45.0126 42.3976 44.4651 42.3905C43.8914 42.3835 43.4088 42.8679 43.4106 43.4487C43.4123 44.0436 43.8738 44.4929 44.4739 44.4823V44.4841ZM55.0125 42.394C54.444 42.3888 53.9474 42.8837 53.9491 43.4522C53.9527 44.0068 54.4018 44.4648 54.9633 44.4841C55.5652 44.5034 56.0302 44.0682 56.0425 43.4715C56.0547 42.8837 55.5915 42.4011 55.0125 42.394Z" fill="#ED0B73"></path><path id="Vector_2" d="M46.2647 0.187744C47.0911 0.535208 47.9843 0.777379 48.7317 1.25119C50.1162 2.12863 50.8444 3.39213 50.818 5.12594C50.7566 8.93575 50.8005 12.7473 50.797 16.5589C50.797 16.8046 50.797 17.0573 50.7444 17.2959C50.6321 17.8259 50.1864 18.1628 49.6687 18.1119C49.1371 18.0593 48.7949 17.7662 48.7142 17.224C48.6809 17.0011 48.6861 16.773 48.6844 16.5466C48.6826 14.1565 48.6844 11.7681 48.6844 9.37798C48.6844 9.15511 48.6844 8.93224 48.6844 8.6655H14.9122C14.9122 8.92873 14.9122 9.1709 14.9122 9.41132C14.9122 11.2452 14.9227 13.079 14.9017 14.9111C14.8947 15.5727 14.4665 15.9956 13.8857 16.0096C13.2874 16.0254 12.8557 15.5867 12.8031 14.9005C12.7926 14.7566 12.7978 14.6127 12.7978 14.4688C12.7978 13.7897 12.7978 13.1088 12.7978 12.4297C12.7978 10.2045 12.7908 7.97935 12.7996 5.75593C12.8119 2.87971 14.3612 0.947601 17.1705 0.277242C17.2266 0.263203 17.2775 0.219332 17.3301 0.189499C26.9756 0.189499 36.6192 0.189499 46.2647 0.189499V0.187744ZM48.6844 6.48069C48.6844 6.02618 48.6423 5.59273 48.6931 5.16981C48.83 4.03441 48.2492 3.29035 47.3298 2.83584C46.7402 2.54453 46.0453 2.31991 45.3961 2.31815C36.3297 2.28481 27.2651 2.29007 18.1987 2.29885C15.9475 2.3006 14.4595 4.26254 15.0052 6.48069H48.6826H48.6844Z" fill="#ED0B73"></path><path id="Vector_3" d="M14.909 52.9179H48.6496C48.6601 52.6757 48.6794 52.4564 48.6794 52.237C48.6829 50.7945 48.6741 49.352 48.6829 47.9095C48.6882 47.1005 49.0619 46.6442 49.7024 46.6267C50.3674 46.6091 50.7903 47.0865 50.792 47.9113C50.799 51.3122 50.8271 54.7114 50.785 58.1123C50.7446 61.2833 48.4723 63.4909 45.3122 63.4927C36.3054 63.498 27.3005 63.498 18.2937 63.4927C15.1511 63.4909 12.8665 61.3184 12.8086 58.1895C12.7525 55.0992 12.7946 52.0071 12.7963 48.9168C12.7963 48.436 12.9069 47.9499 13.4035 47.8112C13.7351 47.7182 14.2282 47.7393 14.4756 47.9306C14.73 48.1289 14.8739 48.5921 14.8914 48.9466C14.9441 50.0364 14.9107 51.1297 14.9107 52.223C14.9107 52.4441 14.9107 52.6634 14.9107 52.9196L14.909 52.9179ZM48.5846 55.1115H14.909C14.909 56.0398 14.9072 56.9225 14.909 57.8052C14.916 60.1374 16.1688 61.3869 18.5008 61.3869C27.3584 61.3869 36.2159 61.3869 45.0735 61.3869C45.2788 61.3869 45.4859 61.3921 45.6912 61.3781C47.0774 61.2903 48.3811 60.3199 48.5495 58.9809C48.7092 57.7104 48.5829 56.4048 48.5829 55.1097L48.5846 55.1115Z" fill="#ED0B73"></path><path id="Vector_4" d="M0.140879 31.8211C0.149652 24.2576 6.30855 18.1121 13.8729 18.1209C21.4338 18.1296 27.5927 24.2997 27.5787 31.8544C27.5646 39.4074 21.3882 45.567 13.8343 45.5599C6.27872 45.5529 0.132105 39.3863 0.140879 31.8211ZM2.24824 31.8386C2.24824 38.2193 7.46312 43.4436 13.8449 43.4541C20.2266 43.4646 25.4555 38.2562 25.4713 31.8702C25.4889 25.4615 20.2529 20.2214 13.8414 20.2285C7.4526 20.2355 2.24824 25.4492 2.24824 31.8386Z" fill="#ED0B73"></path><path id="Vector_5" d="M45.5083 23.4102C47.8139 23.4102 50.1195 23.4102 52.4252 23.4102C52.6305 23.4102 52.8393 23.3997 53.0411 23.4277C53.5499 23.4997 53.857 23.805 53.9272 24.3122C53.9974 24.8194 53.7815 25.2072 53.3113 25.402C53.092 25.4932 52.8305 25.5143 52.5884 25.5143C47.8753 25.5195 43.1605 25.5195 38.4475 25.5195C38.365 25.5195 38.2825 25.5231 38.2001 25.5178C37.5105 25.4739 37.0858 25.0633 37.0911 24.4456C37.0964 23.8226 37.514 23.4225 38.2229 23.4155C39.6845 23.4032 41.1462 23.4102 42.6078 23.4102C43.5746 23.4102 44.5432 23.4102 45.51 23.4102H45.5083Z" fill="#ED0B73"></path><path id="Vector_6" d="M57.1922 23.4171C57.5414 23.4171 57.894 23.3978 58.2415 23.4224C58.8012 23.4627 59.2083 23.8892 59.2276 24.4209C59.2451 24.9175 58.8924 25.4317 58.3696 25.4703C57.5326 25.53 56.6833 25.5352 55.8463 25.465C55.2936 25.4194 54.9778 24.8877 55.0322 24.3367C55.0831 23.8172 55.4603 23.4557 56.0218 23.4224C56.4113 23.3996 56.8044 23.4189 57.1939 23.4189L57.1922 23.4171Z" fill="#ED0B73"></path><path id="Vector_7" d="M28.6608 3.37495C29.031 3.37495 29.403 3.35214 29.7697 3.38022C30.3102 3.42233 30.633 3.73821 30.7067 4.2752C30.7804 4.80868 30.4944 5.33865 29.968 5.38428C29.0749 5.45973 28.1642 5.46149 27.2728 5.38077C26.7412 5.33163 26.492 4.85255 26.5341 4.32785C26.5762 3.8049 26.8815 3.43988 27.429 3.38899C27.8361 3.35039 28.2502 3.38197 28.6608 3.38197C28.6608 3.38022 28.6608 3.37846 28.6608 3.37671V3.37495Z" fill="#ED0B73"></path><path id="Vector_8" d="M34.9812 3.37495C35.3514 3.37495 35.7234 3.35214 36.0902 3.38022C36.6552 3.42409 37.0728 3.85052 37.0605 4.384C37.0482 4.94205 36.7639 5.37726 36.2007 5.41937C35.3655 5.48079 34.5162 5.4843 33.681 5.40709C33.1212 5.3562 32.8528 4.91046 32.8686 4.34364C32.8844 3.82069 33.2599 3.44515 33.8073 3.37671C33.8477 3.37144 33.8898 3.36793 33.9302 3.36793C34.2793 3.36793 34.6285 3.36793 34.9794 3.36793C34.9794 3.36969 34.9794 3.3732 34.9794 3.37495H34.9812Z" fill="#ED0B73"></path><path id="Vector_9" d="M31.8237 57.1755C32.5046 57.1755 33.1836 57.1615 33.8644 57.179C34.5101 57.1948 34.9471 57.6178 34.9558 58.2004C34.9664 58.7795 34.5382 59.2586 33.903 59.2691C32.5028 59.2954 31.1008 59.2937 29.6988 59.2691C29.0619 59.2586 28.632 58.7865 28.6373 58.2074C28.6425 57.6265 29.0812 57.1948 29.7216 57.1773C30.4218 57.1597 31.1236 57.1738 31.8237 57.1738V57.1755Z" fill="#ED0B73"></path><path id="Vector_10" d="M9.65159 35.2222C9.63404 34.4817 10.0008 34.0008 10.6184 33.9552C11.2413 33.9096 11.6782 34.3641 11.7572 35.1397C11.8695 36.2558 12.6819 37.056 13.7663 37.1192C14.7875 37.1771 15.735 36.419 15.9368 35.3819C16.1281 34.3922 15.5403 33.3515 14.5629 33.0356C14.1979 32.9181 13.7961 32.904 13.4083 32.8619C11.494 32.6566 9.96041 31.1913 9.68142 29.2943C9.40418 27.4078 10.4517 25.5283 12.2362 24.8159C12.6731 24.6421 12.8556 24.4421 12.8047 23.9753C12.7731 23.6945 12.7977 23.3944 12.8661 23.1189C12.9977 22.5872 13.3961 22.3275 13.9207 22.3573C14.4138 22.3854 14.7594 22.6697 14.8735 23.1786C14.8788 23.1979 14.8858 23.2207 14.8823 23.24C14.6699 24.2929 15.2613 24.7246 16.1228 25.1791C17.3634 25.8337 17.9617 27.027 18.0652 28.4291C18.1214 29.1855 17.702 29.7014 17.0651 29.7295C16.4615 29.7558 16.0403 29.3136 15.9649 28.5748C15.8491 27.4253 15.0139 26.6041 13.9172 26.5637C12.9188 26.5251 11.9713 27.285 11.7818 28.2712C11.5887 29.2837 12.1467 30.3051 13.1241 30.6385C13.468 30.7561 13.8488 30.7736 14.2155 30.8105C16.2193 31.0158 17.7319 32.439 18.0389 34.4202C18.3302 36.2944 17.237 38.1704 15.3946 38.9022C15.0349 39.0443 14.8612 39.211 14.9016 39.6111C14.9314 39.8954 14.9138 40.1902 14.87 40.4728C14.784 41.0185 14.4103 41.3098 13.8891 41.3274C13.3662 41.3449 12.9925 41.0677 12.8486 40.5377C12.8433 40.5184 12.8311 40.4973 12.8346 40.478C13.0223 39.3883 12.4117 38.9215 11.5133 38.4564C10.3517 37.8563 9.68317 36.4734 9.65159 35.224V35.2222Z" fill="#ED0B73"></path></g></svg>