<svg xmlns="http://www.w3.org/2000/svg" width="60" height="67" viewBox="0 0 60 67" fill="none"><g id="Icon"><path id="Vector" d="M37.2821 0.812256C39.1976 1.62992 39.5822 2.21889 39.5822 4.34354C39.5822 6.70199 39.6001 9.06172 39.5758 11.4202C39.5554 13.3762 37.9415 14.6806 36.0157 14.342C34.9321 14.1517 34.3034 13.4464 33.9814 12.455C33.8127 11.9363 33.7514 11.3844 33.6262 10.7711C33.46 10.9232 33.2939 11.0688 33.1367 11.2209C30.9158 13.357 28.6975 15.4957 26.4753 17.6306C25.0978 18.9529 24.0167 19.11 22.33 18.24C21.6131 17.8708 20.8809 17.5271 20.1883 17.1157C19.7641 16.8627 19.5162 16.9164 19.1686 17.2677C14.7792 21.7138 10.3706 26.1419 5.96967 30.5765C5.24002 31.3111 4.43881 31.8669 3.33091 31.6944C2.19874 31.5168 1.3528 30.9355 0.911942 29.8636C0.478751 28.8121 0.656372 27.8233 1.34769 26.9289C1.50359 26.7284 1.68249 26.5444 1.86266 26.3642C6.77216 21.4161 11.6817 16.468 16.5924 11.5211C18.016 10.0876 19.0638 9.92793 20.8783 10.8619C21.6514 11.2605 22.4169 11.6782 23.2053 12.0424C23.3778 12.1216 23.7177 12.0947 23.8455 11.9734C25.6064 10.3099 27.3443 8.62222 29.0872 6.93835C29.1294 6.89746 29.1537 6.83741 29.2137 6.74287C28.8636 6.68794 28.5352 6.65983 28.2196 6.5819C26.92 6.2625 26.1852 5.41928 26.0741 4.14296C25.9565 2.8002 26.6287 1.60565 27.7992 1.07672C27.987 0.992397 28.171 0.901688 28.3576 0.813533C31.3337 0.813533 34.3098 0.813533 37.2846 0.813533L37.2821 0.812256ZM37.668 7.56948C37.668 7.56948 37.6667 7.56948 37.6654 7.56948C37.6654 6.29444 37.6769 5.02067 37.6603 3.74562C37.6514 3.034 37.3536 2.73377 36.6406 2.72993C34.1335 2.71843 31.6263 2.71716 29.1192 2.72993C28.4202 2.73377 27.9755 3.16304 27.9781 3.7584C27.9806 4.35632 28.4215 4.75876 29.1281 4.77281C29.8718 4.78815 30.6156 4.78431 31.3593 4.77409C31.8742 4.7677 32.3445 4.83286 32.5809 5.37584C32.8237 5.9316 32.5157 6.30082 32.1464 6.656C29.6342 9.07066 27.1206 11.4828 24.6212 13.9089C24.1164 14.3982 23.6257 14.4545 23.0162 14.1236C21.9722 13.5563 20.909 13.0261 19.8509 12.4857C18.9105 12.004 18.7839 12.027 18.0313 12.7846C13.1065 17.7443 8.18163 22.7039 3.25807 27.6648C3.1239 27.8003 2.98206 27.9319 2.86705 28.0839C2.49136 28.577 2.52331 29.1302 2.93733 29.5212C3.33091 29.893 3.91872 29.8725 4.36725 29.4663C4.52442 29.3232 4.66882 29.1673 4.81833 29.0165C9.36875 24.4338 13.9179 19.8498 18.4696 15.267C19.129 14.6039 19.3845 14.5631 20.2062 14.9834C21.2067 15.4957 22.2047 16.0157 23.204 16.5306C24.1739 17.0301 24.3579 17.0046 25.1591 16.2342C27.9921 13.5103 30.8251 10.7865 33.6556 8.0588C34.0453 7.68319 34.4261 7.28585 35.0395 7.56309C35.6107 7.81989 35.6286 8.33221 35.6222 8.85986C35.6132 9.64558 35.6145 10.4313 35.6222 11.2183C35.6298 12.0155 36.0196 12.4882 36.6521 12.4831C37.2834 12.478 37.6629 12.0079 37.6667 11.203C37.6731 9.99181 37.668 8.78192 37.668 7.57076V7.56948Z" fill="#ED0B73"></path><path id="Vector_2" d="M27.6952 32.1262C28.2804 31.817 28.7877 31.5985 29.2311 31.2893C29.3819 31.1833 29.4279 30.8498 29.4292 30.6186C29.442 27.7069 29.4484 24.7966 29.433 21.8849C29.4254 20.3045 29.9058 18.9605 31.2195 18.0036C31.5415 17.7685 31.9018 17.5488 32.2775 17.4338C33.71 16.9968 35.1846 16.9777 36.6197 17.3443C38.6502 17.8643 39.79 19.5482 39.7926 21.8645C39.7989 28.1758 39.7951 34.4872 39.7951 40.7985C39.7951 41.0489 39.7951 41.3006 39.7951 41.5267C39.8935 41.5663 39.9306 41.597 39.9651 41.5945C41.0044 41.4922 41.524 40.9267 41.524 39.8978C41.524 30.8243 41.5266 21.7508 41.5228 12.6773C41.5228 10.7826 42.2154 9.28652 43.9571 8.39603C46.0694 7.31518 49.5604 7.90543 50.915 9.55354C51.5462 10.3214 51.8478 11.2119 51.8644 12.1969C51.8797 13.1104 51.8887 14.0239 51.8695 14.9373C51.8555 15.6324 51.5219 16.0003 50.9584 16.0182C50.3655 16.0361 50 15.6566 49.9796 14.9386C49.9566 14.1107 49.9847 13.2816 49.9681 12.4524C49.9336 10.789 48.9905 9.87038 47.3255 9.86144C46.7939 9.85888 46.2623 9.84738 45.732 9.87038C44.5845 9.92276 43.6849 10.7302 43.4996 11.8622C43.4587 12.1126 43.4408 12.3694 43.4408 12.6223C43.4383 21.7176 43.4383 30.8115 43.4395 39.9067C43.4395 40.0728 43.4536 40.2389 43.4651 40.5111C43.8318 40.322 44.1628 40.1968 44.4452 40C46.1844 38.7825 47.9248 37.5649 49.6307 36.3039C49.8428 36.1468 49.9566 35.7303 49.9578 35.4326C49.977 30.1625 49.9706 24.8924 49.9745 19.6223C49.9745 19.3476 49.9796 19.0678 50.0281 18.7982C50.1189 18.3064 50.4779 18.0649 50.9392 18.0726C51.3993 18.079 51.7532 18.3255 51.8312 18.8212C51.8733 19.0921 51.8759 19.3706 51.8759 19.6466C51.8785 24.3635 51.8772 29.0816 51.8772 33.7985V34.6584C52.2874 34.4425 52.6068 34.261 52.9378 34.1039C56.8058 32.2705 59.736 35.361 59.7053 38.3161C59.6912 39.687 59.0625 40.7883 58.0492 41.6302C54.5364 44.5495 50.9967 47.4369 47.4571 50.3243C45.6068 51.8344 43.3654 52.4081 41.1049 52.9536C34.9584 54.4369 28.8184 55.947 22.677 57.4495C22.4943 57.4942 22.3167 57.5555 22.203 57.59C22.1301 58.4971 22.1582 59.3774 21.9717 60.2104C21.4963 62.3273 20.1686 63.8017 18.1049 64.397C15.8674 65.0435 13.5839 65.5737 11.2876 65.9672C8.09038 66.5153 5.46057 64.8059 4.54051 61.7128C4.09327 60.2091 3.73419 58.6785 3.35339 57.1556C3.17194 56.4325 3.4339 55.9189 4.0051 55.786C4.54051 55.6608 5.00437 55.9853 5.18838 56.6689C5.57046 58.0819 5.92698 59.5013 6.30011 60.9169C6.94798 63.3801 8.88648 64.5721 11.3796 64.024C13.2235 63.619 15.0649 63.1987 16.905 62.7694C19.2895 62.2124 20.8012 59.5971 19.9693 57.3358C18.0423 52.1002 16.0642 46.8837 14.1052 41.6609C14.0694 41.5663 14.0183 41.4782 13.9544 41.344C11.2045 42.1413 8.45585 42.8644 5.75831 43.7447C3.5719 44.4588 2.59307 46.4979 3.15533 48.8039C3.43134 49.9372 3.74314 51.0627 4.0281 52.1934C4.21083 52.9178 3.97315 53.4237 3.40195 53.5745C2.84864 53.7202 2.37584 53.3854 2.19183 52.6597C1.83147 51.2416 1.4379 49.8286 1.16571 48.3938C0.689075 45.8706 2.25444 42.9794 4.69769 42.1259C7.21761 41.2457 9.79631 40.52 12.3788 39.839C14.049 39.3983 15.5364 38.6138 17.0123 37.7821C17.2002 37.6761 17.3356 37.3119 17.3382 37.0666C17.3612 34.4322 17.3599 31.7965 17.3497 29.1621C17.3433 27.5102 18.0014 26.2454 19.4722 25.4507C20.6491 24.8157 24.4021 24.8208 25.5752 25.4558C27.0243 26.239 27.6773 27.4974 27.6977 29.111C27.7092 30.0782 27.7003 31.0466 27.7003 32.1249L27.6952 32.1262ZM21.4414 55.7681C21.5947 55.7375 21.6956 55.7221 21.7953 55.6979C28.2242 54.1251 34.6505 52.5371 41.0845 50.9861C42.9974 50.5249 44.8656 49.9947 46.4233 48.7196C49.8262 45.9345 53.2253 43.1442 56.618 40.3462C56.8761 40.1329 57.101 39.862 57.2863 39.5822C57.8268 38.762 57.9521 37.883 57.4818 36.9913C56.9937 36.0637 56.2423 35.5092 55.1561 35.4594C54.4137 35.4262 53.7991 35.7137 53.2113 36.1289C50.7655 37.8562 48.3081 39.5669 45.8636 41.2981C44.2024 42.4734 42.3815 43.3512 40.3586 43.4623C37.4988 43.6182 34.6262 43.5581 31.7587 43.5581C30.808 43.5581 30.1448 43.0292 29.8394 42.1464C29.534 41.2648 29.7538 40.4625 30.4617 39.8365C30.9856 39.3727 31.5389 38.9396 32.0846 38.5001C33.5043 37.3579 34.3106 35.8516 34.6927 34.0988C34.8933 33.1764 34.3872 32.2756 33.5234 31.9358C32.8666 31.6777 32.2801 31.8694 31.6987 32.1785C26.5272 34.9279 21.3532 37.6735 16.1804 40.4216C16.0527 40.4893 15.9351 40.5762 15.7818 40.6733C17.6704 45.7109 19.5514 50.7293 21.4414 55.7681ZM31.4508 30.1433C31.6667 30.0909 31.8482 30.0424 32.0335 30.0015C34.6249 29.424 37.0362 31.6049 36.5967 34.2099C36.4331 35.1783 36.0702 36.1314 35.6779 37.0398C34.9444 38.7377 33.5183 39.8441 32.1127 40.9505C31.9095 41.1102 31.7344 41.3057 31.4124 41.6123H37.8822V40.925C37.8822 34.5958 37.8822 28.2665 37.8809 21.9373C37.8809 21.7048 37.8732 21.4697 37.8438 21.2385C37.6841 19.9902 36.8113 19.1458 35.5616 19.0717C34.9265 19.0333 34.285 19.0333 33.6512 19.0717C32.4027 19.1509 31.4265 20.0235 31.4022 21.25C31.3434 24.1578 31.3766 27.0669 31.3754 29.976C31.3754 30.013 31.4099 30.0513 31.4533 30.1421L31.4508 30.1433ZM19.2613 36.4917C19.3866 36.4866 19.4581 36.5032 19.5067 36.4777C21.5104 35.4198 23.5153 34.362 25.51 33.2862C25.6416 33.2147 25.7707 33 25.772 32.8493C25.7899 31.5142 25.8167 30.1765 25.7643 28.8427C25.7209 27.7159 24.9018 26.9698 23.7773 26.9417C23.0144 26.9225 22.2502 26.9314 21.4861 26.9366C20.0127 26.9468 19.2703 27.6891 19.2613 29.1775C19.2511 30.8102 19.2588 32.443 19.2588 34.0758C19.2588 34.8768 19.2588 35.6766 19.2588 36.4904L19.2613 36.4917Z" fill="#ED0B73"></path><path id="Vector_3" d="M12.6077 61.7881C10.5236 61.7983 8.83807 60.1246 8.83423 58.0422C8.8304 55.975 10.5453 54.2566 12.6001 54.2681C14.6306 54.2796 16.3263 55.9661 16.3557 58.0025C16.385 60.0557 14.6791 61.7791 12.6077 61.7881ZM12.5694 59.8742C13.6019 59.8819 14.4402 59.0604 14.4427 58.0409C14.444 57.0316 13.5853 56.1756 12.5783 56.182C11.5854 56.1884 10.7638 57.0047 10.7472 58C10.7293 59.0374 11.5369 59.8666 12.5694 59.8742Z" fill="#ED0B73"></path></g></svg>