<svg xmlns="http://www.w3.org/2000/svg" width="68" height="68" viewBox="0 0 68 68" fill="none"><g id="Icon"><path id="Vector" d="M0.193115 61.444C0.564772 59.6415 1.71656 58.365 2.9858 57.1288C5.50676 54.6704 7.98039 52.163 10.4628 49.6625C10.9501 49.1715 11.4428 48.926 12.0213 49.3451C12.9855 48.3772 13.9216 47.4356 14.9139 46.4379C14.7158 46.1328 14.4441 45.7435 14.2004 45.3367C7.97513 34.8931 7.99616 24.4512 14.2214 14.0145C14.4984 13.5516 14.8333 13.1922 15.4276 13.3202C16.1656 13.478 16.4128 14.2478 15.9395 14.9825C14.5703 17.1094 13.5167 19.3749 12.7611 21.7894C9.19353 33.1904 13.8182 45.8978 23.888 52.3243C34.6521 59.1926 48.4051 57.7811 57.4704 48.7928C62.2196 44.0847 64.8264 38.3334 65.3225 31.6509C66.3008 18.4754 57.5949 6.4308 44.7219 3.53232C34.617 1.25808 25.8848 4.03206 18.6673 11.4913C18.6059 11.5544 18.5498 11.6211 18.4885 11.6842C17.9976 12.1909 17.4138 12.2681 16.9843 11.8841C16.5373 11.4843 16.525 10.9021 17.0194 10.3796C17.7241 9.63263 18.4359 8.88565 19.2002 8.20005C23.5111 4.32664 28.5443 1.9279 34.2769 1.10553C49.9233 -1.14066 63.6133 9.20478 66.7303 23.5131C69.8385 37.781 61.8987 52.184 48.1106 56.9394C39.0085 60.0798 30.3254 58.905 22.2436 53.6008C22.063 53.4816 21.8807 53.3641 21.7562 53.2817C20.7833 54.2496 19.8436 55.1859 18.8601 56.1626C19.2861 56.7728 19.0056 57.2918 18.4762 57.8021C17.4366 58.8033 16.4321 59.8414 15.4083 60.8584C14.8438 61.4195 14.2354 61.4721 13.8077 61.0144C13.4027 60.5813 13.4764 60.0097 14.0216 59.4626C14.8999 58.5841 15.7852 57.7127 16.6372 56.8675C14.849 55.079 13.1205 53.35 11.3674 51.5983C11.3218 51.6334 11.2289 51.6895 11.1553 51.7649C8.50982 54.4091 5.8416 57.0323 3.22948 59.7099C1.55703 61.423 1.8796 64.097 3.83781 65.4121C5.28412 66.3836 7.16344 66.224 8.48528 64.9808C9.29697 64.2163 10.0666 63.4062 10.8607 62.6224C11.4182 62.0718 11.9722 62.0122 12.4122 62.44C12.8417 62.8573 12.7891 63.4605 12.2685 63.9953C11.8723 64.4039 11.448 64.7862 11.0676 65.207C9.87724 66.5238 8.5554 67.6303 6.75672 68.0055H5.05096C4.91071 67.9582 4.77221 67.9021 4.63021 67.8635C2.5335 67.3059 1.11875 66.0223 0.443809 63.9462C0.357907 63.6815 0.277264 63.4149 0.194868 63.1484C0.194868 62.5803 0.194868 62.0104 0.194868 61.4423L0.193115 61.444ZM17.2753 54.6248C18.2167 53.6885 19.0915 52.8187 19.8208 52.0911C18.5937 50.8461 17.3332 49.5661 16.1674 48.3842C15.3837 49.168 14.5107 50.043 13.6254 50.9285C13.692 50.9986 13.8077 51.1267 13.9304 51.2494C15.0524 52.3821 16.1744 53.5149 17.2736 54.6248H17.2753Z" fill="#ED0B73"></path><path id="Vector_2" d="M61.822 29.7099C61.4223 39.0962 57.2394 46.1451 48.8491 50.5744C48.5283 50.7445 48.0146 50.7988 47.6938 50.6638C46.9575 50.3534 47.0189 49.3785 47.7622 48.9472C48.4792 48.5298 49.2436 48.1844 49.9273 47.7197C57.1413 42.81 60.544 35.9873 59.6429 27.3006C58.6594 17.8319 51.7768 10.5708 42.4468 8.73142C30.8903 6.45367 19.4829 14.3443 17.4967 25.989C15.4753 37.839 23.3117 48.8525 35.1451 50.7813C38.0745 51.2582 40.9829 51.0969 43.8633 50.3762C44.1701 50.2991 44.5821 50.2097 44.8082 50.3482C45.0957 50.527 45.3762 50.9146 45.4218 51.246C45.4902 51.7527 45.1132 52.1034 44.6136 52.2051C43.4162 52.4506 42.2224 52.7837 41.011 52.8749C31.4233 53.5886 23.8271 50.0203 18.6625 41.893C10.9032 29.6818 16.5921 13.059 30.1277 7.94762C42.3924 3.31672 55.7844 9.38371 60.3757 21.6632C61.3417 24.2461 61.8098 26.9271 61.8255 29.7116L61.822 29.7099Z" fill="#ED0B73"></path><path id="Vector_3" d="M48.2026 23.1942C51.8385 23.2292 54.7013 26.1523 54.6698 29.7925C54.6382 33.3537 51.6509 36.2733 48.0886 36.2242C44.4772 36.1751 41.6127 33.2117 41.66 29.5785C41.7056 26.0278 44.6473 23.1591 48.2043 23.1942H48.2026ZM43.6287 29.6855C43.6252 32.1965 45.6483 34.2445 48.1447 34.2533C50.6359 34.262 52.6923 32.214 52.6993 29.7188C52.7063 27.2043 50.692 25.1791 48.1763 25.1703C45.6571 25.1616 43.6322 27.171 43.6287 29.6855Z" fill="#ED0B73"></path><path id="Vector_4" d="M27.8348 23.1938C29.1742 23.2008 30.3611 23.6603 31.4304 24.4353C31.9739 24.8298 32.0879 25.3839 31.7618 25.8591C31.4392 26.329 30.8695 26.422 30.3155 26.0485C29.4196 25.4435 28.4624 25.0245 27.365 25.2173C26.9355 25.2927 26.4657 25.4821 26.1448 25.7679C25.4611 26.3764 25.6715 27.3723 26.5112 27.73C27.4351 28.1246 28.38 28.4683 29.2969 28.8786C29.8509 29.1258 30.4189 29.3923 30.894 29.7623C32.8119 31.258 32.7733 33.7655 30.8432 35.2524C29.0778 36.6149 26.3429 36.5272 24.2918 35.0297C24.0113 34.8246 23.7449 34.5914 23.5029 34.3406C23.0664 33.8882 23.0436 33.3394 23.41 32.9326C23.8027 32.4995 24.3882 32.4697 24.8616 32.9378C25.6102 33.6761 26.4955 34.0986 27.5263 34.2179C28.4134 34.3213 29.2338 34.1495 29.8719 33.4726C30.5188 32.787 30.4785 31.9436 29.7405 31.3562C29.4056 31.0897 29.0024 30.8915 28.6044 30.7197C27.6823 30.3217 26.7514 29.9429 25.8153 29.5835C24.6161 29.1223 23.9307 28.2613 23.8062 26.9936C23.6712 25.6206 24.227 24.5142 25.4068 23.8531C26.1256 23.4498 26.9846 23.2955 27.7805 23.0308C27.798 23.0851 27.8156 23.1377 27.8331 23.1921L27.8348 23.1938Z" fill="#ED0B73"></path><path id="Vector_5" d="M36.0736 25.2088V28.7245C36.7801 28.7245 37.4901 28.7245 38.1984 28.7245C38.57 28.7245 38.9435 28.7122 39.3134 28.7315C39.8989 28.7613 40.2933 29.1295 40.3249 29.645C40.3582 30.1711 39.955 30.641 39.3572 30.6813C38.7261 30.7252 38.0897 30.6989 37.4551 30.7006C37.0186 30.7006 36.582 30.7006 36.0929 30.7006V34.1953C37.0326 34.1953 37.9635 34.1935 38.8961 34.1953C39.2012 34.1953 39.5132 34.1778 39.813 34.2251C40.3687 34.311 40.6615 34.6617 40.6405 35.2263C40.6194 35.7594 40.3144 36.1206 39.7885 36.1311C38.1721 36.1609 36.5522 36.1662 34.9359 36.1259C34.3486 36.1118 34.0716 35.6735 34.0698 34.9475C34.0646 32.4541 34.0681 29.9607 34.0681 27.4672C34.0681 26.4608 34.0611 25.456 34.0698 24.4495C34.0786 23.5956 34.424 23.2431 35.2567 23.2396C36.6785 23.2326 38.1002 23.2326 39.5202 23.2396C40.2372 23.2431 40.6527 23.6219 40.6475 24.2286C40.6422 24.8265 40.2197 25.1965 39.4974 25.2035C38.3667 25.2123 37.2359 25.2053 36.0719 25.2053L36.0736 25.2088Z" fill="#ED0B73"></path></g></svg>