<svg xmlns="http://www.w3.org/2000/svg" width="68" height="55" viewBox="0 0 68 55" fill="none"><g id="Icon"><path id="Vector" d="M67.1182 39.5904C66.9149 40.1104 66.7598 40.6565 66.4992 41.1464C65.7446 42.5626 64.5066 43.3348 62.8842 43.6575C62.8842 43.8939 62.8842 44.1239 62.8842 44.3551C62.8842 46.8975 62.8138 49.4412 62.9063 51.9809C62.9806 54.0477 61.1692 54.8917 59.621 54.0164C57.8148 52.996 55.9135 52.1468 53.9718 51.1827C53.9314 51.4871 53.904 51.7353 53.8649 51.9809C53.6733 53.1842 52.696 54.1614 51.4918 54.3378C51.1713 54.3848 50.8442 54.3953 50.521 54.3966C47.0102 54.4005 43.4995 54.4005 39.9887 54.3979C37.9545 54.3979 36.7999 53.5082 36.2747 51.5498C35.7638 49.6437 35.2517 47.7375 34.7395 45.8327C34.69 45.6459 34.6275 45.463 34.5949 45.3559C33.9616 45.2213 33.3986 45.0802 32.8278 44.99C32.631 44.9587 32.4056 45.024 32.2088 45.092C23.5205 48.0994 14.3436 42.8305 12.5387 33.7937C10.8628 25.401 16.8626 17.1049 25.3306 16.1042C33.4077 15.1492 40.5712 20.4743 41.9617 28.5169C42.1702 29.7254 42.1442 30.9743 42.2302 32.2638C43.0342 31.8693 43.8631 31.4656 44.6893 31.0553C49.6909 28.5678 54.6911 26.079 59.6914 23.5902C61.4598 22.7097 62.8777 23.585 62.8829 25.5721C62.8907 28.3523 62.8842 31.1311 62.8842 33.9374C63.1995 34.0275 63.4928 34.0955 63.7755 34.1935C65.4084 34.7631 66.4523 35.8971 66.9553 37.5471C67.0048 37.7091 67.0648 37.8685 67.1195 38.0279V39.5931L67.1182 39.5904ZM60.8942 25.2063C60.6922 25.2938 60.5736 25.3383 60.4616 25.3931C54.8983 28.1589 49.3364 30.9312 43.7666 33.6839C43.377 33.876 43.2388 34.0916 43.2414 34.5227C43.2597 37.3473 43.2649 40.1718 43.2388 42.9951C43.2336 43.5033 43.3939 43.7554 43.8513 43.9815C49.3077 46.6728 54.7524 49.3876 60.1996 52.0946C60.4068 52.1978 60.6206 52.284 60.8942 52.4055V25.2063ZM31.0516 35.4085C30.6489 35.6658 30.4495 35.7886 30.2553 35.9193C28.3423 37.1918 26.4292 38.4617 24.5201 39.7394C23.8711 40.1731 23.1999 40.2724 22.5001 39.8935C21.8225 39.5264 21.5423 38.9228 21.5423 38.1677C21.5423 33.3443 21.5345 28.5221 21.5501 23.6987C21.554 22.5816 22.3307 21.7559 23.3511 21.8121C23.7981 21.8369 24.2816 22.0342 24.6621 22.2851C28.1194 24.5596 31.5416 26.889 35.0119 29.144C36.1222 29.8651 36.6083 31.0214 35.7443 32.2285C35.73 32.2481 35.7651 32.3043 35.7873 32.3762C37.0553 32.3762 38.3337 32.3579 39.6095 32.3853C40.0786 32.3958 40.1816 32.2089 40.2038 31.7804C40.6312 23.4883 33.6814 17.0083 25.4714 18.056C18.025 19.0058 12.8645 26.39 14.5234 33.7192C15.8474 39.563 20.6861 43.6666 26.6625 43.9828C28.2041 44.0638 29.7184 43.8639 31.0516 43.4014V35.4085ZM23.5349 38.0462C27.1134 35.6593 30.6111 33.3273 34.1675 30.9547C30.5915 28.5704 27.1069 26.2463 23.5349 23.8646V38.0449V38.0462ZM41.2763 34.3659C41.0391 34.3515 40.871 34.3319 40.7016 34.3319C38.5774 34.3293 36.4532 34.3254 34.329 34.3319C33.323 34.3359 32.9347 34.7409 32.932 35.7782C32.9268 37.7993 32.9268 39.8204 32.932 41.8415C32.9347 42.8919 33.3334 43.2799 34.4007 43.2825C36.4819 43.2864 38.5631 43.2851 40.6442 43.2825C40.8514 43.2825 41.0586 43.2616 41.2776 43.2498V34.3659H41.2763ZM42.8987 52.4369C45.664 52.4369 48.3056 52.4421 50.9484 52.4316C51.4866 52.429 51.8463 52.1573 51.9492 51.5981C52.1265 50.63 52.0053 50.1976 51.4501 49.9219C48.4463 48.4287 45.4399 46.9367 42.4335 45.4486C42.2758 45.3702 42.1012 45.3245 41.821 45.2226C42.2067 46.6662 42.5442 47.9845 42.9157 49.2935C43.2037 50.31 43.3835 51.3185 42.9 52.4369H42.8987ZM36.6005 45.2422C37.1882 47.424 37.7134 49.4751 38.3024 51.5067C38.5279 52.2827 39.3241 52.5858 40.1647 52.3441C40.9857 52.1076 41.4261 51.3969 41.2098 50.5281C40.8006 48.8911 40.3562 47.2633 39.9014 45.6381C39.8571 45.48 39.6395 45.2657 39.4961 45.2592C38.5735 45.2252 37.6482 45.2422 36.6005 45.2422ZM62.9102 41.5802C64.3333 41.3019 65.282 39.9837 65.1569 38.5479C65.0448 37.2676 64.0153 36.127 62.9102 36.0865V41.5802Z" fill="#ED0B73"></path><path id="Vector_2" d="M51.9732 10.2551H2.47478C2.47478 10.5216 2.47478 10.7555 2.47478 10.9893C2.47478 24.3322 2.47478 37.6751 2.47478 51.018C2.47478 52.1703 2.74062 52.442 3.88611 52.4433C13.7707 52.4446 23.6552 52.4433 33.5398 52.4446C33.8213 52.4446 34.1054 52.4368 34.383 52.4747C34.9134 52.5466 35.1987 52.9006 35.2053 53.4075C35.2118 53.917 34.9238 54.2672 34.4012 54.3612C34.1901 54.3991 33.9699 54.3965 33.7535 54.3965C23.783 54.3978 13.8111 54.3991 3.8405 54.3965C1.65769 54.3965 0.523926 53.2481 0.523926 51.0546C0.523926 35.4528 0.523926 19.8498 0.523926 4.24669C0.523926 1.99827 1.64335 0.864258 3.86265 0.864258C19.4473 0.864258 35.0332 0.864258 50.6179 0.864258C52.7642 0.864258 53.9188 2.00741 53.9214 4.15523C53.9266 10.6314 53.924 17.1075 53.9214 23.5823C53.9214 23.7979 53.9175 24.0213 53.8667 24.229C53.7494 24.7137 53.4054 24.9737 52.9232 24.9606C52.4436 24.9489 52.1035 24.681 52.0136 24.1872C51.968 23.9337 51.9745 23.6685 51.9745 23.4086C51.9719 19.301 51.9732 15.1948 51.9732 11.0873V10.2538V10.2551ZM51.9732 8.24315C51.9732 6.90272 51.9732 5.625 51.9732 4.34859C51.9732 3.0565 51.7386 2.82134 50.468 2.82134C34.9707 2.82134 19.4734 2.82134 3.97603 2.82134C3.82486 2.82134 3.67239 2.81611 3.52122 2.82264C2.84227 2.8553 2.4865 3.20021 2.47999 3.89002C2.46696 5.25919 2.47738 6.62836 2.48259 7.99623C2.48259 8.07462 2.5256 8.1517 2.55166 8.24184H51.9732V8.24315Z" fill="#ED0B73"></path><path id="Vector_3" d="M15.4344 4.4832C18.403 4.4832 21.373 4.4832 24.3416 4.4832C24.5801 4.4832 24.8212 4.47405 25.0544 4.51063C25.551 4.58771 25.8924 4.93654 25.8324 5.3938C25.7881 5.73609 25.4832 6.09015 25.2056 6.33707C25.0479 6.47686 24.7104 6.43505 24.4537 6.43505C18.45 6.43897 12.4475 6.43897 6.44383 6.43505C6.18711 6.43505 5.91735 6.42983 5.67496 6.35405C5.1993 6.20642 4.99079 5.838 5.03901 5.34808C5.08462 4.88428 5.35307 4.59033 5.81309 4.51194C6.04636 4.47275 6.28875 4.4832 6.52593 4.4832C9.49456 4.48189 12.4645 4.4832 15.4331 4.4832H15.4344Z" fill="#ED0B73"></path><path id="Vector_4" d="M37.8083 6.56405C37.2519 6.54968 36.7918 6.05715 36.8127 5.49667C36.8335 4.92836 37.3157 4.48678 37.8839 4.51683C38.4195 4.54426 38.86 5.00806 38.8561 5.54109C38.8522 6.09373 38.3556 6.57842 37.8083 6.56536V6.56405Z" fill="#ED0B73"></path><path id="Vector_5" d="M42.7696 6.56392C42.2092 6.57568 41.744 6.11189 41.7427 5.53835C41.7427 4.98441 42.1532 4.54413 42.6979 4.5167C43.2622 4.48796 43.7457 4.93346 43.7652 5.50046C43.7847 6.06355 43.326 6.55216 42.7683 6.56392H42.7696Z" fill="#ED0B73"></path><path id="Vector_6" d="M48.6735 5.5423C48.6695 6.11845 48.2069 6.57833 47.6453 6.56396C47.0823 6.54959 46.6444 6.07273 46.6627 5.49658C46.6809 4.94917 47.1162 4.52065 47.6596 4.51543C48.2304 4.5102 48.6774 4.96485 48.6735 5.54361V5.5423Z" fill="#ED0B73"></path></g></svg>