<svg xmlns="http://www.w3.org/2000/svg" width="69" height="69" viewBox="0 0 69 69" fill="none"><g id="Icon"><path id="Vector" d="M68.9366 18.5006C68.9223 18.5177 68.9024 18.5334 68.8952 18.5534C67.8434 22.0858 66.0723 23.4554 62.3488 23.3655C60.8161 23.3284 59.5345 23.6779 58.2657 24.5382C56.1207 25.9934 53.8772 27.3002 51.6822 28.6827C51.1613 29.0108 50.6447 29.2319 50.0852 28.831C49.5529 28.4501 49.5757 27.9165 49.7027 27.333C49.9796 26.0576 50.2122 24.7736 50.4748 23.4368C49.9839 23.4055 49.5457 23.394 49.1119 23.347C46.1477 23.0203 43.9884 20.7847 43.9356 17.8101C43.8685 13.9524 43.8742 10.0919 43.9341 6.23423C43.977 3.48506 45.828 1.3622 48.5125 0.771565C48.6181 0.748738 48.7166 0.695952 48.8179 0.656006C53.9257 0.657433 59.0335 0.657433 64.1399 0.657433C64.3426 0.727339 64.5438 0.804378 64.7479 0.864298C66.6332 1.41927 67.9162 2.62194 68.6027 4.45662C68.7397 4.82327 68.8267 5.20846 68.9366 5.58367V18.5006ZM52.3844 25.5426C52.6926 25.3628 52.8982 25.2487 53.0965 25.1246C55.0161 23.9262 56.9213 22.7078 58.8608 21.5437C59.2719 21.2969 59.7999 21.1685 60.2851 21.1371C61.2356 21.0743 62.1933 21.1371 63.148 21.1128C65.2403 21.06 66.6574 19.6362 66.6646 17.5662C66.676 13.8611 66.6774 10.1547 66.6646 6.44965C66.6574 4.38814 65.1974 2.93295 63.1309 2.92724C58.6682 2.91583 54.2069 2.91725 49.7441 2.92724C47.7033 2.93152 46.2219 4.33963 46.2019 6.37404C46.1662 10.1233 46.1705 13.874 46.2005 17.6232C46.2162 19.6405 47.6219 21.0315 49.6414 21.11C50.2393 21.1328 50.8402 21.1142 51.4396 21.1157C52.7911 21.1214 53.1836 21.6107 52.9096 22.9518C52.7426 23.7721 52.577 24.5939 52.3858 25.5383L52.3844 25.5426Z" fill="#ED0B73"></path><path id="Vector_2" d="M41.6265 1.78734V1.7959C41.6265 2.41935 41.1199 2.92581 40.4962 2.92581H33.1477C26.4015 2.92581 27.3292 2.92581 20.5844 2.92581C17.7915 2.92581 16.3443 4.57503 16.7025 7.43405H39.3431C39.9667 7.43405 40.4734 7.94051 40.4734 8.56396C40.4734 9.1874 39.9667 9.69387 39.3431 9.69387H16.6012C15.3696 9.69387 14.362 8.70948 14.3377 7.47827C14.3177 6.42825 14.3506 5.38537 14.7331 4.36816C15.4481 2.46928 16.8453 1.298 18.809 0.794391C18.956 0.757298 19.0987 0.703085 19.2429 0.656006C26.3273 0.656006 33.4103 0.656006 40.4948 0.656006C41.1184 0.656006 41.6251 1.16247 41.6251 1.78592L41.6265 1.78734Z" fill="#ED0B73"></path><path id="Vector_3" d="M44.9911 33.559H42.8004C42.8004 32.8828 42.8004 32.2037 42.8004 31.5232C42.8004 30.7685 42.8075 30.0138 42.7989 29.2591C42.7747 27.0891 41.3675 25.6739 39.2025 25.6682C34.8953 25.6582 30.5881 25.6653 26.281 25.6653C25.3476 25.6653 24.5898 24.9078 24.5898 23.9747C24.5898 23.093 24.5898 22.2099 24.5898 21.2869C23.8091 21.401 23.1098 21.5023 22.3192 21.6179C22.3192 22.4568 22.3192 23.2928 22.3192 24.1274C22.3192 24.9263 22.3135 25.7252 22.3206 26.5242C22.3291 27.52 22.7416 27.9308 23.752 27.9351C25.8171 27.9422 27.8822 27.9351 29.9473 27.938C31.0591 27.9394 31.4116 28.2904 31.4116 29.4188C31.4145 36.9644 31.413 44.5086 31.413 52.0542C31.413 52.3152 31.413 52.5749 31.413 52.8816H32.736C33.2512 52.8816 33.668 52.465 33.668 51.95V45.0122C33.668 44.383 34.1775 43.8737 34.8068 43.8737H34.814C35.4434 43.8737 35.9528 44.383 35.9528 45.0122V51.9586C35.9528 52.4736 36.3696 52.8902 36.8848 52.8902H38.2506V49.549C38.2506 48.9198 38.7601 48.4105 39.3895 48.4105C40.0188 48.4105 40.5283 48.9198 40.5283 49.549C40.5283 50.1339 40.5283 50.7102 40.5283 51.2866C40.5283 52.1526 40.5426 53.0186 40.5241 53.8831C40.5055 54.7605 40.0831 55.1957 39.2011 55.1999C36.2925 55.2142 33.384 55.2156 30.4754 55.1999C29.4992 55.1942 29.1396 54.7463 29.1396 53.6263C29.1381 46.125 29.1396 38.625 29.1396 31.1237V30.2064C28.0763 30.2064 27.0845 30.2064 26.0912 30.2064C25.1963 30.2064 24.3015 30.2263 23.4081 30.1992C21.5571 30.1422 20.0814 28.6299 20.0571 26.7795C20.0357 25.1874 20.0528 23.5938 20.0528 21.9389C18.2489 22.1928 16.5192 22.4339 14.7894 22.6793C13.2296 22.9004 11.6725 23.1301 10.1126 23.3456C9.2649 23.4626 8.71116 23.0203 8.70831 22.1757C8.69546 18.4479 8.69546 14.7186 8.70688 10.9907C8.70973 10.072 9.28916 9.61971 10.2025 9.81231C14.7138 10.7667 19.2222 11.7326 23.7321 12.6956C24.3828 12.834 25.035 12.9638 25.683 13.1136C26.6206 13.329 26.8632 13.63 26.8647 14.5816C26.869 17.2452 26.8661 19.9073 26.8661 22.5709C26.8661 22.812 26.8661 23.0517 26.8661 23.3413H30.15C30.1571 23.307 30.1857 23.2514 30.17 23.2257C28.7699 21.0372 28.9084 18.6248 29.3822 16.2694C29.9102 13.6429 32.4963 11.8453 35.0851 12.0236C37.9452 12.2219 40.1944 14.2335 40.4327 17.0155C40.5569 18.4578 40.4441 19.9359 40.2886 21.3811C40.2172 22.0502 39.7876 22.6807 39.5036 23.367C39.7891 23.3998 40.0916 23.4155 40.387 23.4697C42.8275 23.9276 44.7185 25.7937 44.964 28.2761C45.1338 30.0052 44.9968 31.7643 44.9968 33.5547L44.9911 33.559ZM24.5512 15.2022C20.0129 14.2307 15.5316 13.2705 11.0032 12.3004V20.9302C15.5401 20.284 20.03 19.6448 24.5512 19.0014V15.2022ZM38.2206 18.8687H38.2748C38.2463 18.3138 38.2563 17.7559 38.1835 17.2095C37.958 15.5289 36.5152 14.2892 34.8268 14.292C33.1356 14.2949 31.6642 15.5275 31.4858 17.2167C31.3788 18.2253 31.3731 19.2596 31.4559 20.2711C31.6043 22.0844 33.0743 23.3926 34.8325 23.3898C36.5908 23.3884 38.0237 22.0773 38.2135 20.2654C38.262 19.8046 38.2206 19.3352 38.2206 18.8701V18.8687Z" fill="#ED0B73"></path><path id="Vector_4" d="M14.3924 25.6912H16.6173V57.4728H42.7572V59.724H16.623C16.7258 61.3105 16.3933 62.8413 16.8657 64.325C17.3138 65.7302 18.6239 66.5634 20.2252 66.5648C24.9976 66.5705 29.7701 66.5663 34.5425 66.5663C37.7836 66.5663 41.0247 66.5663 44.2643 66.5663H45.0293V68.8047C44.8181 68.8147 44.5854 68.8332 44.3528 68.8332C36.3393 68.8347 28.3272 68.8375 20.3137 68.8332C16.8371 68.8304 14.3724 66.4279 14.3667 62.954C14.3481 50.7076 14.3596 38.4612 14.361 26.2147C14.361 26.0635 14.3795 25.9123 14.3938 25.6926L14.3924 25.6912Z" fill="#ED0B73"></path><path id="Vector_5" d="M53.0207 44.2848V31.385C53.0207 30.7559 53.5317 30.2451 54.1611 30.2451C54.7904 30.2451 55.3014 30.7559 55.3014 31.385V32.7147C55.3014 37.7294 55.3085 41.0535 55.2914 46.0682C55.2899 46.5732 55.4112 46.9527 55.7966 47.2865C56.1106 47.559 56.4103 47.8486 56.71 48.1425C57.0097 48.4364 56.9968 48.8887 56.7071 49.1683C56.4959 49.3737 56.289 49.5734 56.0792 49.776C55.7994 50.0457 55.3542 50.0457 55.0787 49.7718C55.0773 49.7703 55.0744 49.7675 55.073 49.766C51.3524 46.0496 47.6289 42.3332 43.9126 38.611C43.1234 37.8207 42.2214 37.4169 41.0897 37.6537C39.0502 38.0803 38.1254 40.4543 39.3528 42.1391C39.5341 42.3888 39.7567 42.6114 39.975 42.8296C42.9707 45.8285 45.9706 48.823 48.9676 51.8204C49.7511 52.6037 49.7996 52.9047 49.243 53.8548C48.3325 55.4099 47.4991 56.9821 47.3135 58.8296C47.0852 61.1065 47.5376 63.2237 48.8434 65.0826C49.4486 65.9443 49.7097 66.7903 49.6155 67.8004C49.587 68.1071 49.6113 68.4181 49.6113 68.7805H47.4234C47.4063 68.7563 47.3592 68.7177 47.362 68.6878C47.5247 67.478 46.9838 66.515 46.4315 65.4792C44.3636 61.5987 44.4763 57.6911 46.6428 53.8734C46.9824 53.2756 46.931 52.9618 46.4501 52.4895C43.6614 49.7546 40.9027 46.9898 38.1526 44.2164C36.1217 42.1677 35.9476 39.1731 37.7044 37.1173C39.6968 34.7847 43.0677 34.6335 45.3212 36.8149C46.9953 38.4355 48.6265 40.1005 50.2692 41.7525C51.1283 42.6156 51.9718 43.493 52.8224 44.3647L53.0193 44.2848H53.0207Z" fill="#ED0B73"></path><path id="Vector_6" d="M62.441 68.8016H61.7702C61.3278 68.8016 60.9696 68.4435 60.9696 68.0012V67.9941C60.9696 60.8537 60.9468 53.7147 60.981 46.5743C60.9939 43.7852 60.1461 41.3584 58.3179 39.2598C58.0125 38.9103 57.7171 38.5522 57.4145 38.1827C57.0192 37.7005 57.0877 36.99 57.5687 36.5934C57.5744 36.5891 57.5801 36.5834 57.5858 36.5791C58.0525 36.1939 58.7404 36.2439 59.1471 36.6918C61.3835 39.1542 63.1132 41.8563 63.2003 45.3374C63.2973 49.2592 63.2402 53.1868 63.2445 57.1101C63.2488 60.7238 63.2445 64.339 63.2445 67.9527V67.9998C63.2445 68.442 62.8863 68.8001 62.4439 68.8001L62.441 68.8016Z" fill="#ED0B73"></path><path id="Vector_7" d="M1.86508 10.8852C2.01636 10.2774 2.63004 9.90792 3.23801 10.0577C4.37118 10.3388 5.49721 10.617 6.67034 10.908C6.49337 11.637 6.32497 12.329 6.13515 13.1079C4.98343 12.8226 3.8574 12.5444 2.69284 12.2576C2.08486 12.1078 1.7138 11.4929 1.86508 10.8852Z" fill="#ED0B73"></path><path id="Vector_8" d="M6.12918 20.0159L6.67864 22.2143C5.51836 22.504 4.38234 22.7879 3.23062 23.076C2.62978 23.2258 2.01895 22.8606 1.87053 22.2586L1.86482 22.2372C1.71497 21.6365 2.08175 21.0288 2.68116 20.879C3.82146 20.5937 4.95035 20.3112 6.13061 20.0173L6.12918 20.0159Z" fill="#ED0B73"></path><path id="Vector_9" d="M5.23674 15.4846V17.6631H1.84865C1.24639 17.6631 0.758301 17.1752 0.758301 16.5731C0.758301 15.9711 1.24639 15.4832 1.84865 15.4832H5.23674V15.4846Z" fill="#ED0B73"></path><path id="Vector_10" d="M40.4887 30.1893C40.4887 29.5857 39.9992 29.0964 39.3955 29.0964C38.7917 29.0964 38.3022 29.5857 38.3022 30.1893V32.4662C38.3022 33.0697 38.7917 33.559 39.3955 33.559C39.9992 33.559 40.4887 33.0697 40.4887 32.4662V30.1893Z" fill="#ED0B73"></path><path id="Vector_11" d="M35.9369 62.0796V64.2567H33.752V62.0796H35.9369Z" fill="#ED0B73"></path><path id="Vector_12" d="M51.3733 8.62278C52.9803 8.62706 54.0706 8.23758 54.7628 6.80379C54.9155 6.48708 55.1439 6.20602 55.3479 5.91641C55.9802 5.01762 56.885 5.00763 57.5044 5.90643C58.0196 6.65399 58.5319 7.40584 59.0115 8.17766C59.2255 8.52291 59.4796 8.64132 59.8778 8.63134C60.9424 8.60566 62.0071 8.63134 63.0718 8.61993C63.6341 8.61279 64.0722 8.78542 64.3005 9.33325C64.5332 9.89108 64.2991 10.3148 63.9095 10.7C63.0903 11.5118 62.2897 12.3421 61.4562 13.1381C61.1793 13.4035 61.1137 13.6475 61.2122 14.0113C61.5061 15.1012 61.7516 16.204 62.0442 17.2926C62.1798 17.7976 62.0956 18.227 61.7088 18.5594C61.2935 18.9175 60.8225 18.9004 60.343 18.6579C59.197 18.0772 58.0567 17.4837 56.8907 16.9459C56.6367 16.8289 56.2385 16.8275 55.9845 16.943C54.877 17.4481 53.7938 18.0087 52.712 18.5666C52.1882 18.8362 51.673 18.9889 51.1621 18.5751C50.6454 18.1557 50.7239 17.6093 50.8667 17.05C51.1292 16.0214 51.4061 14.9942 51.6202 13.9542C51.6701 13.7131 51.566 13.3521 51.399 13.171C50.614 12.3278 49.7877 11.5217 48.9628 10.7157C48.5418 10.3048 48.3349 9.84257 48.5818 9.28332C48.8172 8.74832 49.2868 8.5971 49.8448 8.6185C50.3543 8.63847 50.8652 8.62278 51.3747 8.62278H51.3733ZM56.4312 8.40165C56.003 9.03508 55.6077 9.5872 55.2495 10.1636C54.9226 10.69 54.4745 10.9211 53.8651 10.8983C53.4198 10.8812 52.9717 10.8954 52.525 10.8954C52.8647 11.429 53.2386 11.8028 53.6296 12.1595C54.1049 12.5917 54.2476 13.0882 54.0549 13.7145C53.878 14.2895 53.7681 14.8858 53.6068 15.5649C54.3261 15.2096 54.9555 14.9343 55.5477 14.5933C56.1486 14.2495 56.698 14.2495 57.3003 14.5862C57.8983 14.92 58.5277 15.194 59.2555 15.5492C59.0771 14.8173 58.9629 14.2324 58.7903 13.6646C58.6047 13.0582 58.7689 12.5846 59.217 12.1709C59.6152 11.8042 60.1618 11.2621 60.5557 10.8897C60.0091 10.9054 59.5695 10.9083 59.2084 10.904C58.4021 10.894 57.8583 10.6543 57.4659 9.95955C57.1761 9.44739 56.8136 8.97516 56.4297 8.4045L56.4312 8.40165Z" fill="#ED0B73"></path></g></svg>