<?xml version="1.0" encoding="UTF-8"?>
<svg id="_ëÎÓÈ_2" data-name="ëÎÓÈ 2" xmlns="http://www.w3.org/2000/svg" xmlns:xlink="http://www.w3.org/1999/xlink" viewBox="0 0 1080 1080">
  <defs>
    <style>
      .cls-1 {
        clip-path: url(#clippath);
      }

      .cls-2, .cls-3, .cls-4, .cls-5 {
        stroke-width: 0px;
      }

      .cls-2, .cls-6 {
        fill: none;
      }

      .cls-3 {
        fill: #ed0b73;
      }

      .cls-4 {
        fill: #000;
      }

      .cls-6 {
        stroke: #ed0b73;
        stroke-linecap: round;
        stroke-linejoin: round;
        stroke-width: 24.66px;
      }

      .cls-5 {
        fill: #fff;
      }
    </style>
    <clipPath id="clippath">
      <rect class="cls-2" y="0" width="1080" height="1080"/>
    </clipPath>
  </defs>
  <rect class="cls-5" y="0" width="1080" height="1080"/>
  <g class="cls-1">
    <g>
      <polygon class="cls-3" points="820.63 406.48 1226.89 812.74 820.63 812.74 820.63 406.48"/>
      <polygon class="cls-3" points="414.36 812.74 820.63 812.74 820.63 1219.01 414.36 812.74"/>
      <polygon class="cls-3" points="414.36 .21 820.63 .21 820.63 406.48 414.36 .21"/>
    </g>
  </g>
  <g>
    <g>
      <path class="cls-3" d="M535.1,569.58c-2.31.68-4.43,1.66-6.43,2.8l-16.52-56.23c-2.44-8.31-12.62-11.38-19.25-5.81l-85.5,71.89c-1.27,1.07-2.75,1.86-4.34,2.33l-61.06,17.94c-6.36,1.87-10.01,8.54-8.14,14.91l2.7,9.18c-.67.15-1.34.17-2.01.37-16.22,4.77-25.35,22.33-20.38,39.24,4.97,16.91,22.14,26.75,38.37,21.98.67-.2,1.24-.54,1.89-.78l2.7,9.18c1.87,6.36,8.54,10.01,14.91,8.14l61.06-17.94c1.59-.47,3.27-.6,4.91-.39l110.79,14.23c8.59,1.1,15.49-6.98,13.05-15.3l-16.52-56.23c2.3-.13,4.62-.44,6.93-1.12,16.12-4.74,25.36-21.65,20.62-37.77-4.74-16.13-21.65-25.36-37.77-20.62Z"/>
      <path class="cls-3" d="M425.07,791.64h0c-13.87,4.08-28.42-3.87-32.5-17.74l-15.11-51.42c-.23-.77.21-1.58.98-1.8l47.45-13.94c.77-.23,1.58.21,1.8.98l15.11,51.42c4.08,13.87-3.87,28.42-17.74,32.5Z"/>
      <line class="cls-6" x1="610.27" y1="579.22" x2="636.66" y2="571.46"/>
      <line class="cls-6" x1="579.93" y1="531.63" x2="605.81" y2="483.69"/>
      <line class="cls-6" x1="610.48" y1="635.65" x2="658.18" y2="661.98"/>
    </g>
    <path class="cls-4" d="M302.78,622.67c-8.07-10.86-15.26-24.36-21.11-40.09,15.86-3.3,33.76-5.9,53.51-6.71l41.12-5.24c6.73-.86,13.11-3.48,18.49-7.61l8.97-6.87c-15.24-2.65-30.16-4.58-44.24-5.08v-57.72h70.28c-.58,15.86-2.62,30.87-5.27,45.34l28.17-23.68c.66-7.09,1.18-14.29,1.42-21.65h24.33l.09-.07c8.9-7.49,20.89-9.95,32-6.59,11.14,3.36,19.74,12.02,23.02,23.18l3.32,11.29c8.06-37.94,6.32-79.47-17.19-124.14-33.53-63.71-97.21-108.54-169.19-109.69-62.68-1-118.66,27.99-154.81,73.44-.14.22-.37.36-.5.59-.02.04-.02.09-.04.13-26,33-41.66,74.52-41.66,119.69,0,.02.01.03.01.05.01,45.11,15.64,86.57,41.59,119.54.06.11.05.23.11.34.34.62.88,1.01,1.3,1.54,24.21,30.01,57.25,52.43,95.02,63.86-2.85-16.08,1.61-31.97,11.29-43.84ZM484.78,382.28c17.87,24.77,29.19,54.48,31.49,86.72h-62.14c-.84-25.7-4.32-49.85-9.98-71.7,13.3-3.99,26.86-8.96,40.63-15.02ZM468.36,362.65c-10.59,4.37-21.05,8.16-31.36,11.2-7.03-19.45-15.98-36.25-26.37-49.84,21.86,8.84,41.48,22.05,57.72,38.64ZM359.52,313.77c21.58,6.86,40.68,31.45,53.57,66.11-18.62,3.93-36.59,6.1-53.57,6.7v-72.82ZM359.52,411.38c19.27-.69,39.69-3.08,61.01-7.83,5.18,19.97,8.41,42.14,9.27,65.46h-70.28v-57.63ZM335.18,551.05c-22.62.82-43.12,3.82-61.01,7.72-5.17-19.96-8.41-42.12-9.26-65.43h70.27v57.71ZM335.18,469h-70.28c.85-23.25,4.08-45.37,9.23-65.29,17.89,3.9,38.44,6.86,61.05,7.68v57.61ZM335.18,313.77v72.81c-19.77-.81-37.69-3.41-53.56-6.71,12.88-34.66,31.98-59.24,53.56-66.1ZM284.07,324.01c-10.41,13.62-19.38,30.49-26.42,50-13.18-3.79-23.93-7.74-31.68-10.95,16.32-16.77,36.06-30.15,58.1-39.05ZM209.66,382.64c8.58,3.94,22.52,9.67,40.81,15.04-5.61,21.75-9.04,45.77-9.89,71.32h-62.14c2.29-32.08,13.5-61.66,31.22-86.36ZM209.74,579.8c-17.76-24.72-29-54.34-31.3-86.45h62.14c.84,25.61,4.29,49.68,9.92,71.47-18.27,5.37-32.2,11.05-40.77,14.99ZM226.05,599.36c7.75-3.21,18.48-7.15,31.64-10.93,7.03,19.47,16,36.3,26.39,49.9-22.01-8.89-41.72-22.24-58.03-38.97Z"/>
  </g>
</svg>