<?xml version="1.0" encoding="UTF-8"?>
<svg id="_ëÎÓÈ_2" data-name="ëÎÓÈ 2" xmlns="http://www.w3.org/2000/svg" xmlns:xlink="http://www.w3.org/1999/xlink" viewBox="0 0 1080 1080">
  <defs>
    <style>
      .cls-1 {
        clip-path: url(#clippath);
      }

      .cls-2 {
        fill: none;
      }

      .cls-2, .cls-3, .cls-4, .cls-5 {
        stroke-width: 0px;
      }

      .cls-3 {
        fill: #ed0a73;
      }

      .cls-4 {
        fill: #000;
        opacity: .05;
      }

      .cls-5 {
        fill: #fff;
      }
    </style>
    <clipPath id="clippath">
      <rect class="cls-2" x="154.82" y="217.49" width="770.36" height="645.02"/>
    </clipPath>
  </defs>
  <rect class="cls-5" x="-2.46" y="-2.46" width="1084.93" height="1084.93"/>
  <path class="cls-4" d="M117.77,643.02h146.43v146.42H117.77v-146.42ZM639.96,613.56h146.43v-146.42h-146.43v146.42ZM815.72,789.44h146.52v-146.42h-146.52v146.42ZM639.96,789.44h146.43v-146.42h-146.43v146.42ZM288.32,965.3h146.52v-146.63h-146.52v146.63ZM288.32,789.44h146.52v-146.42h-146.52v146.42ZM288.32,613.56h146.52v-146.42h-146.52v146.42ZM464.09,789.44h146.53v-146.42h-146.53v146.42ZM639.96,965.3h146.43v-146.63h-146.43v146.63ZM117.77,436.98h146.43v-146.42H117.77v146.42ZM815.72,436.98h146.52v-146.42h-146.52v146.42ZM639.96,261.12h146.43V114.7h-146.43v146.42ZM639.96,436.98h146.43v-146.42h-146.43v146.42ZM288.32,436.98h146.52v-146.42h-146.52v146.42ZM464.09,436.98h146.53v-146.42h-146.53v146.42ZM288.32,261.12h146.52V114.7h-146.52v146.42Z"/>
  <g class="cls-1">
    <path class="cls-3" d="M651.39,371.23h-25.98s-2.41-2.16-2.41-2.16c0,0-1.93-2.65-2.17-4.57-.24-1.92-4.33-11.31-4.33-11.31l-98.64-9.38-91.18-80.6s-26.95-14.19-56.3-35.85c-14.92-3.61-42.58-9.86-42.58-9.86,0,0,0,2.41-6.98,4.33-6.98,1.92-70.49,16.6-70.49,16.6l32.24,43.55s-6.98,1.44-11.07,6.01c-4.09,4.57-4.81,12.27-7.46,12.75-2.65.48-27.67,3.85-27.67,3.85l-9.86,14.2-15.88,11.55-37.77-9.14s-4.33,10.11-5.05,12.99c-.72,2.89-2.65,6.98-2.89,9.86-.24,2.89-.72,6.02-1.2,7.7-.48,1.68-4.09,9.14-5.05,11.79-.96,2.65-3.85,5.05-3.85,6.02s1.68,3.37,1.68,3.37c0,0,1.68-2.65,2.65-2.16.96.48,3.85,2.41,6.01,2.16,2.17-.24,2.89.52,5.05.02,2.17-.5,5.53,2.63,5.53,2.63,0,0,0,2.65,1.44,4.33,1.44,1.68,2.65,2.65,3.37,4.81.72,2.16,3.61,5.29,3.85,6.74.24,1.44,1.93,6.26,2.65,8.42.72,2.17,2.65,4.57,4.09,5.53,1.44.96,4.09,5.29,4.09,5.29,0,0,.24,3.61,1.2,5.05s3.37,3.61,4.09,5.05c.72,1.44,1.93,3.13,2.41,4.81.48,1.68.96,4.57,2.17,5.29,1.2.72,2.65,2.65,4.09,6.26,1.44,3.61,5.77,11.79,5.77,12.51s1.92,7.46,2.89,8.18,6.02,1.2,6.02,2.41.24,3.37-.96,5.77c-1.2,2.41.72,6.5,2.41,7.22,1.68.72,3.13-.24,3.61,0,.48.24.96,3.13,1.92,3.85.96.72,1.68.96,2.17,3.13.48,2.16,2.65,5.53,2.65,5.53,0,0-.24,3.13.96,4.81,1.2,1.68,4.81,4.57,5.05,6.74.24,2.16.72,6.5.72,8.42s-.24,4.33-.96,4.33h-5.05s1.2,1.2,3.37,4.33c2.16,3.13,4.57,7.46,5.53,9.62.96,2.17,1.68,5.05,3.61,6.5,1.92,1.44,2.41,5.05,3.85,5.05s3.37-1.92,5.05,0c1.68,1.93,4.09,3.85,4.81,4.09.72.24.72-.48,2.65,1.2,1.92,1.68,4.09,1.44,5.77,4.09,1.68,2.65,3.61,3.13,6.25,6.5,2.65,3.37,2.89,4.57,3.85,4.81.96.24,2.41.96,2.41,2.16s5.29,10.11,5.53,10.83c.24.72,1.44,7.94,1.92,8.66.48.72,2.41,3.37,2.65,4.57.24,1.2-1.2,4.09-.48,5.53.72,1.44,4.33,5.05,5.29,7.22.96,2.16.96,4.81,1.93,6.5.96,1.68,2.41,4.33,2.65,5.29.24.96.24,6.02.24,6.98s-1.92,4.81-2.41,6.5c-.48,1.68-.72,4.57-1.44,6.74-.72,2.16-.48,6.5-.48,6.5,0,0-.24,4.09.48,5.77.72,1.68,1.44,3.61,1.93,5.29.48,1.68,1.92,5.29,2.41,6.26.48.96.96,1.44-.24,3.13-1.2,1.68-3.37,1.68-2.89,3.61.48,1.92,2.89,3.37,2.89,4.09s-.48,3.13.48,4.33c.96,1.2,2.41,2.41,2.89,4.57.48,2.16,2.65,3.61,3.85,5.53,1.2,1.93,2.41,2.65,3.85,5.29,1.44,2.65,6.01,12.03,6.98,13.47.96,1.44,3.13,4.33,5.53,5.29,2.41.96,6.74,1.68,7.46,1.44.72-.24,3.85-2.31,4.09.05.24,2.36,1.44,2.6,2.17,3.8.72,1.2,1.92,3.61,3.61,4.33s2.89.72,4.33,1.93c1.44,1.2,3.61,2.65,4.09,3.37.48.72,3.85,7.94,3.85,7.94,0,0,2.41-2.89,3.37-1.2.96,1.68,2.41,2.41,2.89,5.05.48,2.65-.48,4.33.24,4.81.72.48,4.81,1.44,4.81,3.13s-.72,3.61.48,5.77c1.2,2.16,2.16,2.89,2.65,5.05.48,2.17-.24,5.77.48,5.77s3.85-1.92,3.85,0-1.68,5.53-.96,6.98,3.85,2.65,3.85,3.37c0,.72-1.93,2.89-1.44,4.81.48,1.93,2.65,5.77,3.37,6.02.72.24,3.13,2.89,4.09,4.81.96,1.92,5.29,12.03,5.29,12.03,0,0,.96,2.41,1.93,4.33.96,1.93,4.09,8.9,6.02,10.11,1.92,1.2,4.33,1.68,4.33,1.68,0,0,2.17,3.37,5.29,5.53,3.13,2.16,9.62,7.7,9.86,8.9s-.48,4.09.72,6.98c1.2,2.89,2.65,4.81,2.65,4.81,0,0,.24,2.16.96,3.37.72,1.2,2.65.24,3.37,1.68.72,1.44,2.41,5.77,3.37,7.46.96,1.68,2.89,4.81,3.37,5.53.48.72.48,2.89.48,4.09s1.44,3.61,1.93,4.81c.48,1.2,1.2,3.61,1.2,3.61l3.37-1.44,2.41-2.41s2.16,1.93,3.37,0c1.2-1.93,2.65-6.74,3.37-6.74s3.13-.48,3.37-1.68c.24-1.2.72-2.16-.96-5.29-1.68-3.13-2.89-3.85-2.16-5.05.72-1.2,1.68-2.16,1.44-3.13-.24-.96-.48-6.5.96-6.98,1.44-.48,3.85-1.92,3.61-2.65-.24-.72-1.68-2.89-1.68-2.89l6.98-5.77s5.29-1.93,7.22,0c1.93,1.93,4.33,5.05,6.02,5.53,1.68.48,3.61.24,4.57.96.96.72,2.89.96,2.89.96,0,0,2.65-1.93,3.85-1.68,1.2.24,4.33.48,4.33.48,0,0,.96-1.92,3.37-1.92s12.75,0,14.19.48c1.44.48,2.17-.96,6.02-.96s17.8-.24,19.49.72c1.68.96,4.57,2.89,6.98,3.61s16.84,2.89,19.49,2.89,16.12,2.41,19.25,1.92c3.13-.48,12.27-3.61,12.99-2.41.72,1.2,7.94,11.79,9.62,12.51s5.53.72,6.74.48c1.2-.24,10.83-5.29,11.55-6.5.72-1.2,4.57-11.07,5.53-13.47.96-2.41,22.86-29.35,22.86-29.35,0,0,34.41-18.04,35.13-18.04s55.09-7.94,63.03-8.18c7.94-.24,46.67-9.62,49.8-11.07,3.13-1.44,110.67-44.99,110.67-44.99l20.45-83.24-18.53-27.26-1.92,4.16-96.24-8.42-32.48-40.42s1.44-2.41,1.68-3.61c.24-1.2-.96-9.62-.96-9.62,0,0-1.2,2.17-1.93,2.17s-2.89.24-2.89.24c0,0-.72-6.25-1.2-5.53-.48.72-1.2,6.25-1.93,5.53-.72-.72-2.65-2.89-3.61-2.89s-5.77.96-5.77.96c0,0-.72-2.41.24-4.57.96-2.16,5.05-5.29,5.29-6.25.24-.96,0-3.13-.72-3.13s-2.17,1.2-2.89,1.2-2.89-1.44-4.81-.48c-1.92.96-3.61,3.13-6.98,2.41-3.37-.72-6.5-3.61-7.22-4.33s-4.81-6.98-5.05-7.94c-.24-.96-1.2-3.13-1.93-4.09-.72-.96-1.2-2.17-1.93-2.65s-3.13-3.37-3.13-4.09-.72-7.22-.96-8.66c-.24-1.44-1.93-4.09-3.61-4.81-1.68-.72-1.68.48-3.37-.96-1.68-1.44-4.57-5.05-4.57-6.5s-1.92-6.5-2.41-7.46c-.48-.96-1.44-3.13-1.44-3.85,0-.72-3.37-3.13-3.61-3.85-.24-.72-3.13-4.33-2.16-5.29.96-.96,2.89-1.44,3.13-.24.24,1.2,2.41,4.09,2.65,5.05.24.96,1.93-2.65,2.41-4.09.48-1.44.72-4.81.72-5.53,0-.72,0-2.89-.24-4.09-.24-1.2-1.68-3.13-2.65-3.37-.96-.24-2.41-2.16-3.61-3.61-1.2-1.44-1.44-5.29-1.44-5.29,0,0,5.05,1.93,5.53.72.48-1.2-2.16-2.41-4.09-4.33-1.93-1.92-3.13-2.41-5.29-3.13-2.16-.72-5.05-1.92-7.46-4.33-2.41-2.41-4.57-6.74-5.05-7.7-.48-.96-2.41.96-2.41.96,0,0-2.65.48-2.65-.24,0-.72-.72-5.29-1.68-4.09-.96,1.2.24,3.37-.96,1.2-1.2-2.16-2.41-5.29-2.41-5.29,0,0-.96.96-1.44,0-.48-.96-3.13-3.85-3.13-3.85l4.33-1.2s0-2.16-.72-2.16-6.5-1.2-6.5-1.2l-4.33-2.41s-1.92,3.37-2.41,1.93c-.48-1.44-1.92-6.26-1.68-7.46.24-1.2-.24-4.33-.24-5.29s-2.89-3.37-2.89-3.37l.72-1.68s-3.61-1.2-4.33-1.92c-.72-.72-1.68-2.41-1.68-3.37,0-.96-1.68-3.61-1.68-4.33v-.72s-1.93-5.05-1.93-5.05c0,0,.48-4.09-.72-4.33-1.2-.24-2.65-2.16-2.65-2.16"/>
  </g>
</svg>