<svg width="38" height="38" viewBox="0 0 38 38" fill="none" xmlns="http://www.w3.org/2000/svg">
<circle cx="19" cy="19" r="19" fill="#171717"/>
<path d="M13.1697 14.8333H13.1462C12.8907 14.8488 12.6347 14.8113 12.3943 14.7234C12.1539 14.6354 11.9342 14.4989 11.749 14.3222C11.5637 14.1456 11.4169 13.9326 11.3176 13.6967C11.2183 13.4607 11.1688 13.2068 11.172 12.9509C11.1753 12.6949 11.2313 12.4424 11.3365 12.209C11.4417 11.9757 11.5939 11.7665 11.7836 11.5946C11.9733 11.4227 12.1964 11.2918 12.4389 11.21C12.6815 11.1282 12.9383 11.0972 13.1933 11.1191C13.4496 11.1006 13.707 11.1352 13.9493 11.2209C14.1915 11.3067 14.4135 11.4416 14.6011 11.6172C14.7887 11.7928 14.9379 12.0054 15.0394 12.2415C15.1409 12.4775 15.1924 12.7321 15.1908 12.989C15.1891 13.246 15.1344 13.4999 15.0299 13.7347C14.9254 13.9694 14.7734 14.18 14.5836 14.3533C14.3938 14.5265 14.1702 14.6586 13.9268 14.7412C13.6835 14.8238 13.4257 14.8552 13.1697 14.8333Z" fill="#DDDDDF"/>
<path d="M14.848 17.333H11.5146V27.333H14.848V17.333Z" fill="#DDDDDF"/>
<path d="M23.5977 17.333C23.036 17.3345 22.4819 17.463 21.9768 17.7088C21.4717 17.9546 21.0288 18.3114 20.681 18.7525V17.333H17.3477V27.333H20.681V22.7497C20.681 22.3076 20.8566 21.8837 21.1691 21.5712C21.4817 21.2586 21.9056 21.083 22.3477 21.083C22.7897 21.083 23.2136 21.2586 23.5262 21.5712C23.8387 21.8837 24.0143 22.3076 24.0143 22.7497V27.333H27.3477V21.083C27.3477 20.5906 27.2507 20.1029 27.0622 19.6479C26.8737 19.193 26.5975 18.7796 26.2493 18.4314C25.9011 18.0831 25.4877 17.8069 25.0327 17.6185C24.5777 17.43 24.0901 17.333 23.5977 17.333Z" fill="#DDDDDF"/>
</svg>
