<?xml version="1.0" encoding="UTF-8"?>
<svg id="_ëÎÓÈ_2" data-name="ëÎÓÈ 2" xmlns="http://www.w3.org/2000/svg" xmlns:xlink="http://www.w3.org/1999/xlink" viewBox="0 0 1080 1080">
  <defs>
    <style>
      .cls-1 {
        clip-path: url(#clippath);
      }

      .cls-2 {
        fill: none;
      }

      .cls-2, .cls-3, .cls-4, .cls-5 {
        stroke-width: 0px;
      }

      .cls-3 {
        fill: #ed0a73;
      }

      .cls-6 {
        clip-path: url(#clippath-1);
      }

      .cls-7 {
        clip-path: url(#clippath-4);
      }

      .cls-8 {
        clip-path: url(#clippath-3);
      }

      .cls-9 {
        clip-path: url(#clippath-2);
      }

      .cls-10 {
        clip-path: url(#clippath-5);
      }

      .cls-4 {
        fill: #000;
        opacity: .05;
      }

      .cls-5 {
        fill: #fff;
      }
    </style>
    <clipPath id="clippath">
      <rect class="cls-2" x="325.92" y="98.13" width="428.15" height="883.74"/>
    </clipPath>
    <clipPath id="clippath-1">
      <rect class="cls-2" x="325.92" y="98.13" width="428.15" height="883.74"/>
    </clipPath>
    <clipPath id="clippath-2">
      <rect class="cls-2" x="325.92" y="98.13" width="428.15" height="883.74"/>
    </clipPath>
    <clipPath id="clippath-3">
      <rect class="cls-2" x="325.92" y="98.13" width="428.15" height="883.74"/>
    </clipPath>
    <clipPath id="clippath-4">
      <rect class="cls-2" x="325.92" y="98.13" width="428.15" height="883.74"/>
    </clipPath>
    <clipPath id="clippath-5">
      <rect class="cls-2" x="325.92" y="98.13" width="428.15" height="883.74"/>
    </clipPath>
  </defs>
  <rect class="cls-5" x="-2.46" y="-2.46" width="1084.93" height="1084.93"/>
  <path class="cls-4" d="M117.77,643.02h146.43v146.42H117.77v-146.42ZM639.96,613.56h146.43v-146.42h-146.43v146.42ZM815.72,789.44h146.52v-146.42h-146.52v146.42ZM639.96,789.44h146.43v-146.42h-146.43v146.42ZM288.32,965.3h146.52v-146.63h-146.52v146.63ZM288.32,789.44h146.52v-146.42h-146.52v146.42ZM288.32,613.56h146.52v-146.42h-146.52v146.42ZM464.09,789.44h146.53v-146.42h-146.53v146.42ZM639.96,965.3h146.43v-146.63h-146.43v146.63ZM117.77,436.98h146.43v-146.42H117.77v146.42ZM815.72,436.98h146.52v-146.42h-146.52v146.42ZM639.96,261.12h146.43V114.7h-146.43v146.42ZM639.96,436.98h146.43v-146.42h-146.43v146.42ZM288.32,436.98h146.52v-146.42h-146.52v146.42ZM464.09,436.98h146.53v-146.42h-146.53v146.42ZM288.32,261.12h146.52V114.7h-146.52v146.42Z"/>
  <g class="cls-1">
    <path class="cls-3" d="M531.1,98.81c-1.58.23-3.16.45-4.74.68v.67h4.74v-1.35Z"/>
  </g>
  <g class="cls-6">
    <path class="cls-3" d="M546.87,99.48c1.38,1.22.48.01,1.36,2.03,3.39-.23,6.78-.45,10.17-.68-.23.68-.45,1.35-.68,2.03h-10.17c-1.54,6.89-.37,2.8-6.78,2.03v-4.73c2.04.47,4.78.97,6.1-.67"/>
    <path class="cls-3" d="M563.13,105.57h1.36c-1.49,1.82-.48,1.29-3.39,2.03,1.67-1.32.27-.38,2.03-.68v-1.35Z"/>
    <path class="cls-3" d="M564.49,106.25c.33,1.91,1.15.91-.68,2.03.23-.68.45-1.35.68-2.03"/>
    <path class="cls-3" d="M585.95,108.27c14.92,10.22,21.62,22.1,32.53,23.66,3.62,2.7,7.23,5.41,10.84,8.11-.23,5.86-.45,11.72-.68,17.58,1.13.23,2.26.45,3.39.68-.45.45-.9.9-1.35,1.35-3.76,1.13-.84,2.48-2.71,6.09,5.39,3.89,8.96,19.48,20.33,22.99.06,9.39-1.22,14.64-2.03,18.93,2.14.22,11.37,8.9,17.62,11.5.45-.23.9-.45,1.36-.68,10.36.46,21.2-4.21,29.14-2.03,2.94,1.13,5.88,2.25,8.81,3.38.45-.3,7.56,8.48,9.49,8.11,9.86-.04,13.2,2.89,20.33,5.41,1.14-2.26,5.97-3.71,4.07-2.03,1.81-.45,3.62-.9,5.42-1.35,1.07,2.09,1.62.71,0,2.7-.2-1.49-5.89-.09-8.13,1.35,1.3,3.9.6,2.38-.68,5.41.9.23,1.81.45,2.71.68v-1.35c.45.45.91.9,1.36,1.35.23,1.35.45,2.7.68,4.06-2.21-.11-3.54,1.03-4.74.68-.45,3.83-.91,7.66-1.36,11.5.68.68,1.36,1.35,2.03,2.03.51,1.01-.48.63.68,2.03.12.14,5.74,24.28,1.35,28.4,5.19,7.38,3.58,7.02,3.39,21.64-2.9-2.44-.61-1.96-4.74-1.35.63-2.86,1.76-3.07-.68-5.41.01,7.38-10.12,2.87-11.52,7.44-2.36,1.09-1.13,3.04,1.35,2.71.45.22.91.45,1.36.67-.22,1.35-.45,2.7-.68,4.06,3.29-1.49,3.23-2.47,6.1-5.41,2.4,1.7,1.18.55,2.71,2.7-5.01,2.1-6.83,9.42-5.42,14.88-2.48-.45-4.97-.9-7.45-1.35v2.03c2.88.55,6.01,3.96,8.81,5.41.45-.45.9-.9,1.36-1.35-.75-2.77-1.28-3.37,0-4.73,1.16-11.05,11.62,4.62,12.2,10.14-3.44,1.88-6.48,15.78-8.13,20.28-5.87-.9-11.75-1.8-17.62-2.7-.91,1.13-1.81,2.25-2.71,3.38v6.76c3.12-1.05,5.12-1.06,6.78,1.35-6.32.89,1.72,9.29-.68,15.55-2.48,2.93-4.97,5.86-7.45,8.79-2.91-2.47-1.87-1.8-6.1-2.71-.64,4.2-1.14,2.99-4.07,4.73-.57-1.26-9.49.68-9.49.68-1.36.68-2.71,1.35-4.07,2.03.99,6.09,2.59,10.81-.68,18.26,1.58-.23,3.16-.45,4.74-.68-4.14,13.55-6.14,19.81-10.17,31.1,3.14,1.56,9.23,15.82,10.17,15.55,6.39,11.1,15.16,10.12,16.27,25.69.22.23.45.45.68.68.02,2.32,1.44,1.99,2.71,2.03-2.05,5.08-2.29,11.3-.68,16.9-1.36-.67-2.71-1.35-4.07-2.03v.68c.91.45,1.81.9,2.71,1.35-.85,6.03-1.98,4.74-3.39,8.11-1.44,3.43,2.59,4.89,0,10.82,2.14-.04,1.41-.37,2.03.67.74,5.98-4.24,4.98-2.71,11.5,2.26-.45,4.52-.9,6.78-1.35-.23.68-.45,1.35-.68,2.03,1.22,1.06,1.63,6.59-1.36,5.41-1.01,1.88-4.36,1.54-6.78,2.7-.11,1.71-2.75,11.32,1.36,9.47,2.16,2.43,11.64,1.28,10.85-2.71,2.01-1.3.01-.17,1.35-2.03,1.32,1.66.38.27.68,2.03,1.67.77.76-.34,1.35,2.03-3.24.67-3.61,4.63-1.35,3.38,1.15,1.47,1.16,1.11,4.74,1.35,1.13-1.58,2.26-3.16,3.39-4.73,4.45,2.27,4.02-1.08,4.74,3.38,4.69,2.16,8.86,9.22,14.23,12.84,2.32-1.59,1.54-.81,2.03-2.7.9.45,1.81.9,2.71,1.35-2.07,2.73-1.47,5.71-2.03,10.14-2.03.9-4.07,1.8-6.1,2.7-.34,9.77,1.15,14.01,10.17,17.58-5.49,10.89-6.08,26.57-2.03,41.92,2.7,10.26.14,28.84-4.07,27.72,1.5,16.23,7.42,18.46,6.78,36.51-2.54,1.24-2.85,1.23-2.71,3.38-3.02-.03-5.32-1.3-4.07,1.35-1.13,1.13-2.26,2.25-3.39,3.38h-4.07c-.1,2.19-1.47,4-4.07,4.73,1.16,4.36-1.58,4.98,2.03,7.44.24-2.02-.22-2.75,2.71-4.06v1.35c1.82.33.56-.59,2.03,1.36-3.55,4.59-11.83,15.31-12.2,23.67,1.75.25,1.84-.32,3.39,1.35-1.13,1.58-2.26,3.15-3.39,4.73-.45-.67-.91-1.35-1.36-2.03-9.56,4.38-11.15,14.48-20.33,23.66l-6.78,3.38c-4.4,5.83-4.05,13.47-9.49,19.61-2.07,2.34-1.93,14.3-6.1,18.93-.23,5.63-.45,11.27-.68,16.9-3.96,6.03-8.63,17.34-14.91,25.02-1.81,7.89-3.61,15.78-5.42,23.66-3.01,4.94-5.83,2.98-8.81,10.14-2.79-.41-11.95.43-13.55,2.03-7.51,4.01-.68,11.86-4.74,22.31-3.96,7.36-12,9.99-18.97,16.9-.23-.67-.45-1.35-.68-2.03,5.8-6.18-6.67-16.77-2.03-23.66,1.81,1.12,3.61,2.25,5.42,3.38v-2.71c-1.92-1.3.08-.39-1.36-2.03.91-.45,1.81-.9,2.71-1.35.22.9.45,1.8.68,2.71.23-.45.45-.9.68-1.35,2.87-2.65,3.81-6.87,2.71-14.2h-.68c-.28,2.5-3.87,8.56-3.39,10.14-.68-.45-1.36-.9-2.03-1.35,1.47-4.53,1.97-14.89-.68-16.23.28,2.63-1.31,2.93-2.03,6.08-4.76-1.5-8.55-1-12.88-.68.23.9.45,1.8.68,2.71-3.98-2.65-5.85-5.41-8.81-7.44.68-1.8,1.36-3.61,2.03-5.41-1.36-.45-2.71-.9-4.07-1.35.47,2.68.61,6.08-2.03,8.11-.45.68-.91,1.35-1.36,2.03-1.32-1.66-.38-.27-.68-2.03-2.1-1.08-.86-1.42-2.03-3.38-2.26.67-4.52,1.35-6.78,2.03-.31,1.81.42,1.02-1.35,2.71-1.44-2.07-2.69-.95-6.78-2.03-1.22,4.43-2.46,2.65-4.07,5.41-2.5-1.18-2.42-.53-3.39-2.71-.68.23-1.36.45-2.03.67.67,3.28-1.72,7.03.68,12.17,1.36.68,2.71,1.35,4.07,2.03,4.04-3.03,11.72,2.81,18.3-2.03,2.96,2.2,4.45,3.83,4.74,6.09,1.58-.9,3.16-1.8,4.74-2.71-.07,2.69-.93,2.67.68,4.06,4.37,4.58,3.73,2.52,6.78,8.11h.68c2.76-2.34,2.19-3.41,4.74-5.41.21,2.3.97,4.29,2.03,5.41-.23.23-.45.45-.68.68-1.81,2.03-3.62,4.06-5.42,6.09.23.22.45.45.68.67,2.93,10.14-2.26,25.72-2.71,30.42-.25,2.61,1.39,4.69-1.35,3.38-4.98,2.62-51.16,9.05-51.51,8.79-9.98,5.11-14.05,4.16-25.75,8.11-6.1.68-12.2,1.35-18.3,2.03-26.44-9.18-62.19-17.73-79.98-40.57-4.74-9.24-9.49-18.48-14.23-27.72-9.21-19.56-21.62-50.46-39.99-73.03,9.63.24,17.99-5.38,24.4-11.49,1.27-1.22,1.96-20.18,2.71-20.96-11.63-12.89.49-28.85-5.42-43.27.23-2.26.45-4.51.68-6.76-1.36-.68-2.71-1.35-4.07-2.03.23-2.03.45-4.06.68-6.09-3.84-2.71-7.68-5.41-11.52-8.11-.68-3.61-1.36-7.21-2.03-10.82-4.72-6.37-10.67-8.2-12.88-14.2-4.88-13.24,6.34-23.6,8.81-25.02-2.19-9.88-.99-17.44-6.78-24.34-.94-1.12-1.82-1.97-.68-3.38-3.6-5.18-9.73-8.13-12.2-11.49-1.35-1.84.44-11.55,1.36-13.52-1.8-13.75-1.97-25.51-3.39-35.84-.19-1.39-.28-3.84-1.36-2.03-1.7-4.38-1.02-33.34.68-35.84,0,0-1.13-15.11,1.36-20.28-1.06-3.37.15-9.86-.68-13.52-2.91-12.83-2.68-25.51-7.45-40.57.45-.23.9-.45,1.35-.68,0,0,6.38-33.41,6.1-33.81-.35-3.71-2.23-4.42-6.1-5.41.45-.68.91-1.35,1.36-2.03,4.97-4.28,9.94-8.57,14.91-12.85h4.07c.78,5.02,6.35,14.89,10.84,18.93,1.19,1.07,1.47,12.17,2.03,13.52-.22.22-.45.45-.68.68.45.23.9.45,1.36.68.45.68.9,1.35,1.36,2.03,2.4-.65,5.26-.46,6.1-1.35,1.5-.28,1.14-.37,3.39-1.35v-2.7c-2.31-2.84-8.63-8.81-6.78-9.47.85-2.76-1-8.15,0-8.79-1.64-4.67-7.78-7.51-8.13-12.85,1.97-5.01,5.13-5.07,7.46-9.46,3.71-7.01-3.07-15.89-4.07-25.7h-2.03c-2.84.32-6.91,2.17-8.81,3.38-2.34-1.93-3.12-2.88-4.07-6.08,2.87-1.8,2.02-1.75,2.71-5.41,7.21-.69,7.81-3.75,18.3-2.03.41-2.38-.92-1.25,2.03-2.7-.98-2.68-1.14-3.89-.68-4.73,1.47-3.14,1.02-1.79,1.36-6.09,3.2,2.19,7.22,2.21,9.49,4.06.35,1.75,2.48,3.79,2.03,5.41,3.19-2.1,2.97-1.93,4.07-1.36,9.45.67-4.74,25.02-4.74,25.02-.26,2.12.17.16-1.36,2.03v3.38c2.08.02.95-.65,2.71.68-.54,2.29-2.75,10.62,0,14.2,5.15-.34,7.73,6.66,12.88,6.76,0,7.82.63,9.61,3.39,14.2,2.03-.45,4.07-.9,6.1-1.35v-4.73c-2.48-.28-5.21-.94-5.42-6.09h1.35c.54-2.18,1.94-1.45,4.07-4.73-2.21-.07-4.58-1.22-6.1-4.73.63-.27,7.99-21.81,9.49-24.34-1.6-1.97-2.32-3.16-3.39-2.7,2.83-4.33,5.44-2.32,6.78-8.79,2.63,1.96,1.07,2.33,4.07,0,.39,3.49,5.44,10.53,8.81,8.79,1.58-.68,3.16-1.35,4.74-2.03v-5.41c-1.13-.67-2.26-1.35-3.39-2.03.98-2.25,1.07-1.61,1.36-3.38-1.13-.45-2.26-.9-3.39-1.35-.52,2.88,1.13,1.5-2.03,2.7-1.72-5.24-3.13,2.11-8.14,0-4.74-4.06-9.49-8.11-14.23-12.17-5.24-7.33-5.8-26.29-6.78-37.19,6.65-3.2,3.13-9.39,10.84-11.5-1.05-8.59-3.53-10.39-4.75-16.22-1.3-6.23,3.03-10.15,6.1-12.17h2.03c2.67-3.44,1.26-6.28,5.42-10.14.23.45.45.9.68,1.35,3.09.52,8.66,7.37,9.49,10.82,1.38,1.03.71,7.91,0,11.49h4.75c2.46-4.81,5.31-3.74,7.45-6.08-1.56-5.44.47-6.47,3.39-10.14-1.14-2.8-2.65-9.8-1.36-14.88-3.28-.39-4.87-.34-10.84,0-.52-1.12-4.02-2.59-2.71-5.41-2.69-9.24,3.47-14.07,3.39-22.99,19.37-4.83,11.36-33.61,10.85-53.42h2.71c.91,3.16,1.81,6.31,2.71,9.47.45-.23.9-.45,1.36-.68.23-1.58.45-3.16.68-4.73v3.38c1.41,1.61.59-.11.68,2.03,7.36-3.25,9.2-12.77,9.49-12.85,1.37,1.4.68.92,3.39,1.35v-2.03s2.61-26.67,6.1-29.08c1.94-3.1,21.44-8.2,18.98-14.2,2.03.9,4.07,1.8,6.1,2.7,2.61-4.47,2.72-5.49,7.45-6.76.27,1.48,1.85,3.01,1.36,4.73,7.25-1.21,11.55-2.55,16.94-9.47-.74-4.45-.27-9.84.68-10.82,4.52-3.16,9.04-6.31,13.56-9.47-.75-3.4-.67-5.58,2.03-7.44-.23.45-.45.9-.68,1.35,1.76,1.52.45.77,1.36,2.7,2.03-.45,4.07-.9,6.1-1.35.45-.9.9-1.8,1.35-2.7,1.69,1.36,7.95,3.36,9.49,1.35,5.09-3.43,3.83-8.19,11.52-8.79,1.03.4,6.53.48,5.42,2.03,1.25-1.09,1.3-1.75,2.03-3.38-1.06-1.08-.22.09-.68-1.35"/>
  </g>
  <g class="cls-9">
    <path class="cls-3" d="M357.6,225.25h-1.36c1.18.66.15.62,1.36,0"/>
    <path class="cls-3" d="M356.24,225.93h-1.36c.45.45.91.9,1.36,1.35v-1.35Z"/>
    <path class="cls-3" d="M354.21,226.6c-.9.68-1.81,1.35-2.71,2.03,1.99-.62,3.59-.16,2.71-2.03"/>
    <path class="cls-3" d="M361.66,227.28c-.23.45-.45.9-.68,1.35.23-.45.45-.9.68-1.35"/>
    <path class="cls-3" d="M363.69,234.72h-2.03c.45.45.9.9,1.35,1.35.23-.45.45-.9.68-1.35"/>
    <path class="cls-3" d="M364.37,235.39c-.45.45-.91.9-1.36,1.35.45-.45.91-.9,1.36-1.35"/>
  </g>
  <g class="cls-8">
    <path class="cls-3" d="M367.08,310.44c-1.79.95-.59.36,0,2.03v-2.03Z"/>
    <path class="cls-3" d="M374.54,311.8c-.45.45-.9.9-1.36,1.35.45-.45.91-.9,1.36-1.35"/>
    <path class="cls-3" d="M362.34,313.15c-1.69,3.39,2.39,9.32,6.78,9.47v-.68h-1.35c.23-4.47-4.26-6.13-5.42-8.79"/>
  </g>
  <g class="cls-7">
    <path class="cls-3" d="M387.42,319.23c.45.23.91.45,1.36.68-1.08,4.02-3.16,7.31-6.78,8.11.23-.45.45-.9.68-1.35-.46-3.13.53-4.23,1.36-4.73,1.09-2.55,1.41-1.18,3.39-2.71"/>
    <path class="cls-3" d="M711.38,372.65c-.23.45-.45.9-.68,1.35h1.36c-.23-.45-.45-.9-.68-1.35"/>
    <path class="cls-3" d="M712.06,374.68c.15.99-.28.68.68,2.03-.23-.68-.45-1.35-.68-2.03"/>
  </g>
  <g class="cls-10">
    <path class="cls-3" d="M709.35,388.88c-1.13,1.35-2.26,2.71-3.39,4.06,1.01-2.68,1.21-2.67,3.39-4.06"/>
    <path class="cls-3" d="M376.57,497.06c-3.32,3.13-3.3,2.19-5.42,6.09.45.22.91.45,1.36.68,1.35-1.13,2.71-2.25,4.07-3.38v-3.38Z"/>
    <path class="cls-3" d="M754.08,501.8c-.23.45-.45.9-.68,1.35.23-.45.45-.9.68-1.35"/>
    <path class="cls-3" d="M377.25,520.05h-2.03c-1.13,2.03-2.26,4.06-3.39,6.09h2.71c1.79-2.41,2.61-.78,2.03-3.38.23-.9.45-1.8.68-2.71"/>
    <path class="cls-3" d="M371.83,529.52h-4.74c-.45,2.03-.9,4.06-1.35,6.09h2.03c.84-3.13,1.76-.76,4.74-4.05-.91-1.87-.43-.2-.68-2.03"/>
    <path class="cls-3" d="M378.61,550.48c-.68.9-1.36,1.8-2.03,2.71v.67h.68c2.09-1.98,1.38-.27,1.36-3.38"/>
    <path class="cls-3" d="M351.5,624.86c-.23.45-.45.9-.68,1.35.23-.45.45-.9.68-1.35"/>
    <path class="cls-3" d="M503.99,891.26h-2.03c.23.68.45,1.35.68,2.03.45-.67.9-1.35,1.36-2.03"/>
    <path class="cls-3" d="M503.99,893.29c-.45.45-.9.9-1.36,1.35.45.45.9.9,1.36,1.35h.68c-.23-.9-.45-1.8-.68-2.71"/>
    <path class="cls-3" d="M480.27,906.82c-.45.45-.91.9-1.36,1.35.45-.45.9-.9,1.36-1.35"/>
  </g>
</svg>