<?xml version="1.0" encoding="UTF-8"?>
<svg id="_ëÎÓÈ_2" data-name="ëÎÓÈ 2" xmlns="http://www.w3.org/2000/svg" xmlns:xlink="http://www.w3.org/1999/xlink" viewBox="0 0 1080 1080">
  <defs>
    <style>
      .cls-1 {
        clip-path: url(#clippath);
      }

      .cls-2 {
        fill: none;
      }

      .cls-2, .cls-3, .cls-4, .cls-5 {
        stroke-width: 0px;
      }

      .cls-3 {
        fill: #ed0b73;
      }

      .cls-4 {
        fill: #000;
      }

      .cls-5 {
        fill: #fff;
      }
    </style>
    <clipPath id="clippath">
      <rect class="cls-2" x="0" width="1080" height="1080"/>
    </clipPath>
  </defs>
  <rect class="cls-5" y="0" width="1080" height="1080"/>
  <g>
    <g>
      <path class="cls-4" d="M357.3,256.98c-3.71-17.24-19.08-30.21-37.42-30.21h-54.84c-21.11,0-38.27,17.17-38.27,38.27v158.43c0,8.34,6.76,15.11,15.11,15.11h101.17c8.34,0,15.11-6.77,15.11-15.11v-158.43c0-2.77-.3-5.46-.86-8.06ZM327.94,408.36h-70.96v-143.32c0-4.44,3.62-8.05,8.06-8.05h54.84c4.44,0,8.05,3.61,8.05,8.05v143.32Z"/>
      <path class="cls-3" d="M327.94,265.04v143.32h-70.96v-143.32c0-4.44,3.62-8.05,8.06-8.05h54.84c4.44,0,8.05,3.61,8.05,8.05Z"/>
    </g>
    <path class="cls-4" d="M586.58,342.62h-85.71c-8.34,0-15.11-6.76-15.11-15.11s6.76-15.11,15.11-15.11h85.71c8.34,0,15.11,6.76,15.11,15.11s-6.76,15.11-15.11,15.11Z"/>
    <path class="cls-4" d="M665.09,443.6h-242.74c-8.34,0-15.11-6.76-15.11-15.11s6.76-15.11,15.11-15.11h242.74c8.34,0,15.11,6.76,15.11,15.11s-6.76,15.11-15.11,15.11Z"/>
    <path class="cls-4" d="M665.09,532.93h-242.74c-8.34,0-15.11-6.76-15.11-15.11s6.76-15.11,15.11-15.11h242.74c8.34,0,15.11,6.76,15.11,15.11s-6.76,15.11-15.11,15.11Z"/>
    <path class="cls-4" d="M617.5,622.27h-195.15c-8.34,0-15.11-6.76-15.11-15.11s6.76-15.11,15.11-15.11h195.15c8.34,0,15.11,6.76,15.11,15.11s-6.76,15.11-15.11,15.11Z"/>
    <g>
      <path class="cls-3" d="M849.68,645.02c-52.95-13.22-94.64-54.9-107.86-107.86-1.18-4.74-7.64-4.74-8.82,0-13.22,52.95-54.9,94.64-107.86,107.86-4.74,1.18-4.74,7.64,0,8.82,52.95,13.22,94.64,54.9,107.86,107.86,1.18,4.74,7.64,4.74,8.82,0,13.22-52.95,54.9-94.64,107.86-107.86,4.74-1.18,4.74-7.64,0-8.82Z"/>
      <path class="cls-3" d="M700.81,780.74c-31.93-7.97-57.06-33.1-65.03-65.03-.71-2.86-4.6-2.86-5.32,0-7.97,31.93-33.1,57.06-65.03,65.03-2.86.71-2.86,4.6,0,5.32,31.93,7.97,57.06,33.1,65.03,65.03.71,2.86,4.6,2.86,5.32,0,7.97-31.93,33.1-57.06,65.03-65.03,2.86-.71,2.86-4.6,0-5.32Z"/>
    </g>
    <g>
      <path class="cls-4" d="M759.5,515.22v-215.66c0-40.14-32.65-72.79-72.78-72.79h-394.26c-8.34,0-15.11,6.77-15.11,15.11s6.77,15.11,15.11,15.11h394.26c23.47,0,42.57,19.1,42.57,42.58v207.73c2.64-.7,5.29-1.38,8.12-1.38,8.58,0,16.24,3.65,22.09,9.31Z"/>
      <path class="cls-4" d="M558.66,753.88c.42-.1.77-.36,1.18-.47h-201.69v-339.1c0-8.34-6.77-15.11-15.11-15.11s-15.11,6.77-15.11,15.11v347.76c0,11.89,9.68,21.56,21.56,21.56h186.12c0-.08-.04-.14-.04-.22,0-13.97,9.5-26.1,23.07-29.53Z"/>
    </g>
  </g>
  <g class="cls-1">
    <polygon class="cls-3" points="979.11 694.89 979.11 989.12 390.64 989.12 537.76 1136.24 979.11 1136.24 1126.23 989.12 1126.23 547.77 979.11 694.89"/>
  </g>
  <polygon class="cls-3" points="96.26 208.78 96.26 96.26 321.3 96.26 265.04 40 96.26 40 40 96.26 40 265.04 96.26 208.78"/>
</svg>