<?xml version="1.0" encoding="UTF-8"?>
<svg id="_ëÎÓÈ_2" data-name="ëÎÓÈ 2" xmlns="http://www.w3.org/2000/svg" viewBox="0 0 1080 1080">
  <defs>
    <style>
      .cls-1 {
        fill: #ed0b73;
      }

      .cls-1, .cls-2, .cls-3 {
        stroke-width: 0px;
      }

      .cls-2 {
        fill: #000;
      }

      .cls-3 {
        fill: #fff;
      }
    </style>
  </defs>
  <rect class="cls-3" width="1080" height="1080"/>
  <g>
    <path class="cls-2" d="M224.04,519.34c0-39.07,9.49-75.72,26.27-107.95l-42.4-42.38c-26.71,43.71-41.72,95.59-41.72,150.34,0,143.06,102.21,262.49,237.32,288.98-2.44-14.13-1.77-28.92,1.98-43.49,1.33-4.86,2.87-9.71,4.86-14.35-106.41-22.96-186.32-117.89-186.32-231.14Z"/>
    <path class="cls-2" d="M460.47,282.69c112.81,0,207.51,79.47,230.92,185.44,17.66-8.39,37.31-11.26,57.17-8.61-27.6-133.78-146.15-234.67-288.09-234.67-55.19,0-106.63,15.45-150.78,41.72l42.38,42.39c32.45-16.78,69.32-26.27,108.4-26.27Z"/>
    <path class="cls-2" d="M290.27,451.57c-8.61,20.97-13.25,43.71-13.25,67.77,0,98.46,77.92,179.04,175.06,183.46,7.73-4.64,16.56-8.17,25.61-10.6,13.25-3.53,26.71-4.41,39.74-2.65v-43.27c0-5.52.66-10.81,1.98-15.89-17.67,9.49-37.75,14.79-58.94,14.79-69.32,0-125.62-56.52-125.62-125.84,0-7.28.45-14.35,1.99-21.41l-46.58-46.36Z"/>
    <path class="cls-2" d="M460.47,336.11c-24.07,0-46.8,4.64-68,13.24l46.58,46.36c6.84-1.33,14.13-1.99,21.42-1.99,69.1,0,125.83,56.3,125.83,125.61,0,20.53-5.08,40.18-13.91,57.18,5.52-1.55,11.26-2.2,17.21-2.2h43.72c-.67-4.64-.88-9.28-.88-13.69,0-16.56,3.97-32.67,11.25-46.8-2.87-98.46-83.67-177.71-183.23-177.71Z"/>
    <path class="cls-2" d="M393.2,492.96c-3.23,8.21-5.16,17.09-5.16,26.45,0,39.94,32.48,72.42,72.43,72.42s72.45-32.47,72.45-72.42-32.51-72.45-72.45-72.45c-9.37,0-18.24,1.91-26.46,5.15l-194.83-194.82v-59.91c0-5.75-2.29-11.25-6.35-15.31l-59.31-59.31c-6.2-6.2-15.51-8.03-23.6-4.71-8.1,3.36-13.37,11.25-13.37,20.01v57.43h-57.42c-8.76,0-16.65,5.27-20.02,13.36-3.32,8.09-1.49,17.39,4.71,23.6l59.32,59.31c4.05,4.06,9.55,6.34,15.31,6.34h59.9l194.85,194.85Z"/>
    <path class="cls-1" d="M766.16,745.56l-49.47,49.47-16.82-16.68c-8.27-8.43-22.88-8.4-31.09-.03-8.57,8.57-8.57,22.51,0,31.07l32.31,32.31c4.12,4.12,9.66,6.4,15.61,6.4s11.38-2.33,15.46-6.4l65.06-65.07c4.13-4.12,6.39-9.64,6.39-15.53s-2.26-11.4-6.39-15.53c-8.26-8.26-22.82-8.25-31.07,0Z"/>
    <path class="cls-1" d="M1020.56,775.66c-5.07-20.25-20.48-35.56-40.74-40.86-11.89-3.06-23.43-2.36-33.67,1.06-12.84,4.24-26.02,7.3-39.32,9.53v-99.02c0-15.43-12.6-28.02-28.03-28.02h-98.55c2.23-13.31,5.29-26.5,9.53-39.32,3.42-10.25,4.01-21.79.95-33.67-5.19-20.25-20.49-35.56-40.75-40.74-38.73-10.01-73.46,18.96-73.46,56.05,0,6.35,1.06,12.36,2.82,18.13,4.36,12.95,7.3,26.14,9.65,39.56h-99.38c-15.53,0-28.02,12.6-28.02,28.02v98.9c-13.19-2.24-26.26-5.18-38.98-9.42-10.24-3.42-21.77-4.12-33.67-1.06-20.14,5.3-35.55,20.6-40.74,40.86-9.88,38.74,19.08,73.47,56.16,73.47,6.36,0,12.36-1.07,18.01-2.95,12.84-4.12,26.02-7.18,39.22-9.53v98.9c0,15.54,12.48,28.02,28.02,28.02h289.18c15.43,0,28.03-12.48,28.03-28.02v-98.9c13.42,2.35,26.6,5.29,39.56,9.53,5.77,1.88,11.77,2.95,18.13,2.95,36.97,0,65.94-34.74,56.04-73.47ZM734.44,904.25c-62.68,0-113.52-50.7-113.52-113.52s50.84-113.52,113.52-113.52,113.53,50.84,113.53,113.52-50.84,113.52-113.53,113.52Z"/>
  </g>
</svg>