<svg width="38" height="38" viewBox="0 0 38 38" fill="none" xmlns="http://www.w3.org/2000/svg">
<circle cx="19" cy="19" r="19" fill="#171717"/>
<path d="M27.3337 13.8335C26.7073 14.1053 26.0448 14.2849 25.367 14.3668C26.0821 13.9396 26.618 13.2675 26.8753 12.4752C26.2033 12.8752 25.4676 13.1571 24.7003 13.3085C24.1874 12.7523 23.5045 12.3821 22.7585 12.2559C22.0125 12.1297 21.2458 12.2546 20.5785 12.6112C19.9112 12.9677 19.3811 13.5356 19.0714 14.2259C18.7616 14.9161 18.6897 15.6897 18.867 16.4252C17.5082 16.3564 16.179 16.0026 14.9659 15.3867C13.7527 14.7708 12.6827 13.9066 11.8253 12.8502C11.5246 13.3753 11.3666 13.97 11.367 14.5752C11.3659 15.1372 11.5038 15.6907 11.7685 16.1865C12.0331 16.6823 12.4162 17.1049 12.8837 17.4168C12.3403 17.4021 11.8086 17.2563 11.3337 16.9918V17.0335C11.3377 17.8209 11.6137 18.5828 12.1148 19.1901C12.6159 19.7975 13.3114 20.2132 14.0837 20.3668C13.7864 20.4573 13.4777 20.505 13.167 20.5085C12.9519 20.506 12.7373 20.4865 12.5253 20.4502C12.7452 21.1275 13.1708 21.7195 13.7429 22.1436C14.3149 22.5678 15.005 22.8031 15.717 22.8168C14.5147 23.7629 13.0302 24.2792 11.5003 24.2835C11.2218 24.2844 10.9434 24.2677 10.667 24.2335C12.229 25.2421 14.0493 25.7774 15.9087 25.7752C17.1917 25.7885 18.4646 25.546 19.6529 25.0619C20.8412 24.5778 21.9212 23.8617 22.8297 22.9556C23.7381 22.0494 24.457 20.9713 24.9441 19.7843C25.4313 18.5972 25.677 17.3249 25.667 16.0418C25.667 15.9002 25.667 15.7502 25.667 15.6002C26.3209 15.1125 26.8849 14.5147 27.3337 13.8335Z" fill="#DDDDDF"/>
</svg>
