<?xml version="1.0" encoding="UTF-8"?>
<svg id="_ëÎÓÈ_2" data-name="ëÎÓÈ 2" xmlns="http://www.w3.org/2000/svg" xmlns:xlink="http://www.w3.org/1999/xlink" viewBox="0 0 1080 1080">
  <defs>
    <style>
      .cls-1 {
        clip-path: url(#clippath);
      }

      .cls-2 {
        fill: none;
      }

      .cls-2, .cls-3, .cls-4, .cls-5 {
        stroke-width: 0px;
      }

      .cls-3 {
        fill: #ed0a73;
      }

      .cls-4 {
        fill: #000;
        opacity: .05;
      }

      .cls-5 {
        fill: #fff;
      }
    </style>
    <clipPath id="clippath">
      <rect class="cls-2" x="146.1" y="215.59" width="787.8" height="648.83"/>
    </clipPath>
  </defs>
  <rect class="cls-5" x="-2.46" y="-2.46" width="1084.93" height="1084.93"/>
  <path class="cls-4" d="M117.77,643.02h146.43v146.42H117.77v-146.42ZM639.96,613.56h146.43v-146.42h-146.43v146.42ZM815.72,789.44h146.52v-146.42h-146.52v146.42ZM639.96,789.44h146.43v-146.42h-146.43v146.42ZM288.32,965.3h146.52v-146.63h-146.52v146.63ZM288.32,789.44h146.52v-146.42h-146.52v146.42ZM288.32,613.56h146.52v-146.42h-146.52v146.42ZM464.09,789.44h146.53v-146.42h-146.53v146.42ZM639.96,965.3h146.43v-146.63h-146.43v146.63ZM117.77,436.98h146.43v-146.42H117.77v146.42ZM815.72,436.98h146.52v-146.42h-146.52v146.42ZM639.96,261.12h146.43V114.7h-146.43v146.42ZM639.96,436.98h146.43v-146.42h-146.43v146.42ZM288.32,436.98h146.52v-146.42h-146.52v146.42ZM464.09,436.98h146.53v-146.42h-146.53v146.42ZM288.32,261.12h146.52V114.7h-146.52v146.42Z"/>
  <g class="cls-1">
    <path class="cls-3" d="M485.55,570.13c1.31.93,3.07,2.93,3.86,2.61,3.95-1.63,6.95-.83,10.14,1.81,1.33,1.09,3.72,1.1,5.66,1.25,2.55.2,5.16-.18,7.7.12,3.68.43,5.52-.75,6.27-4.54.95-4.79,3.32-5.46,6.21-1.42,2.92,4.1,6.75,4.28,10.59,4.52,4.68.08,7.15-2.21,7.45-6.61.3-4.29-1.22-5.91-6.16-6.59-.92-.13-1.86-.28-2.73-.58-3.99-1.38-8.79-1.6-8.85-7.78-.02-2.1-2.3-1.66-3.74-.59-1.08.81-1.9,2.17-3.09,2.59-4.77,1.68-9.45,4.06-14.84,2.64-.63-.17-1.58.6-2.3,1.06-4.6,2.99-9.19,5.98-13.73,9.05-.94.64-1.64,1.64-2.44,2.47"/>
    <path class="cls-3" d="M575.95,543.06c1.52.88,3.05,2.05,4.06,3.45,4.14,5.78,10.45,6.89,17.16,2.15-3.33-3.39-6.37-6.96-9.9-9.96-3.78-3.22-8.18-2.58-11.79.96-1.49,1.47-1.41,2.32.47,3.4"/>
    <path class="cls-3" d="M605.44,520.85c.98.35,1.96.73,2.98.96,4.17.92,8.33,1.98,12.56,2.56,1.11.15,2.44-1.28,3.67-1.98-.87-.93-1.61-2.06-2.64-2.75-.81-.54-1.97-.59-2.99-.79-6.05-1.2-8.83-4.47-8.89-10.46,0-.45-.07-.9-.21-2.48-2.68,1.96-4.84,3.26-6.66,4.94-3.34,3.09-2.09,8.47,2.18,10"/>
    <path class="cls-3" d="M437.11,549.43c2.95-.45,5.62-3.37,4.39-4.54-1.42-1.35-3.93-1.6-5.99-2.26-.26-.08-.65.21-.97.34-3.34,1.28-6.73,2.44-9.97,3.94-.95.44-1.45,1.85-2.16,2.82.91.53,1.82,1.06,2.19,1.28,4.69-.58,8.62-.97,12.53-1.57"/>
    <path class="cls-3" d="M555.97,568.02c3.52-1,6.17-1.76,8.82-2.52,1.17-.33,2.34-.67,3.51-1-.64-1.26-1.08-2.68-1.97-3.72-.79-.93-2.07-1.46-3.17-2.11-1.62-.95-2.66-.54-3.67,1.14-.74,1.22-2.07,2.54-3.36,2.85-1.7.4-3.69.44-3.24,2.51.26,1.21,2.18,2.06,3.09,2.86"/>
    <path class="cls-3" d="M588.33,535.2c.94.19,2.22-.91,3.22-1.61.17-.12-.14-1.53-.53-1.72-3.28-1.56-2.99-4.21-2.05-7.12-.34-.21-.68-.42-1.02-.63-2.97,2.3-5.95,4.61-8.92,6.91.07.48.15.97.22,1.45,3.02.94,5.99,2.07,9.07,2.71"/>
    <path class="cls-3" d="M620.4,505.85c2.56-.71,3.43-4.68,1.74-7.95-1.73,1.16-3.62,2.1-5.02,3.51-.8.81-.8,2.39-1.16,3.63,1.49.31,3.13,1.18,4.43.82"/>
    <path class="cls-3" d="M488.45,543.5c.13-.21-1.76-2.22-2.26-2.05-2.01.67-3.84,1.87-5.74,2.88,1.2.99,2.4,1.99,4.39,3.64,1.58-1.85,2.78-3.05,3.61-4.47"/>
    <path class="cls-3" d="M933.15,408.43c-1.65-13.71-1.68-27.43-.44-41.18.38-4.24.28-8.56.02-12.82-.32-5.28-1.29-10.53-1.53-15.81-.4-9.11-.45-18.23-.65-27.34-.22-.6-.44-1.19-.66-1.79.08-.26.16-.52.23-.78-.73-.7-1.46-1.4-2.2-2.11-.26.05-.52.1-.78.15-1.99-3.33-5.17-2.93-8.32-2.59-1.02-.09-2.04-.18-2.06-.18-2.07-1.91-3.54-3.25-5-4.6-.95.15-1.9.3-2.84.45-.67-.11-1.35-.22-2.02-.32-2.06.55-2.42-.68-2.45-2.28l.04-.07c-.14-.31-.29-.62-.43-.92-1.64-1.64-3.27-3.28-4.91-4.92h-4.26c.95-5.17-2.69-10.67,2.11-15.3.29-.69.58-1.39.87-2.08.06-.88.13-1.76.19-2.64-1.2-1.88-2.4-3.76-3.6-5.64-2.33-2.45-2.07-5.68-.46-7.73,4-5.11,3.66-10.81,3.51-16.57-.1-4.15.35-8.07,2.85-11.57.44-.62.95-1.66.71-2.2-1.56-3.58-3.14-7.17-5.12-10.52-.54-.91-2.42-1.29-3.74-1.44-1.69-.2-7.34,4.71-7.69,6.4-1.04,4.95-1.61,10.05-3.22,14.82-2.28,6.77-5.26,13.31-8.07,19.89-1.17,2.75-2.59,5.41-4.06,8.01-1.23,2.18-2.92,4.12-4.04,6.34-1.77,3.52-3.96,6.48-7.69,8.18-1.24.56-2.22,1.65-3.4,2.39-2.8,1.77-5.48,3.86-8.51,5.13-5.5,2.32-10.97,4.37-14.68,9.49-1.74,2.4-4.36,4.16-6.33,6.43-3.46,4-7.73,7.72-9.84,12.36-3.04,6.71-3.49,7.94-10.94,8.4-.93.06-2-.25-2.78.1-3.08,1.42-6.82,2.37-8.95,4.71-7.3,8.02-14.12,16.49-20.93,24.93-4.79,5.94-9.2,12.18-13.9,18.2-2.32,2.97-4.91,5.74-7.39,8.59-1.06,1.22-2.3,2.33-3.19,3.67-2.96,4.41-5.78,8.9-8.7,13.33-.43.66-1.14,1.14-1.73,1.69-2.02,1.9-4.28,3.61-6.01,5.75-3.12,3.86-5.67,8.2-8.96,11.89-2.15,2.41-5.04,4.34-7.9,5.94-5.13,2.87-10.88,4.55-15.2,8.97-2.33,2.39-5.03,4.42-7.71,6.47-.83.64-1.66,1.27-2.48,1.92-2.04,1.61-4.17,3.11-6.26,4.66-3.81.32-6.53,1.83-7.52,5.9-.69,2.81-1.98,5.46-3.09,8.42-5.04-4.82-6.99-4.2-10.3-.1-.5.63-1.12,1.18-1.76,1.68-2.69,2.09-3.58,4.71-3.49,8.15.22,8.17-1.62,15.96-5.02,23.46-1.31,2.88-1.98,6.12-2.48,9.27-.44,2.77-1.5,4.1-4.48,4.06-2.44-.03-4.89.47-7.33.74-.07.38-.15.75-.22,1.13,2.8,1.69,5.6,3.38,8.4,5.06h0c.31,1.35.62,2.71.93,4.06-1.92,1.15-3.84,2.29-5.76,3.44-.7.26-1.4.52-2.09.78-1.44.47-2.84,1.12-4.31,1.38-3.67.63-4.8,2.35-3.58,6,.66,1.97-.47,3.48-2.85,3.89-.91.16-2.11.93-2.45,1.73-1.88,4.33-3.36,8.84-5.31,13.14-1.97,4.33-4.86,8.14-9.86,9.12-5.79,1.14-11.67,1.94-17.55,2.47-2.13.19-4.77-.22-6.5-1.37-4.64-3.07-9.16-6.42-11.4-11.88-.89-2.17-2.71-2.92-4.87-1.88-1.64.79-3.19,1.85-4.64,2.96-1.61,1.24-1.33,2.53.29,3.63,3.07,2.09,6.27,4.03,9.16,6.34,2.3,1.83,4.28,4.07,6.26,6.25.41.45.56,1.81.22,2.13-2.75,2.6-5.3,5.65-8.55,7.42-6.08,3.31-12.52,5.99-18.92,8.68-6.08,2.56-12.2,5.07-18.47,7.11-7.78,2.53-15.73.74-23.6.05-6.39-.56-12.65-1.22-18.33,3.27-3.76,2.97-12.1,1.14-15.16-2.48-3.42-4.05-7.36-7.99-12.73-8.54-6.06-.62-12.26.04-18.39.31-1.43.06-3.07.45-4.2,1.26-7.04,5.04-14.98,4.2-20.87-2-2.84-2.99-5.98-5.87-9.46-8.06-.24-.15-.46-.25-.69-.38-3.13-1.67-5.03-.53-6.8,2.97-.42.82-1.25,1.94-1.99,2.02-5.42.6-10.86.97-16.29,1.41-.74-.42-1.48-.83-2.21-1.25-.09-.15-.12-.31-.11-.49-.63-.87-1.27-1.74-1.9-2.61-1.18.31-2.35.62-3.53.94-2.01,1.16-3.96,3.17-6.05,3.33-5.85.43-11.77.07-17.65.05-2.63,0-5.25.08-7.88.12-10.51-5.3-6.27-2.52-9.39-2.48-4.83.06-8.07-2.11-11.18-5.19-2.04-2.02-4.76-4.06-7.38-2.5-1.61.95-2.37,3.99-2.69,6.2-.33,2.25-1.18,3.56-3.18,4.47-4.33,1.97-8.64,4-12.9,6.11-1.2.59-2.22,1.54-3.29,2.37-2.08,1.62-3.97,3.53-6.22,4.86-5.29,3.12-10.7,6.05-16.14,8.91-2.52,1.33-5.17,2.44-7.84,3.45-1.72.65-3.58.96-5.38,1.39-9.21,2.19-18.35,3.26-27.27-1.26-.75-.38-2.38-.25-2.91.3-3.3,3.42-5.48,3.2-7.79-1.01-1.61-2.93-3.71-4.65-7.39-3.37-1.36.47-2.99.53-4.44.37-3.42-.38-6.8-1.52-10.03.87-.7.52-2.1.45-3.07.21-4.36-1.09-8.64-2.6-13.04-3.42-2.88-.53-3.8-1.77-4.08-4.53-.8-7.89-.07-16.01-3.45-23.55-.32-.72.06-1.81.25-2.7.84-3.94,2.28-7.85,2.49-11.82.41-7.7.48-7.6-6.28-6.46-.72.53-1.43,1.06-2.15,1.59-.56,3.01-1.02,6.05-1.73,9.03-.32,1.33-1.15,2.55-2.22,4.83-1.36-3.21-2.26-5.36-3.17-7.5.06-.22.09-.44.07-.66-.92-1.71-1.83-3.42-3.08-5.75-.69,7.99-1.49,9.36-5.4,10-.21.04-.42.11-.61.19-.12-1.94-.24-3.89-.37-5.83.05-.52.1-1.05.15-1.57.05-.29.1-.58.16-.87.07-.61.13-1.22.2-1.83.12-2.03.24-4.06.36-6.09-.07-.77-.14-1.54-.2-2.31-.1-.67-.2-1.33-.29-2,.05-.24.1-.48.16-.72-1.89-2.5-3.78-4.99-5.68-7.49-.42.18-.83.36-1.25.55-.25,1.61-.49,3.22-.74,4.83.2.26.39.51.59.77.2,1.09.3,2.22.62,3.28,1.24,4.15,1.99,8.21-1.28,11.89-1.24,1.4-1.57,2.71-.45,4.62.84,1.42.61,3.46.85,5.23.08.22.16.45.24.67-.29,1.16-.59,2.32-.88,3.48.08.24.17.48.25.72-.53,4.47-3.9,8.54.46,13.43,7.32,8.21,13.72,17.21,20.56,25.85,15.41,19.45,30.86,38.86,46.26,58.31.86,1.08,1.72,2.16,2.57,3.25,11.65,14.73,23.17,29.55,34.82,44.28,10.29,13,20.72,25.89,31.02,38.88,10.23,12.91,20.33,25.91,30.57,38.81.87,1.1,2.21,2.29,3.51,2.53,9.49,1.82,19.02,3.4,28.54,5.06l.14.12.03.19s.16-.04.16-.04c3.43.64,6.87,1.27,10.3,1.92,8.2,1.55,16.4,3.12,24.6,4.68,1.07.22,2.15.44,3.22.66l.23-.08c1.41.27,2.82.54,4.24.8l.2-.24c1.13.05,2.25.09,3.38.14.45.27.9.54,1.36.81,5.56.9,11.11,1.81,16.67,2.71,1.44.23,2.89.47,4.33.7-.06-.64-.09-1.26-.08-1.86,0,.6.02,1.22.08,1.86.57.18,1.14.37,1.71.55,2.02.29,4.04.58,6.06.87,1.75.46,3.51.92,5.26,1.39,12.06,2.02,24.14,3.95,36.18,6.07,27.08,4.79,54.15,9.65,81.22,14.52,22.43,4.04,44.84,8.17,67.27,12.21,11.47,2.06,22.97,3.94,34.44,5.99,22.72,4.06,45.44,8.15,68.14,12.33,1.97.36,3.16.01,4.55-1.41,8.16-8.36,16.63-16.43,24.6-24.96,3.41-3.65,8.25-6.31,8.67-12.43.52-7.48,2.69-14.89,2.74-22.34.05-9.11-1.17-18.25-2.25-27.34-.37-3.13.19-5.74,1.87-8.14,1.86-2.65,2.54-5.46,1.78-8.51-.7-2.8-.01-5.21,1.38-7.58,2-3.39,3.84-6.87,5.95-10.19,9.58-15.07,16.07-31.18,17.53-49.11.15-1.87.7-3.97,1.79-5.43,1.77-2.4,4.28-4.24,6.22-6.54,2.48-2.94,6.65-5.12,5.21-10.08.2-1.68.4-3.37.6-5.05.26-2.15.51-4.3.77-6.44.43-1.93.87-3.86,1.3-5.79,1.96-2.57,3.79-5.25,5.92-7.67,2.78-3.16,4.48-6.41,4.09-10.89-.45-5.18-.26-10.43-.03-15.64.11-2.48-.86-3.83-2.88-5-3.31-1.92-6.93-3.61-9.59-6.23-1.41-1.39-1.19-4.53-1.33-6.9-.02-.31,2.24-.9,3.49-1.09,4.89-.76,10.21.24,13.92-4.57,4.1-5.3,10.18-6,16.38-5.76,1.31.05,2.92.42,3.83,1.25,1.99,1.82,3.7,1.95,5.9.44,2.9-1.99,5.9-2.36,9.11-.32.89.56,2.48.5,3.58.18,8.37-2.45,16.71-5.02,25.04-7.57,2.29-.7,4.56-1.5,7.17-2.36-3.89-10.06-7.58-19.61-11.53-29.82-3.7,1.14-7.6,1.56-10.51,3.46-2.71,1.77-4.95,2.15-7.77,1.3-1.67-.51-3.31-1.18-5.02-1.47-5.51-.91-7.79-6.05-3.9-10.5,4.64-5.29,6.34-11.38,5.48-18.26-.06-.46.14-.99-.03-1.38-.82-1.93-1.24-4.47-2.72-5.56-2.33-1.71-2.78-3.56-2.89-6.15-.25-6.09-.86-12.16-1.24-18.24-.07-1.09-.08-2.76.57-3.22,2.34-1.69,2.02-3.95,2.05-6.26.02-.99.07-2.42.69-2.9,3.87-2.97,3.75-6.79,2.87-10.93-.41-1.91-.54-3.87-.8-5.81-.92-6.97-1.84-13.95-2.76-20.92-.2-1.48-.33-2.97-.61-4.43-.14-.72-.2-1.4-.17-2.05.06-1.74.74-3.24,2.41-4.66,3.97-3.38,7.53-7.22,11.39-10.74.96-.87,2.34-1.64,3.6-1.78,4.74-.54,9.51-.91,14.28-1.09.96-.04,2.23.8,2.89,1.62,3.97,4.89,1.95,10.41,1.92,15.98-3.05-.58-5.63-1.06-8.21-1.55-.16.31-.32.62-.48.93.25.43.5.86.75,1.29,1.27,2.19,2.54,4.39,3.81,6.58,1.59,3.55,3.27,7.06,4.75,10.66,1.65,4.01,4.1,6.51,8.89,5.6.85-.16,1.81.36,2.73.44,3.24.28,6.62.93,8-3.35.22-.68,1.19-1.09,1.65-1.74,1.13-1.61,2.55-3.16,3.14-4.96.97-2.93,2.03-5.38,5.61-5.64.62-.05,1.2-.59,1.8-.91,1.64-.81,3.38-1.47,4.89-2.47,1.97-1.31,3.8-2.81,5.71-4.2.66-.48,1.34-.95,2.03-1.4,4.68-3.01,5.4-4.68,3.84-10.08-.92-3.15-.96-5.91,2.73-7.51.71-.31,1.44-1.57,1.42-2.37-.06-2.63-.43-5.25-.75-7.88"/>
    <path class="cls-3" d="M319.59,552.24c4.74.49,7.13-3.18,9.38-6.63,2.72-4.16-.11-10.23-5.03-11.09-.88-.15-2.13.51-2.87,1.17-1.93,1.75-3.49,3.94-5.54,5.52-2.54,1.95-3.47,3.94-2.42,7.13,1.05,3.18,3.17,3.99,6.47,3.9"/>
    <path class="cls-3" d="M272.22,514.55c2.24-.05,7.01-5.12,6.18-7.31-.79-2.09-2.66-4.58-4.63-5.24-2.73-.92-6.87,4.15-6.71,7.42.13,2.69,2.64,5.19,5.15,5.13"/>
    <path class="cls-3" d="M220.1,561.13c1.01-1.54,1.76-3.45,1.91-5.27.1-1.21-1-2.52-1.87-4.47-1.9,2.8-3.24,4.31-4,6.08-.39.92-.14,2.73.54,3.3.77.64,3.11.84,3.42.37"/>
    <path class="cls-3" d="M217.72,569.49c1.19-2.93.41-4.76-3.14-5.4-.58,5.22-.41,5.49,3.14,5.4"/>
  </g>
</svg>